G04 #@! TF.FileFunction,Soldermask,Top*
%FSLAX46Y46*%
G04 Gerber Fmt 4.6, Leading zero omitted, Abs format (unit mm)*
G04 Created by KiCad (PCBNEW 4.0.7) date 09/29/18 17:05:15*
%MOMM*%
%LPD*%
G01*
G04 APERTURE LIST*
%ADD10C,0.100000*%
%ADD11O,1.727200X2.032000*%
%ADD12C,4.064000*%
%ADD13R,0.900000X1.200000*%
%ADD14R,1.000000X1.200000*%
%ADD15C,2.500000*%
%ADD16R,2.500000X2.500000*%
%ADD17R,1.000000X0.900000*%
%ADD18R,1.000000X1.250000*%
%ADD19C,3.000000*%
%ADD20R,1.700000X1.700000*%
%ADD21O,1.700000X1.700000*%
G04 APERTURE END LIST*
D10*
D11*
X138938000Y-123825000D03*
X141478000Y-123825000D03*
X144018000Y-123825000D03*
X146558000Y-123825000D03*
X149098000Y-123825000D03*
X151638000Y-123825000D03*
X154178000Y-123825000D03*
X156718000Y-123825000D03*
X161798000Y-123825000D03*
X164338000Y-123825000D03*
X166878000Y-123825000D03*
X169418000Y-123825000D03*
X171958000Y-123825000D03*
X174498000Y-123825000D03*
X129794000Y-75565000D03*
X132334000Y-75565000D03*
X134874000Y-75565000D03*
X137414000Y-75565000D03*
X139954000Y-75565000D03*
X142494000Y-75565000D03*
X145034000Y-75565000D03*
X147574000Y-75565000D03*
X150114000Y-75565000D03*
X152654000Y-75565000D03*
X156718000Y-75565000D03*
X159258000Y-75565000D03*
X161798000Y-75565000D03*
X164338000Y-75565000D03*
X166878000Y-75565000D03*
X169418000Y-75565000D03*
X171958000Y-75565000D03*
X174498000Y-75565000D03*
D12*
X124968000Y-123825000D03*
X177038000Y-118745000D03*
X126238000Y-75565000D03*
X177038000Y-90805000D03*
D13*
X157948000Y-93615000D03*
X161248000Y-93615000D03*
D14*
X173748000Y-87865000D03*
X171748000Y-87865000D03*
D13*
X130298000Y-98615000D03*
X126998000Y-98615000D03*
D14*
X173748000Y-84115000D03*
X171748000Y-84115000D03*
D13*
X140748000Y-101865000D03*
X144048000Y-101865000D03*
D14*
X173748000Y-80615000D03*
X171748000Y-80615000D03*
D15*
X174748000Y-99865000D03*
D16*
X174748000Y-109865000D03*
D15*
X174748000Y-104865000D03*
X115748000Y-92115000D03*
D16*
X115748000Y-82115000D03*
D15*
X115748000Y-87115000D03*
X115748000Y-117115000D03*
D16*
X115748000Y-107115000D03*
D15*
X115748000Y-112115000D03*
D17*
X163948000Y-92465000D03*
X163948000Y-94365000D03*
X165948000Y-93415000D03*
X122748000Y-100365000D03*
X122748000Y-98465000D03*
X120748000Y-99415000D03*
X137248000Y-100315000D03*
X137248000Y-98415000D03*
X135248000Y-99365000D03*
D18*
X169473000Y-87865000D03*
X167273000Y-87865000D03*
X160948000Y-90115000D03*
X158748000Y-90115000D03*
X169448000Y-84115000D03*
X167248000Y-84115000D03*
X126748000Y-102115000D03*
X128948000Y-102115000D03*
X169448000Y-80615000D03*
X167248000Y-80615000D03*
X141998000Y-98115000D03*
X144198000Y-98115000D03*
D15*
X163998000Y-98815000D03*
D19*
X151798000Y-98815000D03*
X151748000Y-110865000D03*
D15*
X163998000Y-110815000D03*
D19*
X165948000Y-104865000D03*
D15*
X126948000Y-93415000D03*
D19*
X139148000Y-93415000D03*
X139198000Y-81365000D03*
D15*
X126948000Y-81415000D03*
D19*
X124998000Y-87365000D03*
D15*
X126948000Y-118415000D03*
D19*
X139148000Y-118415000D03*
X139198000Y-106365000D03*
D15*
X126948000Y-106415000D03*
D19*
X124998000Y-112365000D03*
D20*
X153758000Y-114955000D03*
D21*
X153758000Y-117495000D03*
X153758000Y-120035000D03*
D20*
X158098000Y-114965000D03*
D21*
X158098000Y-117505000D03*
X158098000Y-120045000D03*
D20*
X147018000Y-79435000D03*
D21*
X149558000Y-79435000D03*
X152098000Y-79435000D03*
D20*
X163848000Y-116685000D03*
D21*
X166388000Y-116685000D03*
X168928000Y-116685000D03*
X171468000Y-116685000D03*
M02*
