G04 #@! TF.FileFunction,Soldermask,Bot*
%FSLAX46Y46*%
G04 Gerber Fmt 4.6, Leading zero omitted, Abs format (unit mm)*
G04 Created by KiCad (PCBNEW 4.0.7) date 09/29/18 17:05:15*
%MOMM*%
%LPD*%
G01*
G04 APERTURE LIST*
%ADD10C,0.100000*%
%ADD11O,1.727200X2.032000*%
%ADD12C,4.064000*%
%ADD13C,2.500000*%
%ADD14R,2.500000X2.500000*%
%ADD15C,3.000000*%
%ADD16R,1.502000X1.502000*%
%ADD17R,1.700000X1.700000*%
%ADD18O,1.700000X1.700000*%
G04 APERTURE END LIST*
D10*
D11*
X138938000Y-123825000D03*
X141478000Y-123825000D03*
X144018000Y-123825000D03*
X146558000Y-123825000D03*
X149098000Y-123825000D03*
X151638000Y-123825000D03*
X154178000Y-123825000D03*
X156718000Y-123825000D03*
X161798000Y-123825000D03*
X164338000Y-123825000D03*
X166878000Y-123825000D03*
X169418000Y-123825000D03*
X171958000Y-123825000D03*
X174498000Y-123825000D03*
X129794000Y-75565000D03*
X132334000Y-75565000D03*
X134874000Y-75565000D03*
X137414000Y-75565000D03*
X139954000Y-75565000D03*
X142494000Y-75565000D03*
X145034000Y-75565000D03*
X147574000Y-75565000D03*
X150114000Y-75565000D03*
X152654000Y-75565000D03*
X156718000Y-75565000D03*
X159258000Y-75565000D03*
X161798000Y-75565000D03*
X164338000Y-75565000D03*
X166878000Y-75565000D03*
X169418000Y-75565000D03*
X171958000Y-75565000D03*
X174498000Y-75565000D03*
D12*
X124968000Y-123825000D03*
X177038000Y-118745000D03*
X126238000Y-75565000D03*
X177038000Y-90805000D03*
D13*
X174748000Y-99865000D03*
D14*
X174748000Y-109865000D03*
D13*
X174748000Y-104865000D03*
X115748000Y-92115000D03*
D14*
X115748000Y-82115000D03*
D13*
X115748000Y-87115000D03*
X115748000Y-117115000D03*
D14*
X115748000Y-107115000D03*
D13*
X115748000Y-112115000D03*
X163998000Y-98815000D03*
D15*
X151798000Y-98815000D03*
X151748000Y-110865000D03*
D13*
X163998000Y-110815000D03*
D15*
X165948000Y-104865000D03*
D13*
X126948000Y-93415000D03*
D15*
X139148000Y-93415000D03*
X139198000Y-81365000D03*
D13*
X126948000Y-81415000D03*
D15*
X124998000Y-87365000D03*
D13*
X126948000Y-118415000D03*
D15*
X139148000Y-118415000D03*
X139198000Y-106365000D03*
D13*
X126948000Y-106415000D03*
D15*
X124998000Y-112365000D03*
D10*
G36*
X170997500Y-77865000D02*
X169998500Y-78865000D01*
X169997500Y-78865000D01*
X168998500Y-77865000D01*
X170997500Y-77865000D01*
X170997500Y-77865000D01*
G37*
G36*
X170998000Y-80864500D02*
X169998000Y-79865500D01*
X169998000Y-79864500D01*
X170998000Y-78865500D01*
X170998000Y-80864500D01*
X170998000Y-80864500D01*
G37*
G36*
X168998000Y-78865500D02*
X169998000Y-79864500D01*
X169998000Y-79865500D01*
X168998000Y-80864500D01*
X168998000Y-78865500D01*
X168998000Y-78865500D01*
G37*
G36*
X168998500Y-80865000D02*
X169997500Y-79865000D01*
X169998500Y-79865000D01*
X170997500Y-80865000D01*
X168998500Y-80865000D01*
X168998500Y-80865000D01*
G37*
G36*
X167997500Y-77865000D02*
X166998500Y-78865000D01*
X166997500Y-78865000D01*
X165998500Y-77865000D01*
X167997500Y-77865000D01*
X167997500Y-77865000D01*
G37*
G36*
X167998000Y-80864500D02*
X166998000Y-79865500D01*
X166998000Y-79864500D01*
X167998000Y-78865500D01*
X167998000Y-80864500D01*
X167998000Y-80864500D01*
G37*
G36*
X165998000Y-78865500D02*
X166998000Y-79864500D01*
X166998000Y-79865500D01*
X165998000Y-80864500D01*
X165998000Y-78865500D01*
X165998000Y-78865500D01*
G37*
G36*
X165998500Y-80865000D02*
X166997500Y-79865000D01*
X166998500Y-79865000D01*
X167997500Y-80865000D01*
X165998500Y-80865000D01*
X165998500Y-80865000D01*
G37*
G36*
X164997500Y-77865000D02*
X163998500Y-78865000D01*
X163997500Y-78865000D01*
X162998500Y-77865000D01*
X164997500Y-77865000D01*
X164997500Y-77865000D01*
G37*
G36*
X164998000Y-80864500D02*
X163998000Y-79865500D01*
X163998000Y-79864500D01*
X164998000Y-78865500D01*
X164998000Y-80864500D01*
X164998000Y-80864500D01*
G37*
G36*
X162998000Y-78865500D02*
X163998000Y-79864500D01*
X163998000Y-79865500D01*
X162998000Y-80864500D01*
X162998000Y-78865500D01*
X162998000Y-78865500D01*
G37*
G36*
X162998500Y-80865000D02*
X163997500Y-79865000D01*
X163998500Y-79865000D01*
X164997500Y-80865000D01*
X162998500Y-80865000D01*
X162998500Y-80865000D01*
G37*
G36*
X161699000Y-114976000D02*
X160897000Y-114976000D01*
X161197000Y-114874000D01*
X161399000Y-114874000D01*
X161699000Y-114976000D01*
X161699000Y-114976000D01*
G37*
G36*
X161999000Y-115276000D02*
X160597000Y-115276000D01*
X160897000Y-114974000D01*
X161699000Y-114974000D01*
X161999000Y-115276000D01*
X161999000Y-115276000D01*
G37*
G36*
X162149000Y-115676000D02*
X160447000Y-115676000D01*
X160597000Y-115274000D01*
X161999000Y-115274000D01*
X162149000Y-115676000D01*
X162149000Y-115676000D01*
G37*
G36*
X160447000Y-118054000D02*
X162149000Y-118054000D01*
X161999000Y-118456000D01*
X160597000Y-118456000D01*
X160447000Y-118054000D01*
X160447000Y-118054000D01*
G37*
G36*
X160597000Y-118454000D02*
X161999000Y-118454000D01*
X161699000Y-118756000D01*
X160897000Y-118756000D01*
X160597000Y-118454000D01*
X160597000Y-118454000D01*
G37*
G36*
X160897000Y-118754000D02*
X161699000Y-118754000D01*
X161399000Y-118856000D01*
X161197000Y-118856000D01*
X160897000Y-118754000D01*
X160897000Y-118754000D01*
G37*
D16*
X161298000Y-116865000D03*
D17*
X153758000Y-114955000D03*
D18*
X153758000Y-117495000D03*
X153758000Y-120035000D03*
D17*
X158098000Y-114965000D03*
D18*
X158098000Y-117505000D03*
X158098000Y-120045000D03*
D17*
X147018000Y-79435000D03*
D18*
X149558000Y-79435000D03*
X152098000Y-79435000D03*
D17*
X163848000Y-116685000D03*
D18*
X166388000Y-116685000D03*
X168928000Y-116685000D03*
X171468000Y-116685000D03*
M02*
