G04 #@! TF.FileFunction,Copper,L2,Bot,Signal*
%FSLAX46Y46*%
G04 Gerber Fmt 4.6, Leading zero omitted, Abs format (unit mm)*
G04 Created by KiCad (PCBNEW 4.0.7) date 09/29/18 17:05:15*
%MOMM*%
%LPD*%
G01*
G04 APERTURE LIST*
%ADD10C,0.100000*%
%ADD11O,1.727200X2.032000*%
%ADD12C,4.064000*%
%ADD13C,2.500000*%
%ADD14R,2.500000X2.500000*%
%ADD15C,3.000000*%
%ADD16R,1.500000X1.500000*%
%ADD17R,1.700000X1.700000*%
%ADD18O,1.700000X1.700000*%
%ADD19C,0.600000*%
%ADD20C,0.400000*%
%ADD21C,1.000000*%
%ADD22C,0.635000*%
%ADD23C,0.304800*%
%ADD24C,0.762000*%
%ADD25C,2.540000*%
%ADD26C,0.254000*%
G04 APERTURE END LIST*
D10*
D11*
X138938000Y-123825000D03*
X141478000Y-123825000D03*
X144018000Y-123825000D03*
X146558000Y-123825000D03*
X149098000Y-123825000D03*
X151638000Y-123825000D03*
X154178000Y-123825000D03*
X156718000Y-123825000D03*
X161798000Y-123825000D03*
X164338000Y-123825000D03*
X166878000Y-123825000D03*
X169418000Y-123825000D03*
X171958000Y-123825000D03*
X174498000Y-123825000D03*
X129794000Y-75565000D03*
X132334000Y-75565000D03*
X134874000Y-75565000D03*
X137414000Y-75565000D03*
X139954000Y-75565000D03*
X142494000Y-75565000D03*
X145034000Y-75565000D03*
X147574000Y-75565000D03*
X150114000Y-75565000D03*
X152654000Y-75565000D03*
X156718000Y-75565000D03*
X159258000Y-75565000D03*
X161798000Y-75565000D03*
X164338000Y-75565000D03*
X166878000Y-75565000D03*
X169418000Y-75565000D03*
X171958000Y-75565000D03*
X174498000Y-75565000D03*
D12*
X124968000Y-123825000D03*
X177038000Y-118745000D03*
X126238000Y-75565000D03*
X177038000Y-90805000D03*
D13*
X174748000Y-99865000D03*
D14*
X174748000Y-109865000D03*
D13*
X174748000Y-104865000D03*
X115748000Y-92115000D03*
D14*
X115748000Y-82115000D03*
D13*
X115748000Y-87115000D03*
X115748000Y-117115000D03*
D14*
X115748000Y-107115000D03*
D13*
X115748000Y-112115000D03*
X163998000Y-98815000D03*
D15*
X151798000Y-98815000D03*
X151748000Y-110865000D03*
D13*
X163998000Y-110815000D03*
D15*
X165948000Y-104865000D03*
D13*
X126948000Y-93415000D03*
D15*
X139148000Y-93415000D03*
X139198000Y-81365000D03*
D13*
X126948000Y-81415000D03*
D15*
X124998000Y-87365000D03*
D13*
X126948000Y-118415000D03*
D15*
X139148000Y-118415000D03*
X139198000Y-106365000D03*
D13*
X126948000Y-106415000D03*
D15*
X124998000Y-112365000D03*
D10*
G36*
X170997500Y-77865000D02*
X169998500Y-78865000D01*
X169997500Y-78865000D01*
X168998500Y-77865000D01*
X170997500Y-77865000D01*
X170997500Y-77865000D01*
G37*
G36*
X170998000Y-80864500D02*
X169998000Y-79865500D01*
X169998000Y-79864500D01*
X170998000Y-78865500D01*
X170998000Y-80864500D01*
X170998000Y-80864500D01*
G37*
G36*
X168998000Y-78865500D02*
X169998000Y-79864500D01*
X169998000Y-79865500D01*
X168998000Y-80864500D01*
X168998000Y-78865500D01*
X168998000Y-78865500D01*
G37*
G36*
X168998500Y-80865000D02*
X169997500Y-79865000D01*
X169998500Y-79865000D01*
X170997500Y-80865000D01*
X168998500Y-80865000D01*
X168998500Y-80865000D01*
G37*
G36*
X167997500Y-77865000D02*
X166998500Y-78865000D01*
X166997500Y-78865000D01*
X165998500Y-77865000D01*
X167997500Y-77865000D01*
X167997500Y-77865000D01*
G37*
G36*
X167998000Y-80864500D02*
X166998000Y-79865500D01*
X166998000Y-79864500D01*
X167998000Y-78865500D01*
X167998000Y-80864500D01*
X167998000Y-80864500D01*
G37*
G36*
X165998000Y-78865500D02*
X166998000Y-79864500D01*
X166998000Y-79865500D01*
X165998000Y-80864500D01*
X165998000Y-78865500D01*
X165998000Y-78865500D01*
G37*
G36*
X165998500Y-80865000D02*
X166997500Y-79865000D01*
X166998500Y-79865000D01*
X167997500Y-80865000D01*
X165998500Y-80865000D01*
X165998500Y-80865000D01*
G37*
G36*
X164997500Y-77865000D02*
X163998500Y-78865000D01*
X163997500Y-78865000D01*
X162998500Y-77865000D01*
X164997500Y-77865000D01*
X164997500Y-77865000D01*
G37*
G36*
X164998000Y-80864500D02*
X163998000Y-79865500D01*
X163998000Y-79864500D01*
X164998000Y-78865500D01*
X164998000Y-80864500D01*
X164998000Y-80864500D01*
G37*
G36*
X162998000Y-78865500D02*
X163998000Y-79864500D01*
X163998000Y-79865500D01*
X162998000Y-80864500D01*
X162998000Y-78865500D01*
X162998000Y-78865500D01*
G37*
G36*
X162998500Y-80865000D02*
X163997500Y-79865000D01*
X163998500Y-79865000D01*
X164997500Y-80865000D01*
X162998500Y-80865000D01*
X162998500Y-80865000D01*
G37*
G36*
X161698000Y-114975000D02*
X160898000Y-114975000D01*
X161198000Y-114875000D01*
X161398000Y-114875000D01*
X161698000Y-114975000D01*
X161698000Y-114975000D01*
G37*
G36*
X161998000Y-115275000D02*
X160598000Y-115275000D01*
X160898000Y-114975000D01*
X161698000Y-114975000D01*
X161998000Y-115275000D01*
X161998000Y-115275000D01*
G37*
G36*
X162148000Y-115675000D02*
X160448000Y-115675000D01*
X160598000Y-115275000D01*
X161998000Y-115275000D01*
X162148000Y-115675000D01*
X162148000Y-115675000D01*
G37*
G36*
X160448000Y-118055000D02*
X162148000Y-118055000D01*
X161998000Y-118455000D01*
X160598000Y-118455000D01*
X160448000Y-118055000D01*
X160448000Y-118055000D01*
G37*
G36*
X160598000Y-118455000D02*
X161998000Y-118455000D01*
X161698000Y-118755000D01*
X160898000Y-118755000D01*
X160598000Y-118455000D01*
X160598000Y-118455000D01*
G37*
G36*
X160898000Y-118755000D02*
X161698000Y-118755000D01*
X161398000Y-118855000D01*
X161198000Y-118855000D01*
X160898000Y-118755000D01*
X160898000Y-118755000D01*
G37*
D16*
X161298000Y-116865000D03*
D17*
X153758000Y-114955000D03*
D18*
X153758000Y-117495000D03*
X153758000Y-120035000D03*
D17*
X158098000Y-114965000D03*
D18*
X158098000Y-117505000D03*
X158098000Y-120045000D03*
D17*
X147018000Y-79435000D03*
D18*
X149558000Y-79435000D03*
X152098000Y-79435000D03*
D17*
X163848000Y-116685000D03*
D18*
X166388000Y-116685000D03*
X168928000Y-116685000D03*
X171468000Y-116685000D03*
D19*
X130598000Y-121790000D03*
X162598000Y-94390000D03*
X138473000Y-98415000D03*
X124023000Y-98490000D03*
D20*
X167073000Y-93390000D03*
X170823000Y-89115000D03*
X126998000Y-100015000D03*
X170748000Y-85365000D03*
D21*
X142398000Y-108740000D03*
X142398000Y-113465000D03*
D20*
X145273000Y-101790000D03*
X170848000Y-81590000D03*
X159773000Y-90165000D03*
X130098000Y-102090000D03*
X145173000Y-98115000D03*
D22*
X161298000Y-114925000D02*
X160478000Y-114925000D01*
X160478000Y-114925000D02*
X160058000Y-115345000D01*
X161298000Y-115125000D02*
X161298000Y-114925000D01*
X161298000Y-115475000D02*
X161298000Y-115125000D01*
X161298000Y-115475000D02*
X161008000Y-115475000D01*
X160030499Y-116452501D02*
X159548000Y-116935000D01*
X161008000Y-115475000D02*
X160878000Y-115345000D01*
X160878000Y-115345000D02*
X160058000Y-115345000D01*
X160058000Y-115345000D02*
X160030499Y-115372501D01*
X160030499Y-115372501D02*
X160030499Y-116452501D01*
X159548000Y-116935000D02*
X158668000Y-116935000D01*
X158668000Y-116935000D02*
X158098000Y-117505000D01*
D23*
X171958000Y-123825000D02*
X171958000Y-122504200D01*
X166423000Y-116720000D02*
X166388000Y-116685000D01*
X171958000Y-122504200D02*
X166423000Y-116969200D01*
X166423000Y-116969200D02*
X166423000Y-116720000D01*
X174498000Y-123825000D02*
X168898000Y-118225000D01*
X168898000Y-118225000D02*
X168898000Y-116715000D01*
X168898000Y-116715000D02*
X168928000Y-116685000D01*
X167073000Y-93107158D02*
X167073000Y-93390000D01*
X167073000Y-92865000D02*
X167073000Y-93107158D01*
X170823000Y-89115000D02*
X167073000Y-92865000D01*
X170748000Y-85365000D02*
X166523000Y-85365000D01*
X166523000Y-85365000D02*
X160548000Y-91340000D01*
X160548000Y-91340000D02*
X159473000Y-91340000D01*
X159473000Y-91340000D02*
X157298000Y-93515000D01*
X157298000Y-93515000D02*
X153598000Y-93515000D01*
X153598000Y-93515000D02*
X145873000Y-101240000D01*
X145873000Y-102190000D02*
X145323000Y-102740000D01*
X127197999Y-100214999D02*
X126998000Y-100015000D01*
X145873000Y-101240000D02*
X145873000Y-102190000D01*
X145323000Y-102740000D02*
X129723000Y-102740000D01*
X129723000Y-102740000D02*
X127197999Y-100214999D01*
D24*
X142398000Y-113465000D02*
X142398000Y-108740000D01*
D23*
X170848000Y-81590000D02*
X169584090Y-81590000D01*
X169584090Y-81590000D02*
X160384090Y-90790000D01*
X160384090Y-90790000D02*
X159223000Y-90790000D01*
X159223000Y-90790000D02*
X157048000Y-92965000D01*
X145273000Y-101507158D02*
X145273000Y-101790000D01*
X157048000Y-92965000D02*
X153023000Y-92965000D01*
X153023000Y-92965000D02*
X145273000Y-100715000D01*
X145273000Y-100715000D02*
X145273000Y-101507158D01*
D25*
X171098000Y-99865000D02*
X169427999Y-101535001D01*
X169427999Y-101535001D02*
X154518001Y-101535001D01*
X154518001Y-101535001D02*
X153297999Y-100314999D01*
X153297999Y-100314999D02*
X151798000Y-98815000D01*
X174748000Y-99865000D02*
X171098000Y-99865000D01*
X151748000Y-110865000D02*
X154518001Y-108094999D01*
X154518001Y-108094999D02*
X169802999Y-108094999D01*
X169802999Y-108094999D02*
X171573000Y-109865000D01*
X171573000Y-109865000D02*
X174748000Y-109865000D01*
X165948000Y-104865000D02*
X174748000Y-104865000D01*
D22*
X161298000Y-118605000D02*
X161298000Y-119440000D01*
X161298000Y-119440000D02*
X159598000Y-121140000D01*
X159598000Y-121140000D02*
X159598000Y-123050584D01*
X159598000Y-123050584D02*
X157258584Y-125390000D01*
X157258584Y-125390000D02*
X147970600Y-125390000D01*
X147970600Y-125390000D02*
X146558000Y-123977400D01*
X146558000Y-123977400D02*
X146558000Y-123825000D01*
X161298000Y-118605000D02*
X161298000Y-118805000D01*
X161298000Y-118255000D02*
X161298000Y-118605000D01*
D23*
X164338000Y-77025000D02*
X163998000Y-77365000D01*
X163998000Y-77365000D02*
X163998000Y-78365000D01*
X164338000Y-75565000D02*
X164338000Y-77025000D01*
X166998000Y-78365000D02*
X166898000Y-78265000D01*
X166898000Y-75585000D02*
X166878000Y-75565000D01*
X166898000Y-78265000D02*
X166898000Y-75585000D01*
X169998000Y-77465800D02*
X169998000Y-78365000D01*
X169418000Y-75565000D02*
X169418000Y-76885800D01*
X169418000Y-76885800D02*
X169998000Y-77465800D01*
X160198000Y-90165000D02*
X160055842Y-90165000D01*
X169998000Y-80365000D02*
X160198000Y-90165000D01*
X160055842Y-90165000D02*
X159773000Y-90165000D01*
X169998000Y-80365000D02*
X170498000Y-79865000D01*
X169498000Y-79865000D02*
X169998000Y-80365000D01*
X166998000Y-80365000D02*
X166998000Y-82090000D01*
X156627810Y-92460190D02*
X152813900Y-92460190D01*
X166998000Y-82090000D02*
X156627810Y-92460190D01*
X152813900Y-92460190D02*
X144648000Y-100626090D01*
X130380842Y-102090000D02*
X130098000Y-102090000D01*
X144648000Y-100626090D02*
X144648000Y-101715000D01*
X144648000Y-101715000D02*
X144148000Y-102215000D01*
X144148000Y-102215000D02*
X130505842Y-102215000D01*
X130505842Y-102215000D02*
X130380842Y-102090000D01*
X166998000Y-80365000D02*
X167498000Y-79865000D01*
X166498000Y-79865000D02*
X166998000Y-80365000D01*
X145173000Y-98115000D02*
X146373000Y-98115000D01*
X146373000Y-98115000D02*
X152598000Y-91890000D01*
X152598000Y-91890000D02*
X156373000Y-91890000D01*
X156373000Y-91890000D02*
X163998000Y-84265000D01*
X163998000Y-84265000D02*
X163998000Y-80365000D01*
X163998000Y-80365000D02*
X163498000Y-79865000D01*
X164498000Y-79865000D02*
X163998000Y-80365000D01*
D25*
X139148000Y-93415000D02*
X136427999Y-90694999D01*
X136427999Y-90694999D02*
X121368001Y-90694999D01*
X121368001Y-90694999D02*
X120023000Y-92040000D01*
X120023000Y-92040000D02*
X115823000Y-92040000D01*
X115823000Y-92040000D02*
X115748000Y-92115000D01*
X115748000Y-82115000D02*
X118948000Y-82115000D01*
X118948000Y-82115000D02*
X120968001Y-84135001D01*
X120968001Y-84135001D02*
X136427999Y-84135001D01*
X136427999Y-84135001D02*
X137698001Y-82864999D01*
X137698001Y-82864999D02*
X139198000Y-81365000D01*
X115748000Y-87115000D02*
X115923000Y-87290000D01*
X115923000Y-87290000D02*
X124923000Y-87290000D01*
X124923000Y-87290000D02*
X124998000Y-87365000D01*
X115748000Y-117115000D02*
X119073000Y-117115000D01*
X119073000Y-117115000D02*
X120493001Y-115694999D01*
X120493001Y-115694999D02*
X136427999Y-115694999D01*
X136427999Y-115694999D02*
X137648001Y-116915001D01*
X137648001Y-116915001D02*
X139148000Y-118415000D01*
X115748000Y-107115000D02*
X118798000Y-107115000D01*
X137698001Y-107864999D02*
X139198000Y-106365000D01*
X118798000Y-107115000D02*
X120818001Y-109135001D01*
X120818001Y-109135001D02*
X136427999Y-109135001D01*
X136427999Y-109135001D02*
X137698001Y-107864999D01*
X124998000Y-112365000D02*
X115998000Y-112365000D01*
X115998000Y-112365000D02*
X115748000Y-112115000D01*
D22*
X161298000Y-116865000D02*
X163668000Y-116865000D01*
X163668000Y-116865000D02*
X163848000Y-116685000D01*
D26*
G36*
X124154577Y-74170270D02*
X123779427Y-75073729D01*
X123778574Y-76051980D01*
X124152145Y-76956092D01*
X124843270Y-77648423D01*
X125746729Y-78023573D01*
X126724980Y-78024426D01*
X127629092Y-77650855D01*
X128321423Y-76959730D01*
X128613250Y-76256935D01*
X128881408Y-76658262D01*
X129300109Y-76938029D01*
X129794000Y-77036270D01*
X130287891Y-76938029D01*
X130706592Y-76658262D01*
X130986359Y-76239561D01*
X131064000Y-75849233D01*
X131141641Y-76239561D01*
X131421408Y-76658262D01*
X131840109Y-76938029D01*
X132334000Y-77036270D01*
X132827891Y-76938029D01*
X133246592Y-76658262D01*
X133526359Y-76239561D01*
X133604000Y-75849233D01*
X133681641Y-76239561D01*
X133961408Y-76658262D01*
X134380109Y-76938029D01*
X134874000Y-77036270D01*
X135367891Y-76938029D01*
X135786592Y-76658262D01*
X136047862Y-76267243D01*
X136122046Y-76479320D01*
X136511964Y-76915732D01*
X137039209Y-77169709D01*
X137054974Y-77172358D01*
X137287000Y-77051217D01*
X137287000Y-75692000D01*
X137267000Y-75692000D01*
X137267000Y-75438000D01*
X137287000Y-75438000D01*
X137287000Y-74078783D01*
X137541000Y-74078783D01*
X137541000Y-75438000D01*
X137561000Y-75438000D01*
X137561000Y-75692000D01*
X137541000Y-75692000D01*
X137541000Y-77051217D01*
X137773026Y-77172358D01*
X137788791Y-77169709D01*
X138316036Y-76915732D01*
X138705954Y-76479320D01*
X138780138Y-76267243D01*
X139041408Y-76658262D01*
X139460109Y-76938029D01*
X139954000Y-77036270D01*
X140447891Y-76938029D01*
X140866592Y-76658262D01*
X141146359Y-76239561D01*
X141224000Y-75849233D01*
X141301641Y-76239561D01*
X141581408Y-76658262D01*
X142000109Y-76938029D01*
X142494000Y-77036270D01*
X142987891Y-76938029D01*
X143406592Y-76658262D01*
X143686359Y-76239561D01*
X143764000Y-75849233D01*
X143841641Y-76239561D01*
X144121408Y-76658262D01*
X144540109Y-76938029D01*
X145034000Y-77036270D01*
X145527891Y-76938029D01*
X145946592Y-76658262D01*
X146226359Y-76239561D01*
X146304000Y-75849233D01*
X146381641Y-76239561D01*
X146661408Y-76658262D01*
X147080109Y-76938029D01*
X147574000Y-77036270D01*
X148067891Y-76938029D01*
X148486592Y-76658262D01*
X148766359Y-76239561D01*
X148844000Y-75849233D01*
X148921641Y-76239561D01*
X149201408Y-76658262D01*
X149620109Y-76938029D01*
X150114000Y-77036270D01*
X150607891Y-76938029D01*
X151026592Y-76658262D01*
X151306359Y-76239561D01*
X151384000Y-75849233D01*
X151461641Y-76239561D01*
X151741408Y-76658262D01*
X152160109Y-76938029D01*
X152654000Y-77036270D01*
X153147891Y-76938029D01*
X153566592Y-76658262D01*
X153846359Y-76239561D01*
X153944600Y-75745670D01*
X153944600Y-75384330D01*
X153846359Y-74890439D01*
X153566592Y-74471738D01*
X153147891Y-74191971D01*
X152654000Y-74093730D01*
X152160109Y-74191971D01*
X151741408Y-74471738D01*
X151461641Y-74890439D01*
X151384000Y-75280767D01*
X151306359Y-74890439D01*
X151026592Y-74471738D01*
X150607891Y-74191971D01*
X150114000Y-74093730D01*
X149620109Y-74191971D01*
X149201408Y-74471738D01*
X148921641Y-74890439D01*
X148844000Y-75280767D01*
X148766359Y-74890439D01*
X148486592Y-74471738D01*
X148067891Y-74191971D01*
X147574000Y-74093730D01*
X147080109Y-74191971D01*
X146661408Y-74471738D01*
X146381641Y-74890439D01*
X146304000Y-75280767D01*
X146226359Y-74890439D01*
X145946592Y-74471738D01*
X145527891Y-74191971D01*
X145034000Y-74093730D01*
X144540109Y-74191971D01*
X144121408Y-74471738D01*
X143841641Y-74890439D01*
X143764000Y-75280767D01*
X143686359Y-74890439D01*
X143406592Y-74471738D01*
X142987891Y-74191971D01*
X142494000Y-74093730D01*
X142000109Y-74191971D01*
X141581408Y-74471738D01*
X141301641Y-74890439D01*
X141224000Y-75280767D01*
X141146359Y-74890439D01*
X140866592Y-74471738D01*
X140447891Y-74191971D01*
X139954000Y-74093730D01*
X139460109Y-74191971D01*
X139041408Y-74471738D01*
X138780138Y-74862757D01*
X138705954Y-74650680D01*
X138316036Y-74214268D01*
X137788791Y-73960291D01*
X137773026Y-73957642D01*
X137541000Y-74078783D01*
X137287000Y-74078783D01*
X137054974Y-73957642D01*
X137039209Y-73960291D01*
X136511964Y-74214268D01*
X136122046Y-74650680D01*
X136047862Y-74862757D01*
X135786592Y-74471738D01*
X135367891Y-74191971D01*
X134874000Y-74093730D01*
X134380109Y-74191971D01*
X133961408Y-74471738D01*
X133681641Y-74890439D01*
X133604000Y-75280767D01*
X133526359Y-74890439D01*
X133246592Y-74471738D01*
X132827891Y-74191971D01*
X132334000Y-74093730D01*
X131840109Y-74191971D01*
X131421408Y-74471738D01*
X131141641Y-74890439D01*
X131064000Y-75280767D01*
X130986359Y-74890439D01*
X130706592Y-74471738D01*
X130287891Y-74191971D01*
X129794000Y-74093730D01*
X129300109Y-74191971D01*
X128881408Y-74471738D01*
X128612935Y-74873536D01*
X128323855Y-74173908D01*
X127678074Y-73527000D01*
X175306064Y-73527000D01*
X176536000Y-74756935D01*
X176536000Y-85978995D01*
X176535999Y-85979000D01*
X176574212Y-86171107D01*
X176683032Y-86333968D01*
X179076000Y-88726935D01*
X179076000Y-89365969D01*
X178432730Y-88721577D01*
X177529271Y-88346427D01*
X176551020Y-88345574D01*
X175646908Y-88719145D01*
X174954577Y-89410270D01*
X174579427Y-90313729D01*
X174578574Y-91291980D01*
X174952145Y-92196092D01*
X175643270Y-92888423D01*
X176546729Y-93263573D01*
X177524980Y-93264426D01*
X178429092Y-92890855D01*
X179076000Y-92245074D01*
X179076000Y-117305969D01*
X178432730Y-116661577D01*
X177529271Y-116286427D01*
X176551020Y-116285574D01*
X175646908Y-116659145D01*
X174954577Y-117350270D01*
X174579427Y-118253729D01*
X174578574Y-119231980D01*
X174952145Y-120136092D01*
X175643270Y-120828423D01*
X176546729Y-121203573D01*
X177524980Y-121204426D01*
X178429092Y-120830855D01*
X179076000Y-120185074D01*
X179076000Y-121077065D01*
X176683032Y-123470032D01*
X176574212Y-123632893D01*
X176535999Y-123825000D01*
X176536000Y-123825005D01*
X176536000Y-125863000D01*
X157838466Y-125863000D01*
X160124441Y-123577025D01*
X160200572Y-123463087D01*
X160285828Y-123335492D01*
X160342500Y-123050584D01*
X160342500Y-121448382D01*
X161824441Y-119966441D01*
X161985828Y-119724908D01*
X162042500Y-119440000D01*
X162042500Y-119026200D01*
X162305850Y-118762850D01*
X162309453Y-118757655D01*
X162314055Y-118754420D01*
X162335584Y-118719972D01*
X162394232Y-118635397D01*
X162397638Y-118620678D01*
X162405645Y-118607867D01*
X162555645Y-118207867D01*
X162583199Y-118067028D01*
X162553591Y-117896763D01*
X162460073Y-117751433D01*
X162456263Y-117748830D01*
X162483365Y-117615000D01*
X162483365Y-117609500D01*
X162576653Y-117609500D01*
X162592409Y-117693237D01*
X162685927Y-117838567D01*
X162828619Y-117936064D01*
X162998000Y-117970365D01*
X164698000Y-117970365D01*
X164856237Y-117940591D01*
X165001567Y-117847073D01*
X165099064Y-117704381D01*
X165133365Y-117535000D01*
X165133365Y-116822454D01*
X165208206Y-117198705D01*
X165485025Y-117612993D01*
X165899313Y-117889812D01*
X166388000Y-117987018D01*
X166582695Y-117948291D01*
X171237674Y-122603270D01*
X171045408Y-122731738D01*
X170765641Y-123150439D01*
X170688000Y-123540767D01*
X170610359Y-123150439D01*
X170330592Y-122731738D01*
X169911891Y-122451971D01*
X169418000Y-122353730D01*
X168924109Y-122451971D01*
X168505408Y-122731738D01*
X168225641Y-123150439D01*
X168148000Y-123540767D01*
X168070359Y-123150439D01*
X167790592Y-122731738D01*
X167371891Y-122451971D01*
X166878000Y-122353730D01*
X166384109Y-122451971D01*
X165965408Y-122731738D01*
X165685641Y-123150439D01*
X165608000Y-123540767D01*
X165530359Y-123150439D01*
X165250592Y-122731738D01*
X164831891Y-122451971D01*
X164338000Y-122353730D01*
X163844109Y-122451971D01*
X163425408Y-122731738D01*
X163145641Y-123150439D01*
X163068000Y-123540767D01*
X162990359Y-123150439D01*
X162710592Y-122731738D01*
X162291891Y-122451971D01*
X161798000Y-122353730D01*
X161304109Y-122451971D01*
X160885408Y-122731738D01*
X160605641Y-123150439D01*
X160507400Y-123644330D01*
X160507400Y-124005670D01*
X160605641Y-124499561D01*
X160885408Y-124918262D01*
X161304109Y-125198029D01*
X161798000Y-125296270D01*
X162291891Y-125198029D01*
X162710592Y-124918262D01*
X162990359Y-124499561D01*
X163068000Y-124109233D01*
X163145641Y-124499561D01*
X163425408Y-124918262D01*
X163844109Y-125198029D01*
X164338000Y-125296270D01*
X164831891Y-125198029D01*
X165250592Y-124918262D01*
X165530359Y-124499561D01*
X165608000Y-124109233D01*
X165685641Y-124499561D01*
X165965408Y-124918262D01*
X166384109Y-125198029D01*
X166878000Y-125296270D01*
X167371891Y-125198029D01*
X167790592Y-124918262D01*
X168070359Y-124499561D01*
X168148000Y-124109233D01*
X168225641Y-124499561D01*
X168505408Y-124918262D01*
X168924109Y-125198029D01*
X169418000Y-125296270D01*
X169911891Y-125198029D01*
X170330592Y-124918262D01*
X170610359Y-124499561D01*
X170688000Y-124109233D01*
X170765641Y-124499561D01*
X171045408Y-124918262D01*
X171464109Y-125198029D01*
X171958000Y-125296270D01*
X172451891Y-125198029D01*
X172870592Y-124918262D01*
X173150359Y-124499561D01*
X173228000Y-124109233D01*
X173305641Y-124499561D01*
X173585408Y-124918262D01*
X174004109Y-125198029D01*
X174498000Y-125296270D01*
X174991891Y-125198029D01*
X175410592Y-124918262D01*
X175690359Y-124499561D01*
X175788600Y-124005670D01*
X175788600Y-123644330D01*
X175690359Y-123150439D01*
X175410592Y-122731738D01*
X174991891Y-122451971D01*
X174498000Y-122353730D01*
X174004109Y-122451971D01*
X173968296Y-122475900D01*
X169477400Y-117985004D01*
X169477400Y-117849245D01*
X169830975Y-117612993D01*
X170103309Y-117205417D01*
X170272817Y-117566358D01*
X170701076Y-117956645D01*
X171111110Y-118126476D01*
X171341000Y-118005155D01*
X171341000Y-116812000D01*
X171595000Y-116812000D01*
X171595000Y-118005155D01*
X171824890Y-118126476D01*
X172234924Y-117956645D01*
X172663183Y-117566358D01*
X172909486Y-117041892D01*
X172788819Y-116812000D01*
X171595000Y-116812000D01*
X171341000Y-116812000D01*
X171321000Y-116812000D01*
X171321000Y-116558000D01*
X171341000Y-116558000D01*
X171341000Y-115364845D01*
X171595000Y-115364845D01*
X171595000Y-116558000D01*
X172788819Y-116558000D01*
X172909486Y-116328108D01*
X172663183Y-115803642D01*
X172234924Y-115413355D01*
X171824890Y-115243524D01*
X171595000Y-115364845D01*
X171341000Y-115364845D01*
X171111110Y-115243524D01*
X170701076Y-115413355D01*
X170272817Y-115803642D01*
X170103309Y-116164583D01*
X169830975Y-115757007D01*
X169416687Y-115480188D01*
X168928000Y-115382982D01*
X168439313Y-115480188D01*
X168025025Y-115757007D01*
X167748206Y-116171295D01*
X167658000Y-116624791D01*
X167567794Y-116171295D01*
X167290975Y-115757007D01*
X166876687Y-115480188D01*
X166388000Y-115382982D01*
X165899313Y-115480188D01*
X165485025Y-115757007D01*
X165208206Y-116171295D01*
X165133365Y-116547546D01*
X165133365Y-115835000D01*
X165103591Y-115676763D01*
X165010073Y-115531433D01*
X164867381Y-115433936D01*
X164698000Y-115399635D01*
X162998000Y-115399635D01*
X162839763Y-115429409D01*
X162694433Y-115522927D01*
X162596936Y-115665619D01*
X162562635Y-115835000D01*
X162562635Y-116120500D01*
X162483365Y-116120500D01*
X162483365Y-116115000D01*
X162456938Y-115974553D01*
X162541815Y-115860613D01*
X162583002Y-115692774D01*
X162555645Y-115522133D01*
X162405645Y-115122133D01*
X162402493Y-115117162D01*
X162401366Y-115111175D01*
X162340304Y-115019102D01*
X162310073Y-114971433D01*
X162307545Y-114969706D01*
X162305850Y-114967150D01*
X162005850Y-114667150D01*
X161993884Y-114659095D01*
X161988091Y-114651468D01*
X161985828Y-114640092D01*
X161824441Y-114398559D01*
X161582908Y-114237172D01*
X161298000Y-114180500D01*
X160478000Y-114180500D01*
X160193092Y-114237172D01*
X159978586Y-114380500D01*
X159951559Y-114398559D01*
X159504058Y-114846060D01*
X159383365Y-115026690D01*
X159383365Y-114115000D01*
X159353591Y-113956763D01*
X159260073Y-113811433D01*
X159117381Y-113713936D01*
X158948000Y-113679635D01*
X157248000Y-113679635D01*
X157089763Y-113709409D01*
X156944433Y-113802927D01*
X156846936Y-113945619D01*
X156812635Y-114115000D01*
X156812635Y-115815000D01*
X156842409Y-115973237D01*
X156935927Y-116118567D01*
X157078619Y-116216064D01*
X157248000Y-116250365D01*
X157960546Y-116250365D01*
X157584295Y-116325206D01*
X157170007Y-116602025D01*
X156893188Y-117016313D01*
X156795982Y-117505000D01*
X156893188Y-117993687D01*
X157170007Y-118407975D01*
X157577583Y-118680309D01*
X157216642Y-118849817D01*
X156826355Y-119278076D01*
X156656524Y-119688110D01*
X156777845Y-119918000D01*
X157971000Y-119918000D01*
X157971000Y-119898000D01*
X158225000Y-119898000D01*
X158225000Y-119918000D01*
X159418155Y-119918000D01*
X159539476Y-119688110D01*
X159369645Y-119278076D01*
X158979358Y-118849817D01*
X158618417Y-118680309D01*
X159025993Y-118407975D01*
X159302812Y-117993687D01*
X159365308Y-117679500D01*
X159548000Y-117679500D01*
X159832908Y-117622828D01*
X160074441Y-117461441D01*
X160112635Y-117423247D01*
X160112635Y-117615000D01*
X160139062Y-117755447D01*
X160054185Y-117869387D01*
X160012998Y-118037226D01*
X160040355Y-118207867D01*
X160190355Y-118607867D01*
X160193507Y-118612838D01*
X160194634Y-118618825D01*
X160255696Y-118710898D01*
X160285927Y-118758567D01*
X160288455Y-118760294D01*
X160290150Y-118762850D01*
X160553500Y-119026200D01*
X160553500Y-119131618D01*
X159450959Y-120234159D01*
X159418155Y-120172000D01*
X158225000Y-120172000D01*
X158225000Y-121365819D01*
X158454892Y-121486486D01*
X158853500Y-121299289D01*
X158853500Y-122742202D01*
X157999105Y-123596597D01*
X157910359Y-123150439D01*
X157630592Y-122731738D01*
X157211891Y-122451971D01*
X156718000Y-122353730D01*
X156224109Y-122451971D01*
X155805408Y-122731738D01*
X155544138Y-123122757D01*
X155469954Y-122910680D01*
X155080036Y-122474268D01*
X154552791Y-122220291D01*
X154537026Y-122217642D01*
X154305000Y-122338783D01*
X154305000Y-123698000D01*
X154325000Y-123698000D01*
X154325000Y-123952000D01*
X154305000Y-123952000D01*
X154305000Y-123972000D01*
X154051000Y-123972000D01*
X154051000Y-123952000D01*
X151765000Y-123952000D01*
X151765000Y-123972000D01*
X151511000Y-123972000D01*
X151511000Y-123952000D01*
X151491000Y-123952000D01*
X151491000Y-123698000D01*
X151511000Y-123698000D01*
X151511000Y-122338783D01*
X151765000Y-122338783D01*
X151765000Y-123698000D01*
X154051000Y-123698000D01*
X154051000Y-122338783D01*
X153818974Y-122217642D01*
X153803209Y-122220291D01*
X153275964Y-122474268D01*
X152908000Y-122886108D01*
X152540036Y-122474268D01*
X152012791Y-122220291D01*
X151997026Y-122217642D01*
X151765000Y-122338783D01*
X151511000Y-122338783D01*
X151278974Y-122217642D01*
X151263209Y-122220291D01*
X150735964Y-122474268D01*
X150346046Y-122910680D01*
X150271862Y-123122757D01*
X150010592Y-122731738D01*
X149591891Y-122451971D01*
X149098000Y-122353730D01*
X148604109Y-122451971D01*
X148185408Y-122731738D01*
X147905641Y-123150439D01*
X147828000Y-123540767D01*
X147750359Y-123150439D01*
X147470592Y-122731738D01*
X147051891Y-122451971D01*
X146558000Y-122353730D01*
X146064109Y-122451971D01*
X145645408Y-122731738D01*
X145365641Y-123150439D01*
X145288000Y-123540767D01*
X145210359Y-123150439D01*
X144930592Y-122731738D01*
X144511891Y-122451971D01*
X144018000Y-122353730D01*
X143524109Y-122451971D01*
X143105408Y-122731738D01*
X142825641Y-123150439D01*
X142748000Y-123540767D01*
X142670359Y-123150439D01*
X142390592Y-122731738D01*
X141971891Y-122451971D01*
X141478000Y-122353730D01*
X140984109Y-122451971D01*
X140565408Y-122731738D01*
X140285641Y-123150439D01*
X140208000Y-123540767D01*
X140130359Y-123150439D01*
X139850592Y-122731738D01*
X139431891Y-122451971D01*
X138938000Y-122353730D01*
X138444109Y-122451971D01*
X138025408Y-122731738D01*
X137745641Y-123150439D01*
X137647400Y-123644330D01*
X137647400Y-124005670D01*
X137745641Y-124499561D01*
X138025408Y-124918262D01*
X138444109Y-125198029D01*
X138938000Y-125296270D01*
X139431891Y-125198029D01*
X139850592Y-124918262D01*
X140130359Y-124499561D01*
X140208000Y-124109233D01*
X140285641Y-124499561D01*
X140565408Y-124918262D01*
X140984109Y-125198029D01*
X141478000Y-125296270D01*
X141971891Y-125198029D01*
X142390592Y-124918262D01*
X142670359Y-124499561D01*
X142748000Y-124109233D01*
X142825641Y-124499561D01*
X143105408Y-124918262D01*
X143524109Y-125198029D01*
X144018000Y-125296270D01*
X144511891Y-125198029D01*
X144930592Y-124918262D01*
X145210359Y-124499561D01*
X145288000Y-124109233D01*
X145365641Y-124499561D01*
X145645408Y-124918262D01*
X146064109Y-125198029D01*
X146558000Y-125296270D01*
X146779858Y-125252140D01*
X147390718Y-125863000D01*
X126407031Y-125863000D01*
X127051423Y-125219730D01*
X127426573Y-124316271D01*
X127427426Y-123338020D01*
X127053855Y-122433908D01*
X126362730Y-121741577D01*
X125459271Y-121366427D01*
X124481020Y-121365574D01*
X123576908Y-121739145D01*
X122884577Y-122430270D01*
X122509427Y-123333729D01*
X122508574Y-124311980D01*
X122882145Y-125216092D01*
X123527926Y-125863000D01*
X111500000Y-125863000D01*
X111500000Y-120391890D01*
X152316524Y-120391890D01*
X152486355Y-120801924D01*
X152876642Y-121230183D01*
X153401108Y-121476486D01*
X153631000Y-121355819D01*
X153631000Y-120162000D01*
X153885000Y-120162000D01*
X153885000Y-121355819D01*
X154114892Y-121476486D01*
X154639358Y-121230183D01*
X155029645Y-120801924D01*
X155195334Y-120401890D01*
X156656524Y-120401890D01*
X156826355Y-120811924D01*
X157216642Y-121240183D01*
X157741108Y-121486486D01*
X157971000Y-121365819D01*
X157971000Y-120172000D01*
X156777845Y-120172000D01*
X156656524Y-120401890D01*
X155195334Y-120401890D01*
X155199476Y-120391890D01*
X155078155Y-120162000D01*
X153885000Y-120162000D01*
X153631000Y-120162000D01*
X152437845Y-120162000D01*
X152316524Y-120391890D01*
X111500000Y-120391890D01*
X111500000Y-107115000D01*
X114051000Y-107115000D01*
X114062635Y-107173493D01*
X114062635Y-108365000D01*
X114092409Y-108523237D01*
X114185927Y-108668567D01*
X114328619Y-108766064D01*
X114498000Y-108800365D01*
X115689507Y-108800365D01*
X115748000Y-108812000D01*
X118095080Y-108812000D01*
X119618041Y-110334961D01*
X120116468Y-110668000D01*
X116636237Y-110668000D01*
X116483030Y-110604383D01*
X116397414Y-110547176D01*
X116297305Y-110527263D01*
X116083039Y-110438292D01*
X115848989Y-110438088D01*
X115748000Y-110418000D01*
X115647893Y-110437912D01*
X115415888Y-110437710D01*
X115199577Y-110527088D01*
X115098586Y-110547176D01*
X115013718Y-110603883D01*
X114799297Y-110692480D01*
X114633654Y-110857835D01*
X114548040Y-110915040D01*
X114491334Y-110999906D01*
X114327138Y-111163816D01*
X114237383Y-111379970D01*
X114180176Y-111465586D01*
X114160263Y-111565695D01*
X114071292Y-111779961D01*
X114071088Y-112014011D01*
X114051000Y-112115000D01*
X114070912Y-112215107D01*
X114070710Y-112447112D01*
X114160088Y-112663423D01*
X114180176Y-112764414D01*
X114236883Y-112849282D01*
X114325480Y-113063703D01*
X114490835Y-113229346D01*
X114548040Y-113314960D01*
X114798040Y-113564960D01*
X115348586Y-113932824D01*
X115998000Y-114062000D01*
X120171245Y-114062000D01*
X119843587Y-114127175D01*
X119293041Y-114495039D01*
X118370080Y-115418000D01*
X115748000Y-115418000D01*
X115647893Y-115437912D01*
X115415888Y-115437710D01*
X115199577Y-115527088D01*
X115098586Y-115547176D01*
X115013718Y-115603883D01*
X114799297Y-115692480D01*
X114633654Y-115857835D01*
X114548040Y-115915040D01*
X114491334Y-115999906D01*
X114327138Y-116163816D01*
X114237383Y-116379970D01*
X114180176Y-116465586D01*
X114160263Y-116565695D01*
X114071292Y-116779961D01*
X114071088Y-117014011D01*
X114051000Y-117115000D01*
X114070912Y-117215107D01*
X114070710Y-117447112D01*
X114160088Y-117663423D01*
X114180176Y-117764414D01*
X114236883Y-117849282D01*
X114325480Y-118063703D01*
X114490835Y-118229346D01*
X114548040Y-118314960D01*
X114632906Y-118371666D01*
X114796816Y-118535862D01*
X115012970Y-118625617D01*
X115098586Y-118682824D01*
X115198695Y-118702737D01*
X115412961Y-118791708D01*
X115647011Y-118791912D01*
X115748000Y-118812000D01*
X119073000Y-118812000D01*
X119722414Y-118682824D01*
X120272960Y-118314960D01*
X121195921Y-117391999D01*
X125599080Y-117391999D01*
X125527138Y-117463816D01*
X125271292Y-118079961D01*
X125270710Y-118747112D01*
X125525480Y-119363703D01*
X125996816Y-119835862D01*
X126612961Y-120091708D01*
X127280112Y-120092290D01*
X127896703Y-119837520D01*
X128368862Y-119366184D01*
X128624708Y-118750039D01*
X128625290Y-118082888D01*
X128370520Y-117466297D01*
X128296352Y-117391999D01*
X135725079Y-117391999D01*
X137284717Y-118951637D01*
X137513416Y-119505132D01*
X138055017Y-120047678D01*
X138763014Y-120341665D01*
X139529622Y-120342334D01*
X140238132Y-120049584D01*
X140610254Y-119678110D01*
X152316524Y-119678110D01*
X152437845Y-119908000D01*
X153631000Y-119908000D01*
X153631000Y-119888000D01*
X153885000Y-119888000D01*
X153885000Y-119908000D01*
X155078155Y-119908000D01*
X155199476Y-119678110D01*
X155029645Y-119268076D01*
X154639358Y-118839817D01*
X154278417Y-118670309D01*
X154685993Y-118397975D01*
X154962812Y-117983687D01*
X155060018Y-117495000D01*
X154962812Y-117006313D01*
X154685993Y-116592025D01*
X154271705Y-116315206D01*
X153895454Y-116240365D01*
X154608000Y-116240365D01*
X154766237Y-116210591D01*
X154911567Y-116117073D01*
X155009064Y-115974381D01*
X155043365Y-115805000D01*
X155043365Y-114105000D01*
X155013591Y-113946763D01*
X154920073Y-113801433D01*
X154777381Y-113703936D01*
X154608000Y-113669635D01*
X152908000Y-113669635D01*
X152749763Y-113699409D01*
X152604433Y-113792927D01*
X152506936Y-113935619D01*
X152472635Y-114105000D01*
X152472635Y-115805000D01*
X152502409Y-115963237D01*
X152595927Y-116108567D01*
X152738619Y-116206064D01*
X152908000Y-116240365D01*
X153620546Y-116240365D01*
X153244295Y-116315206D01*
X152830007Y-116592025D01*
X152553188Y-117006313D01*
X152455982Y-117495000D01*
X152553188Y-117983687D01*
X152830007Y-118397975D01*
X153237583Y-118670309D01*
X152876642Y-118839817D01*
X152486355Y-119268076D01*
X152316524Y-119678110D01*
X140610254Y-119678110D01*
X140780678Y-119507983D01*
X141074665Y-118799986D01*
X141075334Y-118033378D01*
X140782584Y-117324868D01*
X140240983Y-116782322D01*
X139683934Y-116551014D01*
X137627959Y-114495039D01*
X137077413Y-114127175D01*
X136427999Y-113997999D01*
X126089720Y-113997999D01*
X126630678Y-113457983D01*
X126924665Y-112749986D01*
X126925334Y-111983378D01*
X126632584Y-111274868D01*
X126190488Y-110832001D01*
X136427999Y-110832001D01*
X137077413Y-110702825D01*
X137627959Y-110334961D01*
X139039337Y-108923583D01*
X141470839Y-108923583D01*
X141590000Y-109211974D01*
X141590000Y-112993604D01*
X141471161Y-113279799D01*
X141470839Y-113648583D01*
X141611669Y-113989417D01*
X141872211Y-114250414D01*
X142212799Y-114391839D01*
X142581583Y-114392161D01*
X142922417Y-114251331D01*
X143183414Y-113990789D01*
X143324839Y-113650201D01*
X143325161Y-113281417D01*
X143206000Y-112993026D01*
X143206000Y-109211396D01*
X143324839Y-108925201D01*
X143325161Y-108556417D01*
X143184331Y-108215583D01*
X142923789Y-107954586D01*
X142583201Y-107813161D01*
X142214417Y-107812839D01*
X141873583Y-107953669D01*
X141612586Y-108214211D01*
X141471161Y-108554799D01*
X141470839Y-108923583D01*
X139039337Y-108923583D01*
X139734637Y-108228283D01*
X140288132Y-107999584D01*
X140830678Y-107457983D01*
X141124665Y-106749986D01*
X141125334Y-105983378D01*
X140832584Y-105274868D01*
X140290983Y-104732322D01*
X139582986Y-104438335D01*
X138816378Y-104437666D01*
X138107868Y-104730416D01*
X137565322Y-105272017D01*
X137334014Y-105829066D01*
X135725079Y-107438001D01*
X128296920Y-107438001D01*
X128368862Y-107366184D01*
X128624708Y-106750039D01*
X128625290Y-106082888D01*
X128370520Y-105466297D01*
X127899184Y-104994138D01*
X127283039Y-104738292D01*
X126615888Y-104737710D01*
X125999297Y-104992480D01*
X125527138Y-105463816D01*
X125271292Y-106079961D01*
X125270710Y-106747112D01*
X125525480Y-107363703D01*
X125599648Y-107438001D01*
X121520921Y-107438001D01*
X119997960Y-105915040D01*
X119447414Y-105547176D01*
X118798000Y-105418000D01*
X115748000Y-105418000D01*
X115689507Y-105429635D01*
X114498000Y-105429635D01*
X114339763Y-105459409D01*
X114194433Y-105552927D01*
X114096936Y-105695619D01*
X114062635Y-105865000D01*
X114062635Y-107056507D01*
X114051000Y-107115000D01*
X111500000Y-107115000D01*
X111500000Y-100139171D01*
X126370891Y-100139171D01*
X126466145Y-100369703D01*
X126642369Y-100546235D01*
X126757750Y-100594145D01*
X126788299Y-100624694D01*
X126788301Y-100624697D01*
X129313300Y-103149695D01*
X129313302Y-103149698D01*
X129436958Y-103232322D01*
X129501273Y-103275296D01*
X129723000Y-103319401D01*
X129723005Y-103319400D01*
X145323000Y-103319400D01*
X145544727Y-103275296D01*
X145732698Y-103149698D01*
X146282695Y-102599700D01*
X146282698Y-102599698D01*
X146408296Y-102411727D01*
X146452400Y-102190000D01*
X146452400Y-101479996D01*
X150133327Y-97799069D01*
X149871335Y-98430014D01*
X149870666Y-99196622D01*
X150163416Y-99905132D01*
X150705017Y-100447678D01*
X151262066Y-100678986D01*
X153318041Y-102734961D01*
X153868587Y-103102825D01*
X154518001Y-103232001D01*
X164856280Y-103232001D01*
X164315322Y-103772017D01*
X164021335Y-104480014D01*
X164020666Y-105246622D01*
X164313416Y-105955132D01*
X164755512Y-106397999D01*
X154518001Y-106397999D01*
X153868587Y-106527175D01*
X153318041Y-106895039D01*
X151211363Y-109001717D01*
X150657868Y-109230416D01*
X150115322Y-109772017D01*
X149821335Y-110480014D01*
X149820666Y-111246622D01*
X150113416Y-111955132D01*
X150655017Y-112497678D01*
X151363014Y-112791665D01*
X152129622Y-112792334D01*
X152838132Y-112499584D01*
X153380678Y-111957983D01*
X153611986Y-111400934D01*
X155220921Y-109791999D01*
X162649080Y-109791999D01*
X162577138Y-109863816D01*
X162321292Y-110479961D01*
X162320710Y-111147112D01*
X162575480Y-111763703D01*
X163046816Y-112235862D01*
X163662961Y-112491708D01*
X164330112Y-112492290D01*
X164946703Y-112237520D01*
X165418862Y-111766184D01*
X165674708Y-111150039D01*
X165675290Y-110482888D01*
X165420520Y-109866297D01*
X165346352Y-109791999D01*
X169100079Y-109791999D01*
X170373039Y-111064960D01*
X170701426Y-111284381D01*
X170923586Y-111432824D01*
X171573000Y-111562000D01*
X174748000Y-111562000D01*
X174806493Y-111550365D01*
X175998000Y-111550365D01*
X176156237Y-111520591D01*
X176301567Y-111427073D01*
X176399064Y-111284381D01*
X176433365Y-111115000D01*
X176433365Y-109923493D01*
X176445000Y-109865000D01*
X176433365Y-109806507D01*
X176433365Y-108615000D01*
X176403591Y-108456763D01*
X176310073Y-108311433D01*
X176167381Y-108213936D01*
X175998000Y-108179635D01*
X174806493Y-108179635D01*
X174748000Y-108168000D01*
X172275921Y-108168000D01*
X171002959Y-106895039D01*
X170504532Y-106562000D01*
X174748000Y-106562000D01*
X174848107Y-106542088D01*
X175080112Y-106542290D01*
X175296423Y-106452912D01*
X175397414Y-106432824D01*
X175482282Y-106376117D01*
X175696703Y-106287520D01*
X175862346Y-106122165D01*
X175947960Y-106064960D01*
X176004666Y-105980094D01*
X176168862Y-105816184D01*
X176258617Y-105600030D01*
X176315824Y-105514414D01*
X176335737Y-105414305D01*
X176424708Y-105200039D01*
X176424912Y-104965989D01*
X176445000Y-104865000D01*
X176425088Y-104764893D01*
X176425290Y-104532888D01*
X176335912Y-104316577D01*
X176315824Y-104215586D01*
X176259117Y-104130718D01*
X176170520Y-103916297D01*
X176005165Y-103750654D01*
X175947960Y-103665040D01*
X175863094Y-103608334D01*
X175699184Y-103444138D01*
X175483030Y-103354383D01*
X175397414Y-103297176D01*
X175297305Y-103277263D01*
X175083039Y-103188292D01*
X174848989Y-103188088D01*
X174748000Y-103168000D01*
X169749755Y-103168000D01*
X170077413Y-103102825D01*
X170627959Y-102734961D01*
X171800920Y-101562000D01*
X174748000Y-101562000D01*
X174848107Y-101542088D01*
X175080112Y-101542290D01*
X175296423Y-101452912D01*
X175397414Y-101432824D01*
X175482282Y-101376117D01*
X175696703Y-101287520D01*
X175862346Y-101122165D01*
X175947960Y-101064960D01*
X176004666Y-100980094D01*
X176168862Y-100816184D01*
X176258617Y-100600030D01*
X176315824Y-100514414D01*
X176335737Y-100414305D01*
X176424708Y-100200039D01*
X176424912Y-99965989D01*
X176445000Y-99865000D01*
X176425088Y-99764893D01*
X176425290Y-99532888D01*
X176335912Y-99316577D01*
X176315824Y-99215586D01*
X176259117Y-99130718D01*
X176170520Y-98916297D01*
X176005165Y-98750654D01*
X175947960Y-98665040D01*
X175863094Y-98608334D01*
X175699184Y-98444138D01*
X175483030Y-98354383D01*
X175397414Y-98297176D01*
X175297305Y-98277263D01*
X175083039Y-98188292D01*
X174848989Y-98188088D01*
X174748000Y-98168000D01*
X171098000Y-98168000D01*
X170448586Y-98297176D01*
X169898040Y-98665040D01*
X168725079Y-99838001D01*
X165346920Y-99838001D01*
X165418862Y-99766184D01*
X165674708Y-99150039D01*
X165675290Y-98482888D01*
X165420520Y-97866297D01*
X164949184Y-97394138D01*
X164333039Y-97138292D01*
X163665888Y-97137710D01*
X163049297Y-97392480D01*
X162577138Y-97863816D01*
X162321292Y-98479961D01*
X162320710Y-99147112D01*
X162575480Y-99763703D01*
X162649648Y-99838001D01*
X155220921Y-99838001D01*
X153661283Y-98278363D01*
X153432584Y-97724868D01*
X152890983Y-97182322D01*
X152182986Y-96888335D01*
X151416378Y-96887666D01*
X150783041Y-97149355D01*
X153837996Y-94094400D01*
X157298000Y-94094400D01*
X157519727Y-94050296D01*
X157707698Y-93924698D01*
X158118224Y-93514171D01*
X166445891Y-93514171D01*
X166541145Y-93744703D01*
X166717369Y-93921235D01*
X166947735Y-94016891D01*
X167197171Y-94017109D01*
X167427703Y-93921855D01*
X167604235Y-93745631D01*
X167699891Y-93515265D01*
X167700109Y-93265829D01*
X167652400Y-93150365D01*
X167652400Y-93104996D01*
X171063250Y-89694146D01*
X171177703Y-89646855D01*
X171354235Y-89470631D01*
X171449891Y-89240265D01*
X171450109Y-88990829D01*
X171354855Y-88760297D01*
X171178631Y-88583765D01*
X170948265Y-88488109D01*
X170698829Y-88487891D01*
X170468297Y-88583145D01*
X170291765Y-88759369D01*
X170243855Y-88874749D01*
X166663302Y-92455302D01*
X166537704Y-92643273D01*
X166493600Y-92865000D01*
X166493600Y-93150364D01*
X166446109Y-93264735D01*
X166445891Y-93514171D01*
X158118224Y-93514171D01*
X159712995Y-91919400D01*
X160548000Y-91919400D01*
X160769727Y-91875296D01*
X160957698Y-91749698D01*
X166762996Y-85944400D01*
X170508364Y-85944400D01*
X170622735Y-85991891D01*
X170872171Y-85992109D01*
X171102703Y-85896855D01*
X171279235Y-85720631D01*
X171374891Y-85490265D01*
X171375109Y-85240829D01*
X171279855Y-85010297D01*
X171103631Y-84833765D01*
X170873265Y-84738109D01*
X170623829Y-84737891D01*
X170508365Y-84785600D01*
X167207886Y-84785600D01*
X169824086Y-82169400D01*
X170608364Y-82169400D01*
X170722735Y-82216891D01*
X170972171Y-82217109D01*
X171202703Y-82121855D01*
X171379235Y-81945631D01*
X171474891Y-81715265D01*
X171475109Y-81465829D01*
X171379855Y-81235297D01*
X171309558Y-81164877D01*
X171353327Y-81100819D01*
X171396099Y-81040105D01*
X171396700Y-81037341D01*
X171399064Y-81033881D01*
X171420910Y-80926005D01*
X171432820Y-80871232D01*
X171432426Y-80869135D01*
X171433365Y-80864500D01*
X171433365Y-78865500D01*
X171405814Y-78713086D01*
X171314387Y-78566431D01*
X171173105Y-78466901D01*
X171040417Y-78438048D01*
X171305504Y-78172696D01*
X171393732Y-78045397D01*
X171432699Y-77877028D01*
X171403091Y-77706763D01*
X171309573Y-77561433D01*
X171166881Y-77463936D01*
X170997500Y-77429635D01*
X170570207Y-77429635D01*
X170533296Y-77244073D01*
X170407698Y-77056102D01*
X170138326Y-76786730D01*
X170330592Y-76658262D01*
X170610359Y-76239561D01*
X170688000Y-75849233D01*
X170765641Y-76239561D01*
X171045408Y-76658262D01*
X171464109Y-76938029D01*
X171958000Y-77036270D01*
X172451891Y-76938029D01*
X172870592Y-76658262D01*
X173150359Y-76239561D01*
X173228000Y-75849233D01*
X173305641Y-76239561D01*
X173585408Y-76658262D01*
X174004109Y-76938029D01*
X174498000Y-77036270D01*
X174991891Y-76938029D01*
X175410592Y-76658262D01*
X175690359Y-76239561D01*
X175788600Y-75745670D01*
X175788600Y-75384330D01*
X175690359Y-74890439D01*
X175410592Y-74471738D01*
X174991891Y-74191971D01*
X174498000Y-74093730D01*
X174004109Y-74191971D01*
X173585408Y-74471738D01*
X173305641Y-74890439D01*
X173228000Y-75280767D01*
X173150359Y-74890439D01*
X172870592Y-74471738D01*
X172451891Y-74191971D01*
X171958000Y-74093730D01*
X171464109Y-74191971D01*
X171045408Y-74471738D01*
X170765641Y-74890439D01*
X170688000Y-75280767D01*
X170610359Y-74890439D01*
X170330592Y-74471738D01*
X169911891Y-74191971D01*
X169418000Y-74093730D01*
X168924109Y-74191971D01*
X168505408Y-74471738D01*
X168225641Y-74890439D01*
X168148000Y-75280767D01*
X168070359Y-74890439D01*
X167790592Y-74471738D01*
X167371891Y-74191971D01*
X166878000Y-74093730D01*
X166384109Y-74191971D01*
X165965408Y-74471738D01*
X165685641Y-74890439D01*
X165608000Y-75280767D01*
X165530359Y-74890439D01*
X165250592Y-74471738D01*
X164831891Y-74191971D01*
X164338000Y-74093730D01*
X163844109Y-74191971D01*
X163425408Y-74471738D01*
X163145641Y-74890439D01*
X163068000Y-75280767D01*
X162990359Y-74890439D01*
X162710592Y-74471738D01*
X162291891Y-74191971D01*
X161798000Y-74093730D01*
X161304109Y-74191971D01*
X160885408Y-74471738D01*
X160605641Y-74890439D01*
X160528000Y-75280767D01*
X160450359Y-74890439D01*
X160170592Y-74471738D01*
X159751891Y-74191971D01*
X159258000Y-74093730D01*
X158764109Y-74191971D01*
X158345408Y-74471738D01*
X158065641Y-74890439D01*
X157988000Y-75280767D01*
X157910359Y-74890439D01*
X157630592Y-74471738D01*
X157211891Y-74191971D01*
X156718000Y-74093730D01*
X156224109Y-74191971D01*
X155805408Y-74471738D01*
X155525641Y-74890439D01*
X155427400Y-75384330D01*
X155427400Y-75745670D01*
X155525641Y-76239561D01*
X155805408Y-76658262D01*
X156224109Y-76938029D01*
X156718000Y-77036270D01*
X157211891Y-76938029D01*
X157630592Y-76658262D01*
X157910359Y-76239561D01*
X157988000Y-75849233D01*
X158065641Y-76239561D01*
X158345408Y-76658262D01*
X158764109Y-76938029D01*
X159258000Y-77036270D01*
X159751891Y-76938029D01*
X160170592Y-76658262D01*
X160450359Y-76239561D01*
X160528000Y-75849233D01*
X160605641Y-76239561D01*
X160885408Y-76658262D01*
X161304109Y-76938029D01*
X161798000Y-77036270D01*
X162291891Y-76938029D01*
X162710592Y-76658262D01*
X162990359Y-76239561D01*
X163068000Y-75849233D01*
X163145641Y-76239561D01*
X163425408Y-76658262D01*
X163701119Y-76842486D01*
X163588302Y-76955302D01*
X163462704Y-77143273D01*
X163418600Y-77365000D01*
X163418600Y-77429635D01*
X162998500Y-77429635D01*
X162846086Y-77457186D01*
X162699431Y-77548613D01*
X162599901Y-77689895D01*
X162563180Y-77858768D01*
X162595052Y-78028623D01*
X162690496Y-78172696D01*
X162957047Y-78439514D01*
X162839763Y-78459909D01*
X162694433Y-78553427D01*
X162596936Y-78696119D01*
X162562635Y-78865500D01*
X162562635Y-80864500D01*
X162590186Y-81016914D01*
X162592437Y-81020526D01*
X162592909Y-81023237D01*
X162631985Y-81083962D01*
X162681613Y-81163569D01*
X162684536Y-81165628D01*
X162686427Y-81168567D01*
X162762181Y-81220327D01*
X162822895Y-81263099D01*
X162825659Y-81263700D01*
X162829119Y-81266064D01*
X162936995Y-81287910D01*
X162991768Y-81299820D01*
X162993865Y-81299426D01*
X162998500Y-81300365D01*
X163418600Y-81300365D01*
X163418600Y-84025005D01*
X156133004Y-91310600D01*
X152598000Y-91310600D01*
X152376273Y-91354704D01*
X152188302Y-91480302D01*
X152188300Y-91480305D01*
X146133004Y-97535600D01*
X145412636Y-97535600D01*
X145298265Y-97488109D01*
X145048829Y-97487891D01*
X144818297Y-97583145D01*
X144641765Y-97759369D01*
X144546109Y-97989735D01*
X144545891Y-98239171D01*
X144641145Y-98469703D01*
X144817369Y-98646235D01*
X145047735Y-98741891D01*
X145297171Y-98742109D01*
X145412635Y-98694400D01*
X145760294Y-98694400D01*
X144238302Y-100216392D01*
X144112704Y-100404363D01*
X144068600Y-100626090D01*
X144068600Y-101475004D01*
X143908004Y-101635600D01*
X130723639Y-101635600D01*
X130602569Y-101554704D01*
X130380842Y-101510600D01*
X130337636Y-101510600D01*
X130223265Y-101463109D01*
X129973829Y-101462891D01*
X129743297Y-101558145D01*
X129566765Y-101734369D01*
X129557963Y-101755567D01*
X127607697Y-99805301D01*
X127607694Y-99805299D01*
X127577147Y-99774752D01*
X127529855Y-99660297D01*
X127353631Y-99483765D01*
X127123265Y-99388109D01*
X126873829Y-99387891D01*
X126643297Y-99483145D01*
X126466765Y-99659369D01*
X126371109Y-99889735D01*
X126370891Y-100139171D01*
X111500000Y-100139171D01*
X111500000Y-82115000D01*
X114051000Y-82115000D01*
X114062635Y-82173493D01*
X114062635Y-83365000D01*
X114092409Y-83523237D01*
X114185927Y-83668567D01*
X114328619Y-83766064D01*
X114498000Y-83800365D01*
X115689507Y-83800365D01*
X115748000Y-83812000D01*
X118245080Y-83812000D01*
X119768041Y-85334961D01*
X120154223Y-85593000D01*
X116465994Y-85593000D01*
X116397414Y-85547176D01*
X116297305Y-85527263D01*
X116083039Y-85438292D01*
X115848989Y-85438088D01*
X115748000Y-85418000D01*
X115647893Y-85437912D01*
X115415888Y-85437710D01*
X115199577Y-85527088D01*
X115098586Y-85547176D01*
X115013718Y-85603883D01*
X114799297Y-85692480D01*
X114633654Y-85857835D01*
X114548040Y-85915040D01*
X114491334Y-85999906D01*
X114327138Y-86163816D01*
X114237383Y-86379970D01*
X114180176Y-86465586D01*
X114160263Y-86565695D01*
X114071292Y-86779961D01*
X114071088Y-87014011D01*
X114051000Y-87115000D01*
X114070912Y-87215107D01*
X114070710Y-87447112D01*
X114160088Y-87663423D01*
X114180176Y-87764414D01*
X114236883Y-87849282D01*
X114325480Y-88063703D01*
X114490835Y-88229346D01*
X114548040Y-88314960D01*
X114723040Y-88489960D01*
X115273586Y-88857824D01*
X115923000Y-88987000D01*
X123894358Y-88987000D01*
X123905017Y-88997678D01*
X123905790Y-88997999D01*
X121368001Y-88997999D01*
X120718587Y-89127175D01*
X120168041Y-89495039D01*
X119320080Y-90343000D01*
X115823000Y-90343000D01*
X115173586Y-90472176D01*
X114916120Y-90644210D01*
X114799297Y-90692480D01*
X114709050Y-90782570D01*
X114623040Y-90840040D01*
X114548040Y-90915040D01*
X114491334Y-90999906D01*
X114327138Y-91163816D01*
X114237383Y-91379970D01*
X114180176Y-91465586D01*
X114160263Y-91565695D01*
X114071292Y-91779961D01*
X114071088Y-92014011D01*
X114051000Y-92115000D01*
X114070912Y-92215107D01*
X114070710Y-92447112D01*
X114160088Y-92663423D01*
X114180176Y-92764414D01*
X114236883Y-92849282D01*
X114325480Y-93063703D01*
X114490835Y-93229346D01*
X114548040Y-93314960D01*
X114632906Y-93371666D01*
X114796816Y-93535862D01*
X115012970Y-93625617D01*
X115098586Y-93682824D01*
X115198695Y-93702737D01*
X115412961Y-93791708D01*
X115647011Y-93791912D01*
X115748000Y-93812000D01*
X115848107Y-93792088D01*
X116080112Y-93792290D01*
X116213924Y-93737000D01*
X120023000Y-93737000D01*
X120672414Y-93607824D01*
X121222960Y-93239960D01*
X122070921Y-92391999D01*
X125599080Y-92391999D01*
X125527138Y-92463816D01*
X125271292Y-93079961D01*
X125270710Y-93747112D01*
X125525480Y-94363703D01*
X125996816Y-94835862D01*
X126612961Y-95091708D01*
X127280112Y-95092290D01*
X127896703Y-94837520D01*
X128368862Y-94366184D01*
X128624708Y-93750039D01*
X128625290Y-93082888D01*
X128370520Y-92466297D01*
X128296352Y-92391999D01*
X135725079Y-92391999D01*
X137284717Y-93951637D01*
X137513416Y-94505132D01*
X138055017Y-95047678D01*
X138763014Y-95341665D01*
X139529622Y-95342334D01*
X140238132Y-95049584D01*
X140780678Y-94507983D01*
X141074665Y-93799986D01*
X141075334Y-93033378D01*
X140782584Y-92324868D01*
X140240983Y-91782322D01*
X139683934Y-91551014D01*
X137627959Y-89495039D01*
X137077413Y-89127175D01*
X136427999Y-88997999D01*
X126089720Y-88997999D01*
X126630678Y-88457983D01*
X126924665Y-87749986D01*
X126925334Y-86983378D01*
X126632584Y-86274868D01*
X126190488Y-85832001D01*
X136427999Y-85832001D01*
X137077413Y-85702825D01*
X137627959Y-85334961D01*
X139734637Y-83228283D01*
X140288132Y-82999584D01*
X140830678Y-82457983D01*
X141124665Y-81749986D01*
X141125334Y-80983378D01*
X140832584Y-80274868D01*
X140290983Y-79732322D01*
X139582986Y-79438335D01*
X138816378Y-79437666D01*
X138107868Y-79730416D01*
X137565322Y-80272017D01*
X137334014Y-80829066D01*
X135725079Y-82438001D01*
X128296920Y-82438001D01*
X128368862Y-82366184D01*
X128624708Y-81750039D01*
X128625290Y-81082888D01*
X128370520Y-80466297D01*
X127899184Y-79994138D01*
X127283039Y-79738292D01*
X126615888Y-79737710D01*
X125999297Y-79992480D01*
X125527138Y-80463816D01*
X125271292Y-81079961D01*
X125270710Y-81747112D01*
X125525480Y-82363703D01*
X125599648Y-82438001D01*
X121670921Y-82438001D01*
X120147960Y-80915040D01*
X119597414Y-80547176D01*
X118948000Y-80418000D01*
X115748000Y-80418000D01*
X115689507Y-80429635D01*
X114498000Y-80429635D01*
X114339763Y-80459409D01*
X114194433Y-80552927D01*
X114096936Y-80695619D01*
X114062635Y-80865000D01*
X114062635Y-82056507D01*
X114051000Y-82115000D01*
X111500000Y-82115000D01*
X111500000Y-78585000D01*
X145732635Y-78585000D01*
X145732635Y-80285000D01*
X145762409Y-80443237D01*
X145855927Y-80588567D01*
X145998619Y-80686064D01*
X146168000Y-80720365D01*
X147868000Y-80720365D01*
X148026237Y-80690591D01*
X148171567Y-80597073D01*
X148269064Y-80454381D01*
X148303365Y-80285000D01*
X148303365Y-79572454D01*
X148378206Y-79948705D01*
X148655025Y-80362993D01*
X149069313Y-80639812D01*
X149558000Y-80737018D01*
X150046687Y-80639812D01*
X150460975Y-80362993D01*
X150733309Y-79955417D01*
X150902817Y-80316358D01*
X151331076Y-80706645D01*
X151741110Y-80876476D01*
X151971000Y-80755155D01*
X151971000Y-79562000D01*
X152225000Y-79562000D01*
X152225000Y-80755155D01*
X152454890Y-80876476D01*
X152864924Y-80706645D01*
X153293183Y-80316358D01*
X153539486Y-79791892D01*
X153418819Y-79562000D01*
X152225000Y-79562000D01*
X151971000Y-79562000D01*
X151951000Y-79562000D01*
X151951000Y-79308000D01*
X151971000Y-79308000D01*
X151971000Y-78114845D01*
X152225000Y-78114845D01*
X152225000Y-79308000D01*
X153418819Y-79308000D01*
X153539486Y-79078108D01*
X153293183Y-78553642D01*
X152864924Y-78163355D01*
X152454890Y-77993524D01*
X152225000Y-78114845D01*
X151971000Y-78114845D01*
X151741110Y-77993524D01*
X151331076Y-78163355D01*
X150902817Y-78553642D01*
X150733309Y-78914583D01*
X150460975Y-78507007D01*
X150046687Y-78230188D01*
X149558000Y-78132982D01*
X149069313Y-78230188D01*
X148655025Y-78507007D01*
X148378206Y-78921295D01*
X148303365Y-79297546D01*
X148303365Y-78585000D01*
X148273591Y-78426763D01*
X148180073Y-78281433D01*
X148037381Y-78183936D01*
X147868000Y-78149635D01*
X146168000Y-78149635D01*
X146009763Y-78179409D01*
X145864433Y-78272927D01*
X145766936Y-78415619D01*
X145732635Y-78585000D01*
X111500000Y-78585000D01*
X111500000Y-73527000D01*
X124798969Y-73527000D01*
X124154577Y-74170270D01*
X124154577Y-74170270D01*
G37*
X124154577Y-74170270D02*
X123779427Y-75073729D01*
X123778574Y-76051980D01*
X124152145Y-76956092D01*
X124843270Y-77648423D01*
X125746729Y-78023573D01*
X126724980Y-78024426D01*
X127629092Y-77650855D01*
X128321423Y-76959730D01*
X128613250Y-76256935D01*
X128881408Y-76658262D01*
X129300109Y-76938029D01*
X129794000Y-77036270D01*
X130287891Y-76938029D01*
X130706592Y-76658262D01*
X130986359Y-76239561D01*
X131064000Y-75849233D01*
X131141641Y-76239561D01*
X131421408Y-76658262D01*
X131840109Y-76938029D01*
X132334000Y-77036270D01*
X132827891Y-76938029D01*
X133246592Y-76658262D01*
X133526359Y-76239561D01*
X133604000Y-75849233D01*
X133681641Y-76239561D01*
X133961408Y-76658262D01*
X134380109Y-76938029D01*
X134874000Y-77036270D01*
X135367891Y-76938029D01*
X135786592Y-76658262D01*
X136047862Y-76267243D01*
X136122046Y-76479320D01*
X136511964Y-76915732D01*
X137039209Y-77169709D01*
X137054974Y-77172358D01*
X137287000Y-77051217D01*
X137287000Y-75692000D01*
X137267000Y-75692000D01*
X137267000Y-75438000D01*
X137287000Y-75438000D01*
X137287000Y-74078783D01*
X137541000Y-74078783D01*
X137541000Y-75438000D01*
X137561000Y-75438000D01*
X137561000Y-75692000D01*
X137541000Y-75692000D01*
X137541000Y-77051217D01*
X137773026Y-77172358D01*
X137788791Y-77169709D01*
X138316036Y-76915732D01*
X138705954Y-76479320D01*
X138780138Y-76267243D01*
X139041408Y-76658262D01*
X139460109Y-76938029D01*
X139954000Y-77036270D01*
X140447891Y-76938029D01*
X140866592Y-76658262D01*
X141146359Y-76239561D01*
X141224000Y-75849233D01*
X141301641Y-76239561D01*
X141581408Y-76658262D01*
X142000109Y-76938029D01*
X142494000Y-77036270D01*
X142987891Y-76938029D01*
X143406592Y-76658262D01*
X143686359Y-76239561D01*
X143764000Y-75849233D01*
X143841641Y-76239561D01*
X144121408Y-76658262D01*
X144540109Y-76938029D01*
X145034000Y-77036270D01*
X145527891Y-76938029D01*
X145946592Y-76658262D01*
X146226359Y-76239561D01*
X146304000Y-75849233D01*
X146381641Y-76239561D01*
X146661408Y-76658262D01*
X147080109Y-76938029D01*
X147574000Y-77036270D01*
X148067891Y-76938029D01*
X148486592Y-76658262D01*
X148766359Y-76239561D01*
X148844000Y-75849233D01*
X148921641Y-76239561D01*
X149201408Y-76658262D01*
X149620109Y-76938029D01*
X150114000Y-77036270D01*
X150607891Y-76938029D01*
X151026592Y-76658262D01*
X151306359Y-76239561D01*
X151384000Y-75849233D01*
X151461641Y-76239561D01*
X151741408Y-76658262D01*
X152160109Y-76938029D01*
X152654000Y-77036270D01*
X153147891Y-76938029D01*
X153566592Y-76658262D01*
X153846359Y-76239561D01*
X153944600Y-75745670D01*
X153944600Y-75384330D01*
X153846359Y-74890439D01*
X153566592Y-74471738D01*
X153147891Y-74191971D01*
X152654000Y-74093730D01*
X152160109Y-74191971D01*
X151741408Y-74471738D01*
X151461641Y-74890439D01*
X151384000Y-75280767D01*
X151306359Y-74890439D01*
X151026592Y-74471738D01*
X150607891Y-74191971D01*
X150114000Y-74093730D01*
X149620109Y-74191971D01*
X149201408Y-74471738D01*
X148921641Y-74890439D01*
X148844000Y-75280767D01*
X148766359Y-74890439D01*
X148486592Y-74471738D01*
X148067891Y-74191971D01*
X147574000Y-74093730D01*
X147080109Y-74191971D01*
X146661408Y-74471738D01*
X146381641Y-74890439D01*
X146304000Y-75280767D01*
X146226359Y-74890439D01*
X145946592Y-74471738D01*
X145527891Y-74191971D01*
X145034000Y-74093730D01*
X144540109Y-74191971D01*
X144121408Y-74471738D01*
X143841641Y-74890439D01*
X143764000Y-75280767D01*
X143686359Y-74890439D01*
X143406592Y-74471738D01*
X142987891Y-74191971D01*
X142494000Y-74093730D01*
X142000109Y-74191971D01*
X141581408Y-74471738D01*
X141301641Y-74890439D01*
X141224000Y-75280767D01*
X141146359Y-74890439D01*
X140866592Y-74471738D01*
X140447891Y-74191971D01*
X139954000Y-74093730D01*
X139460109Y-74191971D01*
X139041408Y-74471738D01*
X138780138Y-74862757D01*
X138705954Y-74650680D01*
X138316036Y-74214268D01*
X137788791Y-73960291D01*
X137773026Y-73957642D01*
X137541000Y-74078783D01*
X137287000Y-74078783D01*
X137054974Y-73957642D01*
X137039209Y-73960291D01*
X136511964Y-74214268D01*
X136122046Y-74650680D01*
X136047862Y-74862757D01*
X135786592Y-74471738D01*
X135367891Y-74191971D01*
X134874000Y-74093730D01*
X134380109Y-74191971D01*
X133961408Y-74471738D01*
X133681641Y-74890439D01*
X133604000Y-75280767D01*
X133526359Y-74890439D01*
X133246592Y-74471738D01*
X132827891Y-74191971D01*
X132334000Y-74093730D01*
X131840109Y-74191971D01*
X131421408Y-74471738D01*
X131141641Y-74890439D01*
X131064000Y-75280767D01*
X130986359Y-74890439D01*
X130706592Y-74471738D01*
X130287891Y-74191971D01*
X129794000Y-74093730D01*
X129300109Y-74191971D01*
X128881408Y-74471738D01*
X128612935Y-74873536D01*
X128323855Y-74173908D01*
X127678074Y-73527000D01*
X175306064Y-73527000D01*
X176536000Y-74756935D01*
X176536000Y-85978995D01*
X176535999Y-85979000D01*
X176574212Y-86171107D01*
X176683032Y-86333968D01*
X179076000Y-88726935D01*
X179076000Y-89365969D01*
X178432730Y-88721577D01*
X177529271Y-88346427D01*
X176551020Y-88345574D01*
X175646908Y-88719145D01*
X174954577Y-89410270D01*
X174579427Y-90313729D01*
X174578574Y-91291980D01*
X174952145Y-92196092D01*
X175643270Y-92888423D01*
X176546729Y-93263573D01*
X177524980Y-93264426D01*
X178429092Y-92890855D01*
X179076000Y-92245074D01*
X179076000Y-117305969D01*
X178432730Y-116661577D01*
X177529271Y-116286427D01*
X176551020Y-116285574D01*
X175646908Y-116659145D01*
X174954577Y-117350270D01*
X174579427Y-118253729D01*
X174578574Y-119231980D01*
X174952145Y-120136092D01*
X175643270Y-120828423D01*
X176546729Y-121203573D01*
X177524980Y-121204426D01*
X178429092Y-120830855D01*
X179076000Y-120185074D01*
X179076000Y-121077065D01*
X176683032Y-123470032D01*
X176574212Y-123632893D01*
X176535999Y-123825000D01*
X176536000Y-123825005D01*
X176536000Y-125863000D01*
X157838466Y-125863000D01*
X160124441Y-123577025D01*
X160200572Y-123463087D01*
X160285828Y-123335492D01*
X160342500Y-123050584D01*
X160342500Y-121448382D01*
X161824441Y-119966441D01*
X161985828Y-119724908D01*
X162042500Y-119440000D01*
X162042500Y-119026200D01*
X162305850Y-118762850D01*
X162309453Y-118757655D01*
X162314055Y-118754420D01*
X162335584Y-118719972D01*
X162394232Y-118635397D01*
X162397638Y-118620678D01*
X162405645Y-118607867D01*
X162555645Y-118207867D01*
X162583199Y-118067028D01*
X162553591Y-117896763D01*
X162460073Y-117751433D01*
X162456263Y-117748830D01*
X162483365Y-117615000D01*
X162483365Y-117609500D01*
X162576653Y-117609500D01*
X162592409Y-117693237D01*
X162685927Y-117838567D01*
X162828619Y-117936064D01*
X162998000Y-117970365D01*
X164698000Y-117970365D01*
X164856237Y-117940591D01*
X165001567Y-117847073D01*
X165099064Y-117704381D01*
X165133365Y-117535000D01*
X165133365Y-116822454D01*
X165208206Y-117198705D01*
X165485025Y-117612993D01*
X165899313Y-117889812D01*
X166388000Y-117987018D01*
X166582695Y-117948291D01*
X171237674Y-122603270D01*
X171045408Y-122731738D01*
X170765641Y-123150439D01*
X170688000Y-123540767D01*
X170610359Y-123150439D01*
X170330592Y-122731738D01*
X169911891Y-122451971D01*
X169418000Y-122353730D01*
X168924109Y-122451971D01*
X168505408Y-122731738D01*
X168225641Y-123150439D01*
X168148000Y-123540767D01*
X168070359Y-123150439D01*
X167790592Y-122731738D01*
X167371891Y-122451971D01*
X166878000Y-122353730D01*
X166384109Y-122451971D01*
X165965408Y-122731738D01*
X165685641Y-123150439D01*
X165608000Y-123540767D01*
X165530359Y-123150439D01*
X165250592Y-122731738D01*
X164831891Y-122451971D01*
X164338000Y-122353730D01*
X163844109Y-122451971D01*
X163425408Y-122731738D01*
X163145641Y-123150439D01*
X163068000Y-123540767D01*
X162990359Y-123150439D01*
X162710592Y-122731738D01*
X162291891Y-122451971D01*
X161798000Y-122353730D01*
X161304109Y-122451971D01*
X160885408Y-122731738D01*
X160605641Y-123150439D01*
X160507400Y-123644330D01*
X160507400Y-124005670D01*
X160605641Y-124499561D01*
X160885408Y-124918262D01*
X161304109Y-125198029D01*
X161798000Y-125296270D01*
X162291891Y-125198029D01*
X162710592Y-124918262D01*
X162990359Y-124499561D01*
X163068000Y-124109233D01*
X163145641Y-124499561D01*
X163425408Y-124918262D01*
X163844109Y-125198029D01*
X164338000Y-125296270D01*
X164831891Y-125198029D01*
X165250592Y-124918262D01*
X165530359Y-124499561D01*
X165608000Y-124109233D01*
X165685641Y-124499561D01*
X165965408Y-124918262D01*
X166384109Y-125198029D01*
X166878000Y-125296270D01*
X167371891Y-125198029D01*
X167790592Y-124918262D01*
X168070359Y-124499561D01*
X168148000Y-124109233D01*
X168225641Y-124499561D01*
X168505408Y-124918262D01*
X168924109Y-125198029D01*
X169418000Y-125296270D01*
X169911891Y-125198029D01*
X170330592Y-124918262D01*
X170610359Y-124499561D01*
X170688000Y-124109233D01*
X170765641Y-124499561D01*
X171045408Y-124918262D01*
X171464109Y-125198029D01*
X171958000Y-125296270D01*
X172451891Y-125198029D01*
X172870592Y-124918262D01*
X173150359Y-124499561D01*
X173228000Y-124109233D01*
X173305641Y-124499561D01*
X173585408Y-124918262D01*
X174004109Y-125198029D01*
X174498000Y-125296270D01*
X174991891Y-125198029D01*
X175410592Y-124918262D01*
X175690359Y-124499561D01*
X175788600Y-124005670D01*
X175788600Y-123644330D01*
X175690359Y-123150439D01*
X175410592Y-122731738D01*
X174991891Y-122451971D01*
X174498000Y-122353730D01*
X174004109Y-122451971D01*
X173968296Y-122475900D01*
X169477400Y-117985004D01*
X169477400Y-117849245D01*
X169830975Y-117612993D01*
X170103309Y-117205417D01*
X170272817Y-117566358D01*
X170701076Y-117956645D01*
X171111110Y-118126476D01*
X171341000Y-118005155D01*
X171341000Y-116812000D01*
X171595000Y-116812000D01*
X171595000Y-118005155D01*
X171824890Y-118126476D01*
X172234924Y-117956645D01*
X172663183Y-117566358D01*
X172909486Y-117041892D01*
X172788819Y-116812000D01*
X171595000Y-116812000D01*
X171341000Y-116812000D01*
X171321000Y-116812000D01*
X171321000Y-116558000D01*
X171341000Y-116558000D01*
X171341000Y-115364845D01*
X171595000Y-115364845D01*
X171595000Y-116558000D01*
X172788819Y-116558000D01*
X172909486Y-116328108D01*
X172663183Y-115803642D01*
X172234924Y-115413355D01*
X171824890Y-115243524D01*
X171595000Y-115364845D01*
X171341000Y-115364845D01*
X171111110Y-115243524D01*
X170701076Y-115413355D01*
X170272817Y-115803642D01*
X170103309Y-116164583D01*
X169830975Y-115757007D01*
X169416687Y-115480188D01*
X168928000Y-115382982D01*
X168439313Y-115480188D01*
X168025025Y-115757007D01*
X167748206Y-116171295D01*
X167658000Y-116624791D01*
X167567794Y-116171295D01*
X167290975Y-115757007D01*
X166876687Y-115480188D01*
X166388000Y-115382982D01*
X165899313Y-115480188D01*
X165485025Y-115757007D01*
X165208206Y-116171295D01*
X165133365Y-116547546D01*
X165133365Y-115835000D01*
X165103591Y-115676763D01*
X165010073Y-115531433D01*
X164867381Y-115433936D01*
X164698000Y-115399635D01*
X162998000Y-115399635D01*
X162839763Y-115429409D01*
X162694433Y-115522927D01*
X162596936Y-115665619D01*
X162562635Y-115835000D01*
X162562635Y-116120500D01*
X162483365Y-116120500D01*
X162483365Y-116115000D01*
X162456938Y-115974553D01*
X162541815Y-115860613D01*
X162583002Y-115692774D01*
X162555645Y-115522133D01*
X162405645Y-115122133D01*
X162402493Y-115117162D01*
X162401366Y-115111175D01*
X162340304Y-115019102D01*
X162310073Y-114971433D01*
X162307545Y-114969706D01*
X162305850Y-114967150D01*
X162005850Y-114667150D01*
X161993884Y-114659095D01*
X161988091Y-114651468D01*
X161985828Y-114640092D01*
X161824441Y-114398559D01*
X161582908Y-114237172D01*
X161298000Y-114180500D01*
X160478000Y-114180500D01*
X160193092Y-114237172D01*
X159978586Y-114380500D01*
X159951559Y-114398559D01*
X159504058Y-114846060D01*
X159383365Y-115026690D01*
X159383365Y-114115000D01*
X159353591Y-113956763D01*
X159260073Y-113811433D01*
X159117381Y-113713936D01*
X158948000Y-113679635D01*
X157248000Y-113679635D01*
X157089763Y-113709409D01*
X156944433Y-113802927D01*
X156846936Y-113945619D01*
X156812635Y-114115000D01*
X156812635Y-115815000D01*
X156842409Y-115973237D01*
X156935927Y-116118567D01*
X157078619Y-116216064D01*
X157248000Y-116250365D01*
X157960546Y-116250365D01*
X157584295Y-116325206D01*
X157170007Y-116602025D01*
X156893188Y-117016313D01*
X156795982Y-117505000D01*
X156893188Y-117993687D01*
X157170007Y-118407975D01*
X157577583Y-118680309D01*
X157216642Y-118849817D01*
X156826355Y-119278076D01*
X156656524Y-119688110D01*
X156777845Y-119918000D01*
X157971000Y-119918000D01*
X157971000Y-119898000D01*
X158225000Y-119898000D01*
X158225000Y-119918000D01*
X159418155Y-119918000D01*
X159539476Y-119688110D01*
X159369645Y-119278076D01*
X158979358Y-118849817D01*
X158618417Y-118680309D01*
X159025993Y-118407975D01*
X159302812Y-117993687D01*
X159365308Y-117679500D01*
X159548000Y-117679500D01*
X159832908Y-117622828D01*
X160074441Y-117461441D01*
X160112635Y-117423247D01*
X160112635Y-117615000D01*
X160139062Y-117755447D01*
X160054185Y-117869387D01*
X160012998Y-118037226D01*
X160040355Y-118207867D01*
X160190355Y-118607867D01*
X160193507Y-118612838D01*
X160194634Y-118618825D01*
X160255696Y-118710898D01*
X160285927Y-118758567D01*
X160288455Y-118760294D01*
X160290150Y-118762850D01*
X160553500Y-119026200D01*
X160553500Y-119131618D01*
X159450959Y-120234159D01*
X159418155Y-120172000D01*
X158225000Y-120172000D01*
X158225000Y-121365819D01*
X158454892Y-121486486D01*
X158853500Y-121299289D01*
X158853500Y-122742202D01*
X157999105Y-123596597D01*
X157910359Y-123150439D01*
X157630592Y-122731738D01*
X157211891Y-122451971D01*
X156718000Y-122353730D01*
X156224109Y-122451971D01*
X155805408Y-122731738D01*
X155544138Y-123122757D01*
X155469954Y-122910680D01*
X155080036Y-122474268D01*
X154552791Y-122220291D01*
X154537026Y-122217642D01*
X154305000Y-122338783D01*
X154305000Y-123698000D01*
X154325000Y-123698000D01*
X154325000Y-123952000D01*
X154305000Y-123952000D01*
X154305000Y-123972000D01*
X154051000Y-123972000D01*
X154051000Y-123952000D01*
X151765000Y-123952000D01*
X151765000Y-123972000D01*
X151511000Y-123972000D01*
X151511000Y-123952000D01*
X151491000Y-123952000D01*
X151491000Y-123698000D01*
X151511000Y-123698000D01*
X151511000Y-122338783D01*
X151765000Y-122338783D01*
X151765000Y-123698000D01*
X154051000Y-123698000D01*
X154051000Y-122338783D01*
X153818974Y-122217642D01*
X153803209Y-122220291D01*
X153275964Y-122474268D01*
X152908000Y-122886108D01*
X152540036Y-122474268D01*
X152012791Y-122220291D01*
X151997026Y-122217642D01*
X151765000Y-122338783D01*
X151511000Y-122338783D01*
X151278974Y-122217642D01*
X151263209Y-122220291D01*
X150735964Y-122474268D01*
X150346046Y-122910680D01*
X150271862Y-123122757D01*
X150010592Y-122731738D01*
X149591891Y-122451971D01*
X149098000Y-122353730D01*
X148604109Y-122451971D01*
X148185408Y-122731738D01*
X147905641Y-123150439D01*
X147828000Y-123540767D01*
X147750359Y-123150439D01*
X147470592Y-122731738D01*
X147051891Y-122451971D01*
X146558000Y-122353730D01*
X146064109Y-122451971D01*
X145645408Y-122731738D01*
X145365641Y-123150439D01*
X145288000Y-123540767D01*
X145210359Y-123150439D01*
X144930592Y-122731738D01*
X144511891Y-122451971D01*
X144018000Y-122353730D01*
X143524109Y-122451971D01*
X143105408Y-122731738D01*
X142825641Y-123150439D01*
X142748000Y-123540767D01*
X142670359Y-123150439D01*
X142390592Y-122731738D01*
X141971891Y-122451971D01*
X141478000Y-122353730D01*
X140984109Y-122451971D01*
X140565408Y-122731738D01*
X140285641Y-123150439D01*
X140208000Y-123540767D01*
X140130359Y-123150439D01*
X139850592Y-122731738D01*
X139431891Y-122451971D01*
X138938000Y-122353730D01*
X138444109Y-122451971D01*
X138025408Y-122731738D01*
X137745641Y-123150439D01*
X137647400Y-123644330D01*
X137647400Y-124005670D01*
X137745641Y-124499561D01*
X138025408Y-124918262D01*
X138444109Y-125198029D01*
X138938000Y-125296270D01*
X139431891Y-125198029D01*
X139850592Y-124918262D01*
X140130359Y-124499561D01*
X140208000Y-124109233D01*
X140285641Y-124499561D01*
X140565408Y-124918262D01*
X140984109Y-125198029D01*
X141478000Y-125296270D01*
X141971891Y-125198029D01*
X142390592Y-124918262D01*
X142670359Y-124499561D01*
X142748000Y-124109233D01*
X142825641Y-124499561D01*
X143105408Y-124918262D01*
X143524109Y-125198029D01*
X144018000Y-125296270D01*
X144511891Y-125198029D01*
X144930592Y-124918262D01*
X145210359Y-124499561D01*
X145288000Y-124109233D01*
X145365641Y-124499561D01*
X145645408Y-124918262D01*
X146064109Y-125198029D01*
X146558000Y-125296270D01*
X146779858Y-125252140D01*
X147390718Y-125863000D01*
X126407031Y-125863000D01*
X127051423Y-125219730D01*
X127426573Y-124316271D01*
X127427426Y-123338020D01*
X127053855Y-122433908D01*
X126362730Y-121741577D01*
X125459271Y-121366427D01*
X124481020Y-121365574D01*
X123576908Y-121739145D01*
X122884577Y-122430270D01*
X122509427Y-123333729D01*
X122508574Y-124311980D01*
X122882145Y-125216092D01*
X123527926Y-125863000D01*
X111500000Y-125863000D01*
X111500000Y-120391890D01*
X152316524Y-120391890D01*
X152486355Y-120801924D01*
X152876642Y-121230183D01*
X153401108Y-121476486D01*
X153631000Y-121355819D01*
X153631000Y-120162000D01*
X153885000Y-120162000D01*
X153885000Y-121355819D01*
X154114892Y-121476486D01*
X154639358Y-121230183D01*
X155029645Y-120801924D01*
X155195334Y-120401890D01*
X156656524Y-120401890D01*
X156826355Y-120811924D01*
X157216642Y-121240183D01*
X157741108Y-121486486D01*
X157971000Y-121365819D01*
X157971000Y-120172000D01*
X156777845Y-120172000D01*
X156656524Y-120401890D01*
X155195334Y-120401890D01*
X155199476Y-120391890D01*
X155078155Y-120162000D01*
X153885000Y-120162000D01*
X153631000Y-120162000D01*
X152437845Y-120162000D01*
X152316524Y-120391890D01*
X111500000Y-120391890D01*
X111500000Y-107115000D01*
X114051000Y-107115000D01*
X114062635Y-107173493D01*
X114062635Y-108365000D01*
X114092409Y-108523237D01*
X114185927Y-108668567D01*
X114328619Y-108766064D01*
X114498000Y-108800365D01*
X115689507Y-108800365D01*
X115748000Y-108812000D01*
X118095080Y-108812000D01*
X119618041Y-110334961D01*
X120116468Y-110668000D01*
X116636237Y-110668000D01*
X116483030Y-110604383D01*
X116397414Y-110547176D01*
X116297305Y-110527263D01*
X116083039Y-110438292D01*
X115848989Y-110438088D01*
X115748000Y-110418000D01*
X115647893Y-110437912D01*
X115415888Y-110437710D01*
X115199577Y-110527088D01*
X115098586Y-110547176D01*
X115013718Y-110603883D01*
X114799297Y-110692480D01*
X114633654Y-110857835D01*
X114548040Y-110915040D01*
X114491334Y-110999906D01*
X114327138Y-111163816D01*
X114237383Y-111379970D01*
X114180176Y-111465586D01*
X114160263Y-111565695D01*
X114071292Y-111779961D01*
X114071088Y-112014011D01*
X114051000Y-112115000D01*
X114070912Y-112215107D01*
X114070710Y-112447112D01*
X114160088Y-112663423D01*
X114180176Y-112764414D01*
X114236883Y-112849282D01*
X114325480Y-113063703D01*
X114490835Y-113229346D01*
X114548040Y-113314960D01*
X114798040Y-113564960D01*
X115348586Y-113932824D01*
X115998000Y-114062000D01*
X120171245Y-114062000D01*
X119843587Y-114127175D01*
X119293041Y-114495039D01*
X118370080Y-115418000D01*
X115748000Y-115418000D01*
X115647893Y-115437912D01*
X115415888Y-115437710D01*
X115199577Y-115527088D01*
X115098586Y-115547176D01*
X115013718Y-115603883D01*
X114799297Y-115692480D01*
X114633654Y-115857835D01*
X114548040Y-115915040D01*
X114491334Y-115999906D01*
X114327138Y-116163816D01*
X114237383Y-116379970D01*
X114180176Y-116465586D01*
X114160263Y-116565695D01*
X114071292Y-116779961D01*
X114071088Y-117014011D01*
X114051000Y-117115000D01*
X114070912Y-117215107D01*
X114070710Y-117447112D01*
X114160088Y-117663423D01*
X114180176Y-117764414D01*
X114236883Y-117849282D01*
X114325480Y-118063703D01*
X114490835Y-118229346D01*
X114548040Y-118314960D01*
X114632906Y-118371666D01*
X114796816Y-118535862D01*
X115012970Y-118625617D01*
X115098586Y-118682824D01*
X115198695Y-118702737D01*
X115412961Y-118791708D01*
X115647011Y-118791912D01*
X115748000Y-118812000D01*
X119073000Y-118812000D01*
X119722414Y-118682824D01*
X120272960Y-118314960D01*
X121195921Y-117391999D01*
X125599080Y-117391999D01*
X125527138Y-117463816D01*
X125271292Y-118079961D01*
X125270710Y-118747112D01*
X125525480Y-119363703D01*
X125996816Y-119835862D01*
X126612961Y-120091708D01*
X127280112Y-120092290D01*
X127896703Y-119837520D01*
X128368862Y-119366184D01*
X128624708Y-118750039D01*
X128625290Y-118082888D01*
X128370520Y-117466297D01*
X128296352Y-117391999D01*
X135725079Y-117391999D01*
X137284717Y-118951637D01*
X137513416Y-119505132D01*
X138055017Y-120047678D01*
X138763014Y-120341665D01*
X139529622Y-120342334D01*
X140238132Y-120049584D01*
X140610254Y-119678110D01*
X152316524Y-119678110D01*
X152437845Y-119908000D01*
X153631000Y-119908000D01*
X153631000Y-119888000D01*
X153885000Y-119888000D01*
X153885000Y-119908000D01*
X155078155Y-119908000D01*
X155199476Y-119678110D01*
X155029645Y-119268076D01*
X154639358Y-118839817D01*
X154278417Y-118670309D01*
X154685993Y-118397975D01*
X154962812Y-117983687D01*
X155060018Y-117495000D01*
X154962812Y-117006313D01*
X154685993Y-116592025D01*
X154271705Y-116315206D01*
X153895454Y-116240365D01*
X154608000Y-116240365D01*
X154766237Y-116210591D01*
X154911567Y-116117073D01*
X155009064Y-115974381D01*
X155043365Y-115805000D01*
X155043365Y-114105000D01*
X155013591Y-113946763D01*
X154920073Y-113801433D01*
X154777381Y-113703936D01*
X154608000Y-113669635D01*
X152908000Y-113669635D01*
X152749763Y-113699409D01*
X152604433Y-113792927D01*
X152506936Y-113935619D01*
X152472635Y-114105000D01*
X152472635Y-115805000D01*
X152502409Y-115963237D01*
X152595927Y-116108567D01*
X152738619Y-116206064D01*
X152908000Y-116240365D01*
X153620546Y-116240365D01*
X153244295Y-116315206D01*
X152830007Y-116592025D01*
X152553188Y-117006313D01*
X152455982Y-117495000D01*
X152553188Y-117983687D01*
X152830007Y-118397975D01*
X153237583Y-118670309D01*
X152876642Y-118839817D01*
X152486355Y-119268076D01*
X152316524Y-119678110D01*
X140610254Y-119678110D01*
X140780678Y-119507983D01*
X141074665Y-118799986D01*
X141075334Y-118033378D01*
X140782584Y-117324868D01*
X140240983Y-116782322D01*
X139683934Y-116551014D01*
X137627959Y-114495039D01*
X137077413Y-114127175D01*
X136427999Y-113997999D01*
X126089720Y-113997999D01*
X126630678Y-113457983D01*
X126924665Y-112749986D01*
X126925334Y-111983378D01*
X126632584Y-111274868D01*
X126190488Y-110832001D01*
X136427999Y-110832001D01*
X137077413Y-110702825D01*
X137627959Y-110334961D01*
X139039337Y-108923583D01*
X141470839Y-108923583D01*
X141590000Y-109211974D01*
X141590000Y-112993604D01*
X141471161Y-113279799D01*
X141470839Y-113648583D01*
X141611669Y-113989417D01*
X141872211Y-114250414D01*
X142212799Y-114391839D01*
X142581583Y-114392161D01*
X142922417Y-114251331D01*
X143183414Y-113990789D01*
X143324839Y-113650201D01*
X143325161Y-113281417D01*
X143206000Y-112993026D01*
X143206000Y-109211396D01*
X143324839Y-108925201D01*
X143325161Y-108556417D01*
X143184331Y-108215583D01*
X142923789Y-107954586D01*
X142583201Y-107813161D01*
X142214417Y-107812839D01*
X141873583Y-107953669D01*
X141612586Y-108214211D01*
X141471161Y-108554799D01*
X141470839Y-108923583D01*
X139039337Y-108923583D01*
X139734637Y-108228283D01*
X140288132Y-107999584D01*
X140830678Y-107457983D01*
X141124665Y-106749986D01*
X141125334Y-105983378D01*
X140832584Y-105274868D01*
X140290983Y-104732322D01*
X139582986Y-104438335D01*
X138816378Y-104437666D01*
X138107868Y-104730416D01*
X137565322Y-105272017D01*
X137334014Y-105829066D01*
X135725079Y-107438001D01*
X128296920Y-107438001D01*
X128368862Y-107366184D01*
X128624708Y-106750039D01*
X128625290Y-106082888D01*
X128370520Y-105466297D01*
X127899184Y-104994138D01*
X127283039Y-104738292D01*
X126615888Y-104737710D01*
X125999297Y-104992480D01*
X125527138Y-105463816D01*
X125271292Y-106079961D01*
X125270710Y-106747112D01*
X125525480Y-107363703D01*
X125599648Y-107438001D01*
X121520921Y-107438001D01*
X119997960Y-105915040D01*
X119447414Y-105547176D01*
X118798000Y-105418000D01*
X115748000Y-105418000D01*
X115689507Y-105429635D01*
X114498000Y-105429635D01*
X114339763Y-105459409D01*
X114194433Y-105552927D01*
X114096936Y-105695619D01*
X114062635Y-105865000D01*
X114062635Y-107056507D01*
X114051000Y-107115000D01*
X111500000Y-107115000D01*
X111500000Y-100139171D01*
X126370891Y-100139171D01*
X126466145Y-100369703D01*
X126642369Y-100546235D01*
X126757750Y-100594145D01*
X126788299Y-100624694D01*
X126788301Y-100624697D01*
X129313300Y-103149695D01*
X129313302Y-103149698D01*
X129436958Y-103232322D01*
X129501273Y-103275296D01*
X129723000Y-103319401D01*
X129723005Y-103319400D01*
X145323000Y-103319400D01*
X145544727Y-103275296D01*
X145732698Y-103149698D01*
X146282695Y-102599700D01*
X146282698Y-102599698D01*
X146408296Y-102411727D01*
X146452400Y-102190000D01*
X146452400Y-101479996D01*
X150133327Y-97799069D01*
X149871335Y-98430014D01*
X149870666Y-99196622D01*
X150163416Y-99905132D01*
X150705017Y-100447678D01*
X151262066Y-100678986D01*
X153318041Y-102734961D01*
X153868587Y-103102825D01*
X154518001Y-103232001D01*
X164856280Y-103232001D01*
X164315322Y-103772017D01*
X164021335Y-104480014D01*
X164020666Y-105246622D01*
X164313416Y-105955132D01*
X164755512Y-106397999D01*
X154518001Y-106397999D01*
X153868587Y-106527175D01*
X153318041Y-106895039D01*
X151211363Y-109001717D01*
X150657868Y-109230416D01*
X150115322Y-109772017D01*
X149821335Y-110480014D01*
X149820666Y-111246622D01*
X150113416Y-111955132D01*
X150655017Y-112497678D01*
X151363014Y-112791665D01*
X152129622Y-112792334D01*
X152838132Y-112499584D01*
X153380678Y-111957983D01*
X153611986Y-111400934D01*
X155220921Y-109791999D01*
X162649080Y-109791999D01*
X162577138Y-109863816D01*
X162321292Y-110479961D01*
X162320710Y-111147112D01*
X162575480Y-111763703D01*
X163046816Y-112235862D01*
X163662961Y-112491708D01*
X164330112Y-112492290D01*
X164946703Y-112237520D01*
X165418862Y-111766184D01*
X165674708Y-111150039D01*
X165675290Y-110482888D01*
X165420520Y-109866297D01*
X165346352Y-109791999D01*
X169100079Y-109791999D01*
X170373039Y-111064960D01*
X170701426Y-111284381D01*
X170923586Y-111432824D01*
X171573000Y-111562000D01*
X174748000Y-111562000D01*
X174806493Y-111550365D01*
X175998000Y-111550365D01*
X176156237Y-111520591D01*
X176301567Y-111427073D01*
X176399064Y-111284381D01*
X176433365Y-111115000D01*
X176433365Y-109923493D01*
X176445000Y-109865000D01*
X176433365Y-109806507D01*
X176433365Y-108615000D01*
X176403591Y-108456763D01*
X176310073Y-108311433D01*
X176167381Y-108213936D01*
X175998000Y-108179635D01*
X174806493Y-108179635D01*
X174748000Y-108168000D01*
X172275921Y-108168000D01*
X171002959Y-106895039D01*
X170504532Y-106562000D01*
X174748000Y-106562000D01*
X174848107Y-106542088D01*
X175080112Y-106542290D01*
X175296423Y-106452912D01*
X175397414Y-106432824D01*
X175482282Y-106376117D01*
X175696703Y-106287520D01*
X175862346Y-106122165D01*
X175947960Y-106064960D01*
X176004666Y-105980094D01*
X176168862Y-105816184D01*
X176258617Y-105600030D01*
X176315824Y-105514414D01*
X176335737Y-105414305D01*
X176424708Y-105200039D01*
X176424912Y-104965989D01*
X176445000Y-104865000D01*
X176425088Y-104764893D01*
X176425290Y-104532888D01*
X176335912Y-104316577D01*
X176315824Y-104215586D01*
X176259117Y-104130718D01*
X176170520Y-103916297D01*
X176005165Y-103750654D01*
X175947960Y-103665040D01*
X175863094Y-103608334D01*
X175699184Y-103444138D01*
X175483030Y-103354383D01*
X175397414Y-103297176D01*
X175297305Y-103277263D01*
X175083039Y-103188292D01*
X174848989Y-103188088D01*
X174748000Y-103168000D01*
X169749755Y-103168000D01*
X170077413Y-103102825D01*
X170627959Y-102734961D01*
X171800920Y-101562000D01*
X174748000Y-101562000D01*
X174848107Y-101542088D01*
X175080112Y-101542290D01*
X175296423Y-101452912D01*
X175397414Y-101432824D01*
X175482282Y-101376117D01*
X175696703Y-101287520D01*
X175862346Y-101122165D01*
X175947960Y-101064960D01*
X176004666Y-100980094D01*
X176168862Y-100816184D01*
X176258617Y-100600030D01*
X176315824Y-100514414D01*
X176335737Y-100414305D01*
X176424708Y-100200039D01*
X176424912Y-99965989D01*
X176445000Y-99865000D01*
X176425088Y-99764893D01*
X176425290Y-99532888D01*
X176335912Y-99316577D01*
X176315824Y-99215586D01*
X176259117Y-99130718D01*
X176170520Y-98916297D01*
X176005165Y-98750654D01*
X175947960Y-98665040D01*
X175863094Y-98608334D01*
X175699184Y-98444138D01*
X175483030Y-98354383D01*
X175397414Y-98297176D01*
X175297305Y-98277263D01*
X175083039Y-98188292D01*
X174848989Y-98188088D01*
X174748000Y-98168000D01*
X171098000Y-98168000D01*
X170448586Y-98297176D01*
X169898040Y-98665040D01*
X168725079Y-99838001D01*
X165346920Y-99838001D01*
X165418862Y-99766184D01*
X165674708Y-99150039D01*
X165675290Y-98482888D01*
X165420520Y-97866297D01*
X164949184Y-97394138D01*
X164333039Y-97138292D01*
X163665888Y-97137710D01*
X163049297Y-97392480D01*
X162577138Y-97863816D01*
X162321292Y-98479961D01*
X162320710Y-99147112D01*
X162575480Y-99763703D01*
X162649648Y-99838001D01*
X155220921Y-99838001D01*
X153661283Y-98278363D01*
X153432584Y-97724868D01*
X152890983Y-97182322D01*
X152182986Y-96888335D01*
X151416378Y-96887666D01*
X150783041Y-97149355D01*
X153837996Y-94094400D01*
X157298000Y-94094400D01*
X157519727Y-94050296D01*
X157707698Y-93924698D01*
X158118224Y-93514171D01*
X166445891Y-93514171D01*
X166541145Y-93744703D01*
X166717369Y-93921235D01*
X166947735Y-94016891D01*
X167197171Y-94017109D01*
X167427703Y-93921855D01*
X167604235Y-93745631D01*
X167699891Y-93515265D01*
X167700109Y-93265829D01*
X167652400Y-93150365D01*
X167652400Y-93104996D01*
X171063250Y-89694146D01*
X171177703Y-89646855D01*
X171354235Y-89470631D01*
X171449891Y-89240265D01*
X171450109Y-88990829D01*
X171354855Y-88760297D01*
X171178631Y-88583765D01*
X170948265Y-88488109D01*
X170698829Y-88487891D01*
X170468297Y-88583145D01*
X170291765Y-88759369D01*
X170243855Y-88874749D01*
X166663302Y-92455302D01*
X166537704Y-92643273D01*
X166493600Y-92865000D01*
X166493600Y-93150364D01*
X166446109Y-93264735D01*
X166445891Y-93514171D01*
X158118224Y-93514171D01*
X159712995Y-91919400D01*
X160548000Y-91919400D01*
X160769727Y-91875296D01*
X160957698Y-91749698D01*
X166762996Y-85944400D01*
X170508364Y-85944400D01*
X170622735Y-85991891D01*
X170872171Y-85992109D01*
X171102703Y-85896855D01*
X171279235Y-85720631D01*
X171374891Y-85490265D01*
X171375109Y-85240829D01*
X171279855Y-85010297D01*
X171103631Y-84833765D01*
X170873265Y-84738109D01*
X170623829Y-84737891D01*
X170508365Y-84785600D01*
X167207886Y-84785600D01*
X169824086Y-82169400D01*
X170608364Y-82169400D01*
X170722735Y-82216891D01*
X170972171Y-82217109D01*
X171202703Y-82121855D01*
X171379235Y-81945631D01*
X171474891Y-81715265D01*
X171475109Y-81465829D01*
X171379855Y-81235297D01*
X171309558Y-81164877D01*
X171353327Y-81100819D01*
X171396099Y-81040105D01*
X171396700Y-81037341D01*
X171399064Y-81033881D01*
X171420910Y-80926005D01*
X171432820Y-80871232D01*
X171432426Y-80869135D01*
X171433365Y-80864500D01*
X171433365Y-78865500D01*
X171405814Y-78713086D01*
X171314387Y-78566431D01*
X171173105Y-78466901D01*
X171040417Y-78438048D01*
X171305504Y-78172696D01*
X171393732Y-78045397D01*
X171432699Y-77877028D01*
X171403091Y-77706763D01*
X171309573Y-77561433D01*
X171166881Y-77463936D01*
X170997500Y-77429635D01*
X170570207Y-77429635D01*
X170533296Y-77244073D01*
X170407698Y-77056102D01*
X170138326Y-76786730D01*
X170330592Y-76658262D01*
X170610359Y-76239561D01*
X170688000Y-75849233D01*
X170765641Y-76239561D01*
X171045408Y-76658262D01*
X171464109Y-76938029D01*
X171958000Y-77036270D01*
X172451891Y-76938029D01*
X172870592Y-76658262D01*
X173150359Y-76239561D01*
X173228000Y-75849233D01*
X173305641Y-76239561D01*
X173585408Y-76658262D01*
X174004109Y-76938029D01*
X174498000Y-77036270D01*
X174991891Y-76938029D01*
X175410592Y-76658262D01*
X175690359Y-76239561D01*
X175788600Y-75745670D01*
X175788600Y-75384330D01*
X175690359Y-74890439D01*
X175410592Y-74471738D01*
X174991891Y-74191971D01*
X174498000Y-74093730D01*
X174004109Y-74191971D01*
X173585408Y-74471738D01*
X173305641Y-74890439D01*
X173228000Y-75280767D01*
X173150359Y-74890439D01*
X172870592Y-74471738D01*
X172451891Y-74191971D01*
X171958000Y-74093730D01*
X171464109Y-74191971D01*
X171045408Y-74471738D01*
X170765641Y-74890439D01*
X170688000Y-75280767D01*
X170610359Y-74890439D01*
X170330592Y-74471738D01*
X169911891Y-74191971D01*
X169418000Y-74093730D01*
X168924109Y-74191971D01*
X168505408Y-74471738D01*
X168225641Y-74890439D01*
X168148000Y-75280767D01*
X168070359Y-74890439D01*
X167790592Y-74471738D01*
X167371891Y-74191971D01*
X166878000Y-74093730D01*
X166384109Y-74191971D01*
X165965408Y-74471738D01*
X165685641Y-74890439D01*
X165608000Y-75280767D01*
X165530359Y-74890439D01*
X165250592Y-74471738D01*
X164831891Y-74191971D01*
X164338000Y-74093730D01*
X163844109Y-74191971D01*
X163425408Y-74471738D01*
X163145641Y-74890439D01*
X163068000Y-75280767D01*
X162990359Y-74890439D01*
X162710592Y-74471738D01*
X162291891Y-74191971D01*
X161798000Y-74093730D01*
X161304109Y-74191971D01*
X160885408Y-74471738D01*
X160605641Y-74890439D01*
X160528000Y-75280767D01*
X160450359Y-74890439D01*
X160170592Y-74471738D01*
X159751891Y-74191971D01*
X159258000Y-74093730D01*
X158764109Y-74191971D01*
X158345408Y-74471738D01*
X158065641Y-74890439D01*
X157988000Y-75280767D01*
X157910359Y-74890439D01*
X157630592Y-74471738D01*
X157211891Y-74191971D01*
X156718000Y-74093730D01*
X156224109Y-74191971D01*
X155805408Y-74471738D01*
X155525641Y-74890439D01*
X155427400Y-75384330D01*
X155427400Y-75745670D01*
X155525641Y-76239561D01*
X155805408Y-76658262D01*
X156224109Y-76938029D01*
X156718000Y-77036270D01*
X157211891Y-76938029D01*
X157630592Y-76658262D01*
X157910359Y-76239561D01*
X157988000Y-75849233D01*
X158065641Y-76239561D01*
X158345408Y-76658262D01*
X158764109Y-76938029D01*
X159258000Y-77036270D01*
X159751891Y-76938029D01*
X160170592Y-76658262D01*
X160450359Y-76239561D01*
X160528000Y-75849233D01*
X160605641Y-76239561D01*
X160885408Y-76658262D01*
X161304109Y-76938029D01*
X161798000Y-77036270D01*
X162291891Y-76938029D01*
X162710592Y-76658262D01*
X162990359Y-76239561D01*
X163068000Y-75849233D01*
X163145641Y-76239561D01*
X163425408Y-76658262D01*
X163701119Y-76842486D01*
X163588302Y-76955302D01*
X163462704Y-77143273D01*
X163418600Y-77365000D01*
X163418600Y-77429635D01*
X162998500Y-77429635D01*
X162846086Y-77457186D01*
X162699431Y-77548613D01*
X162599901Y-77689895D01*
X162563180Y-77858768D01*
X162595052Y-78028623D01*
X162690496Y-78172696D01*
X162957047Y-78439514D01*
X162839763Y-78459909D01*
X162694433Y-78553427D01*
X162596936Y-78696119D01*
X162562635Y-78865500D01*
X162562635Y-80864500D01*
X162590186Y-81016914D01*
X162592437Y-81020526D01*
X162592909Y-81023237D01*
X162631985Y-81083962D01*
X162681613Y-81163569D01*
X162684536Y-81165628D01*
X162686427Y-81168567D01*
X162762181Y-81220327D01*
X162822895Y-81263099D01*
X162825659Y-81263700D01*
X162829119Y-81266064D01*
X162936995Y-81287910D01*
X162991768Y-81299820D01*
X162993865Y-81299426D01*
X162998500Y-81300365D01*
X163418600Y-81300365D01*
X163418600Y-84025005D01*
X156133004Y-91310600D01*
X152598000Y-91310600D01*
X152376273Y-91354704D01*
X152188302Y-91480302D01*
X152188300Y-91480305D01*
X146133004Y-97535600D01*
X145412636Y-97535600D01*
X145298265Y-97488109D01*
X145048829Y-97487891D01*
X144818297Y-97583145D01*
X144641765Y-97759369D01*
X144546109Y-97989735D01*
X144545891Y-98239171D01*
X144641145Y-98469703D01*
X144817369Y-98646235D01*
X145047735Y-98741891D01*
X145297171Y-98742109D01*
X145412635Y-98694400D01*
X145760294Y-98694400D01*
X144238302Y-100216392D01*
X144112704Y-100404363D01*
X144068600Y-100626090D01*
X144068600Y-101475004D01*
X143908004Y-101635600D01*
X130723639Y-101635600D01*
X130602569Y-101554704D01*
X130380842Y-101510600D01*
X130337636Y-101510600D01*
X130223265Y-101463109D01*
X129973829Y-101462891D01*
X129743297Y-101558145D01*
X129566765Y-101734369D01*
X129557963Y-101755567D01*
X127607697Y-99805301D01*
X127607694Y-99805299D01*
X127577147Y-99774752D01*
X127529855Y-99660297D01*
X127353631Y-99483765D01*
X127123265Y-99388109D01*
X126873829Y-99387891D01*
X126643297Y-99483145D01*
X126466765Y-99659369D01*
X126371109Y-99889735D01*
X126370891Y-100139171D01*
X111500000Y-100139171D01*
X111500000Y-82115000D01*
X114051000Y-82115000D01*
X114062635Y-82173493D01*
X114062635Y-83365000D01*
X114092409Y-83523237D01*
X114185927Y-83668567D01*
X114328619Y-83766064D01*
X114498000Y-83800365D01*
X115689507Y-83800365D01*
X115748000Y-83812000D01*
X118245080Y-83812000D01*
X119768041Y-85334961D01*
X120154223Y-85593000D01*
X116465994Y-85593000D01*
X116397414Y-85547176D01*
X116297305Y-85527263D01*
X116083039Y-85438292D01*
X115848989Y-85438088D01*
X115748000Y-85418000D01*
X115647893Y-85437912D01*
X115415888Y-85437710D01*
X115199577Y-85527088D01*
X115098586Y-85547176D01*
X115013718Y-85603883D01*
X114799297Y-85692480D01*
X114633654Y-85857835D01*
X114548040Y-85915040D01*
X114491334Y-85999906D01*
X114327138Y-86163816D01*
X114237383Y-86379970D01*
X114180176Y-86465586D01*
X114160263Y-86565695D01*
X114071292Y-86779961D01*
X114071088Y-87014011D01*
X114051000Y-87115000D01*
X114070912Y-87215107D01*
X114070710Y-87447112D01*
X114160088Y-87663423D01*
X114180176Y-87764414D01*
X114236883Y-87849282D01*
X114325480Y-88063703D01*
X114490835Y-88229346D01*
X114548040Y-88314960D01*
X114723040Y-88489960D01*
X115273586Y-88857824D01*
X115923000Y-88987000D01*
X123894358Y-88987000D01*
X123905017Y-88997678D01*
X123905790Y-88997999D01*
X121368001Y-88997999D01*
X120718587Y-89127175D01*
X120168041Y-89495039D01*
X119320080Y-90343000D01*
X115823000Y-90343000D01*
X115173586Y-90472176D01*
X114916120Y-90644210D01*
X114799297Y-90692480D01*
X114709050Y-90782570D01*
X114623040Y-90840040D01*
X114548040Y-90915040D01*
X114491334Y-90999906D01*
X114327138Y-91163816D01*
X114237383Y-91379970D01*
X114180176Y-91465586D01*
X114160263Y-91565695D01*
X114071292Y-91779961D01*
X114071088Y-92014011D01*
X114051000Y-92115000D01*
X114070912Y-92215107D01*
X114070710Y-92447112D01*
X114160088Y-92663423D01*
X114180176Y-92764414D01*
X114236883Y-92849282D01*
X114325480Y-93063703D01*
X114490835Y-93229346D01*
X114548040Y-93314960D01*
X114632906Y-93371666D01*
X114796816Y-93535862D01*
X115012970Y-93625617D01*
X115098586Y-93682824D01*
X115198695Y-93702737D01*
X115412961Y-93791708D01*
X115647011Y-93791912D01*
X115748000Y-93812000D01*
X115848107Y-93792088D01*
X116080112Y-93792290D01*
X116213924Y-93737000D01*
X120023000Y-93737000D01*
X120672414Y-93607824D01*
X121222960Y-93239960D01*
X122070921Y-92391999D01*
X125599080Y-92391999D01*
X125527138Y-92463816D01*
X125271292Y-93079961D01*
X125270710Y-93747112D01*
X125525480Y-94363703D01*
X125996816Y-94835862D01*
X126612961Y-95091708D01*
X127280112Y-95092290D01*
X127896703Y-94837520D01*
X128368862Y-94366184D01*
X128624708Y-93750039D01*
X128625290Y-93082888D01*
X128370520Y-92466297D01*
X128296352Y-92391999D01*
X135725079Y-92391999D01*
X137284717Y-93951637D01*
X137513416Y-94505132D01*
X138055017Y-95047678D01*
X138763014Y-95341665D01*
X139529622Y-95342334D01*
X140238132Y-95049584D01*
X140780678Y-94507983D01*
X141074665Y-93799986D01*
X141075334Y-93033378D01*
X140782584Y-92324868D01*
X140240983Y-91782322D01*
X139683934Y-91551014D01*
X137627959Y-89495039D01*
X137077413Y-89127175D01*
X136427999Y-88997999D01*
X126089720Y-88997999D01*
X126630678Y-88457983D01*
X126924665Y-87749986D01*
X126925334Y-86983378D01*
X126632584Y-86274868D01*
X126190488Y-85832001D01*
X136427999Y-85832001D01*
X137077413Y-85702825D01*
X137627959Y-85334961D01*
X139734637Y-83228283D01*
X140288132Y-82999584D01*
X140830678Y-82457983D01*
X141124665Y-81749986D01*
X141125334Y-80983378D01*
X140832584Y-80274868D01*
X140290983Y-79732322D01*
X139582986Y-79438335D01*
X138816378Y-79437666D01*
X138107868Y-79730416D01*
X137565322Y-80272017D01*
X137334014Y-80829066D01*
X135725079Y-82438001D01*
X128296920Y-82438001D01*
X128368862Y-82366184D01*
X128624708Y-81750039D01*
X128625290Y-81082888D01*
X128370520Y-80466297D01*
X127899184Y-79994138D01*
X127283039Y-79738292D01*
X126615888Y-79737710D01*
X125999297Y-79992480D01*
X125527138Y-80463816D01*
X125271292Y-81079961D01*
X125270710Y-81747112D01*
X125525480Y-82363703D01*
X125599648Y-82438001D01*
X121670921Y-82438001D01*
X120147960Y-80915040D01*
X119597414Y-80547176D01*
X118948000Y-80418000D01*
X115748000Y-80418000D01*
X115689507Y-80429635D01*
X114498000Y-80429635D01*
X114339763Y-80459409D01*
X114194433Y-80552927D01*
X114096936Y-80695619D01*
X114062635Y-80865000D01*
X114062635Y-82056507D01*
X114051000Y-82115000D01*
X111500000Y-82115000D01*
X111500000Y-78585000D01*
X145732635Y-78585000D01*
X145732635Y-80285000D01*
X145762409Y-80443237D01*
X145855927Y-80588567D01*
X145998619Y-80686064D01*
X146168000Y-80720365D01*
X147868000Y-80720365D01*
X148026237Y-80690591D01*
X148171567Y-80597073D01*
X148269064Y-80454381D01*
X148303365Y-80285000D01*
X148303365Y-79572454D01*
X148378206Y-79948705D01*
X148655025Y-80362993D01*
X149069313Y-80639812D01*
X149558000Y-80737018D01*
X150046687Y-80639812D01*
X150460975Y-80362993D01*
X150733309Y-79955417D01*
X150902817Y-80316358D01*
X151331076Y-80706645D01*
X151741110Y-80876476D01*
X151971000Y-80755155D01*
X151971000Y-79562000D01*
X152225000Y-79562000D01*
X152225000Y-80755155D01*
X152454890Y-80876476D01*
X152864924Y-80706645D01*
X153293183Y-80316358D01*
X153539486Y-79791892D01*
X153418819Y-79562000D01*
X152225000Y-79562000D01*
X151971000Y-79562000D01*
X151951000Y-79562000D01*
X151951000Y-79308000D01*
X151971000Y-79308000D01*
X151971000Y-78114845D01*
X152225000Y-78114845D01*
X152225000Y-79308000D01*
X153418819Y-79308000D01*
X153539486Y-79078108D01*
X153293183Y-78553642D01*
X152864924Y-78163355D01*
X152454890Y-77993524D01*
X152225000Y-78114845D01*
X151971000Y-78114845D01*
X151741110Y-77993524D01*
X151331076Y-78163355D01*
X150902817Y-78553642D01*
X150733309Y-78914583D01*
X150460975Y-78507007D01*
X150046687Y-78230188D01*
X149558000Y-78132982D01*
X149069313Y-78230188D01*
X148655025Y-78507007D01*
X148378206Y-78921295D01*
X148303365Y-79297546D01*
X148303365Y-78585000D01*
X148273591Y-78426763D01*
X148180073Y-78281433D01*
X148037381Y-78183936D01*
X147868000Y-78149635D01*
X146168000Y-78149635D01*
X146009763Y-78179409D01*
X145864433Y-78272927D01*
X145766936Y-78415619D01*
X145732635Y-78585000D01*
X111500000Y-78585000D01*
X111500000Y-73527000D01*
X124798969Y-73527000D01*
X124154577Y-74170270D01*
M02*
