G04 #@! TF.FileFunction,Copper,L1,Top,Signal*
%FSLAX46Y46*%
G04 Gerber Fmt 4.6, Leading zero omitted, Abs format (unit mm)*
G04 Created by KiCad (PCBNEW 4.0.7) date 09/29/18 17:05:15*
%MOMM*%
%LPD*%
G01*
G04 APERTURE LIST*
%ADD10C,0.100000*%
%ADD11O,1.727200X2.032000*%
%ADD12C,4.064000*%
%ADD13R,0.900000X1.200000*%
%ADD14R,1.000000X1.200000*%
%ADD15C,2.500000*%
%ADD16R,2.500000X2.500000*%
%ADD17R,1.000000X0.900000*%
%ADD18R,1.000000X1.250000*%
%ADD19C,3.000000*%
%ADD20R,1.700000X1.700000*%
%ADD21O,1.700000X1.700000*%
%ADD22C,0.600000*%
%ADD23C,0.400000*%
%ADD24C,1.000000*%
%ADD25C,0.635000*%
%ADD26C,2.540000*%
%ADD27C,1.270000*%
%ADD28C,0.762000*%
%ADD29C,0.406400*%
%ADD30C,0.304800*%
%ADD31C,0.254000*%
G04 APERTURE END LIST*
D10*
D11*
X138938000Y-123825000D03*
X141478000Y-123825000D03*
X144018000Y-123825000D03*
X146558000Y-123825000D03*
X149098000Y-123825000D03*
X151638000Y-123825000D03*
X154178000Y-123825000D03*
X156718000Y-123825000D03*
X161798000Y-123825000D03*
X164338000Y-123825000D03*
X166878000Y-123825000D03*
X169418000Y-123825000D03*
X171958000Y-123825000D03*
X174498000Y-123825000D03*
X129794000Y-75565000D03*
X132334000Y-75565000D03*
X134874000Y-75565000D03*
X137414000Y-75565000D03*
X139954000Y-75565000D03*
X142494000Y-75565000D03*
X145034000Y-75565000D03*
X147574000Y-75565000D03*
X150114000Y-75565000D03*
X152654000Y-75565000D03*
X156718000Y-75565000D03*
X159258000Y-75565000D03*
X161798000Y-75565000D03*
X164338000Y-75565000D03*
X166878000Y-75565000D03*
X169418000Y-75565000D03*
X171958000Y-75565000D03*
X174498000Y-75565000D03*
D12*
X124968000Y-123825000D03*
X177038000Y-118745000D03*
X126238000Y-75565000D03*
X177038000Y-90805000D03*
D13*
X157948000Y-93615000D03*
X161248000Y-93615000D03*
D14*
X173748000Y-87865000D03*
X171748000Y-87865000D03*
D13*
X130298000Y-98615000D03*
X126998000Y-98615000D03*
D14*
X173748000Y-84115000D03*
X171748000Y-84115000D03*
D13*
X140748000Y-101865000D03*
X144048000Y-101865000D03*
D14*
X173748000Y-80615000D03*
X171748000Y-80615000D03*
D15*
X174748000Y-99865000D03*
D16*
X174748000Y-109865000D03*
D15*
X174748000Y-104865000D03*
X115748000Y-92115000D03*
D16*
X115748000Y-82115000D03*
D15*
X115748000Y-87115000D03*
X115748000Y-117115000D03*
D16*
X115748000Y-107115000D03*
D15*
X115748000Y-112115000D03*
D17*
X163948000Y-92465000D03*
X163948000Y-94365000D03*
X165948000Y-93415000D03*
X122748000Y-100365000D03*
X122748000Y-98465000D03*
X120748000Y-99415000D03*
X137248000Y-100315000D03*
X137248000Y-98415000D03*
X135248000Y-99365000D03*
D18*
X169473000Y-87865000D03*
X167273000Y-87865000D03*
X160948000Y-90115000D03*
X158748000Y-90115000D03*
X169448000Y-84115000D03*
X167248000Y-84115000D03*
X126748000Y-102115000D03*
X128948000Y-102115000D03*
X169448000Y-80615000D03*
X167248000Y-80615000D03*
X141998000Y-98115000D03*
X144198000Y-98115000D03*
D15*
X163998000Y-98815000D03*
D19*
X151798000Y-98815000D03*
X151748000Y-110865000D03*
D15*
X163998000Y-110815000D03*
D19*
X165948000Y-104865000D03*
D15*
X126948000Y-93415000D03*
D19*
X139148000Y-93415000D03*
X139198000Y-81365000D03*
D15*
X126948000Y-81415000D03*
D19*
X124998000Y-87365000D03*
D15*
X126948000Y-118415000D03*
D19*
X139148000Y-118415000D03*
X139198000Y-106365000D03*
D15*
X126948000Y-106415000D03*
D19*
X124998000Y-112365000D03*
D20*
X153758000Y-114955000D03*
D21*
X153758000Y-117495000D03*
X153758000Y-120035000D03*
D20*
X158098000Y-114965000D03*
D21*
X158098000Y-117505000D03*
X158098000Y-120045000D03*
D20*
X147018000Y-79435000D03*
D21*
X149558000Y-79435000D03*
X152098000Y-79435000D03*
D20*
X163848000Y-116685000D03*
D21*
X166388000Y-116685000D03*
X168928000Y-116685000D03*
X171468000Y-116685000D03*
D22*
X130598000Y-121790000D03*
X162598000Y-94390000D03*
X138473000Y-98415000D03*
X124023000Y-98490000D03*
D23*
X167073000Y-93390000D03*
X170823000Y-89115000D03*
X126998000Y-100015000D03*
X170748000Y-85365000D03*
D24*
X142398000Y-108740000D03*
X142398000Y-113465000D03*
D23*
X145273000Y-101790000D03*
X170848000Y-81590000D03*
X159773000Y-90165000D03*
X130098000Y-102090000D03*
X145173000Y-98115000D03*
D25*
X147018000Y-79435000D02*
X145533000Y-79435000D01*
X145533000Y-79435000D02*
X144413000Y-78315000D01*
X144413000Y-78315000D02*
X130048000Y-78315000D01*
X130048000Y-78315000D02*
X126948000Y-81415000D01*
X153758000Y-117495000D02*
X150348000Y-117495000D01*
X150348000Y-117495000D02*
X149678000Y-118165000D01*
X149678000Y-118165000D02*
X149098000Y-118165000D01*
X158098000Y-117505000D02*
X153768000Y-117505000D01*
X153768000Y-117505000D02*
X153758000Y-117495000D01*
D26*
X149398000Y-106605000D02*
X153908000Y-106605000D01*
X153908000Y-106605000D02*
X159788000Y-106605000D01*
D27*
X157948000Y-95485000D02*
X157948000Y-102565000D01*
X157948000Y-102565000D02*
X153908000Y-106605000D01*
D26*
X145878000Y-113285000D02*
X145878000Y-110125000D01*
X145878000Y-110125000D02*
X149398000Y-106605000D01*
X159788000Y-106605000D02*
X163998000Y-110815000D01*
X149098000Y-123825000D02*
X149098000Y-118165000D01*
X143683000Y-111090000D02*
X131623000Y-111090000D01*
X149098000Y-118165000D02*
X145878000Y-114945000D01*
X145878000Y-114945000D02*
X145878000Y-113285000D01*
X145878000Y-113285000D02*
X143683000Y-111090000D01*
X131623000Y-111090000D02*
X126948000Y-106415000D01*
D28*
X140748000Y-101865000D02*
X139748000Y-101865000D01*
X139423000Y-102190000D02*
X132940766Y-102190000D01*
X139748000Y-101865000D02*
X139423000Y-102190000D01*
X132940766Y-102190000D02*
X132473000Y-102657766D01*
X132473000Y-102657766D02*
X132473000Y-100090000D01*
X130998000Y-98615000D02*
X130298000Y-98615000D01*
X132473000Y-100090000D02*
X130998000Y-98615000D01*
X126948000Y-106415000D02*
X128715766Y-106415000D01*
X128715766Y-106415000D02*
X132473000Y-102657766D01*
D26*
X125698001Y-105165001D02*
X119423001Y-105165001D01*
X126948000Y-106415000D02*
X125698001Y-105165001D01*
D27*
X157948000Y-95485000D02*
X157948000Y-93615000D01*
X167273000Y-87865000D02*
X158098000Y-87865000D01*
X158098000Y-87865000D02*
X156973000Y-88990000D01*
X156973000Y-88990000D02*
X156973000Y-91640000D01*
X156973000Y-91640000D02*
X157948000Y-92615000D01*
X157948000Y-92615000D02*
X157948000Y-93615000D01*
D26*
X119423001Y-105165001D02*
X117598000Y-103340000D01*
X117598000Y-103340000D02*
X117598000Y-96815000D01*
X117598000Y-96815000D02*
X120273000Y-94140000D01*
X120273000Y-94140000D02*
X120273000Y-84140000D01*
X120273000Y-84140000D02*
X122998000Y-81415000D01*
X122998000Y-81415000D02*
X126948000Y-81415000D01*
D29*
X167248000Y-84115000D02*
X167248000Y-87840000D01*
X167248000Y-87840000D02*
X167273000Y-87865000D01*
X167248000Y-80615000D02*
X167248000Y-84115000D01*
D30*
X134198000Y-125390000D02*
X130598000Y-121790000D01*
X148368566Y-125390000D02*
X134198000Y-125390000D01*
X151638000Y-123825000D02*
X151638000Y-123977400D01*
X151638000Y-123977400D02*
X150167990Y-125447410D01*
X150167990Y-125447410D02*
X148425976Y-125447410D01*
X148425976Y-125447410D02*
X148368566Y-125390000D01*
X163948000Y-94365000D02*
X162623000Y-94365000D01*
X162623000Y-94365000D02*
X162598000Y-94390000D01*
X137248000Y-98415000D02*
X138473000Y-98415000D01*
X122748000Y-98465000D02*
X123998000Y-98465000D01*
X123998000Y-98465000D02*
X124023000Y-98490000D01*
D28*
X163998000Y-98815000D02*
X165948000Y-96865000D01*
X165948000Y-96865000D02*
X165948000Y-93415000D01*
D30*
X165948000Y-93415000D02*
X167048000Y-93415000D01*
X167048000Y-93415000D02*
X167073000Y-93390000D01*
X173748000Y-87865000D02*
X173748000Y-87965000D01*
X173748000Y-87965000D02*
X172598000Y-89115000D01*
X172598000Y-89115000D02*
X170823000Y-89115000D01*
D29*
X161248000Y-93615000D02*
X163148000Y-93615000D01*
X165041600Y-93415000D02*
X165948000Y-93415000D01*
X163148000Y-93615000D02*
X163348000Y-93415000D01*
X163348000Y-93415000D02*
X165041600Y-93415000D01*
D30*
X171748000Y-87865000D02*
X169473000Y-87865000D01*
D28*
X126948000Y-93415000D02*
X124823000Y-93415000D01*
X124823000Y-93415000D02*
X120748000Y-97490000D01*
X120748000Y-97490000D02*
X120748000Y-98203000D01*
X120748000Y-98203000D02*
X120748000Y-99415000D01*
D30*
X126998000Y-100015000D02*
X126998000Y-98615000D01*
X173748000Y-84115000D02*
X173748000Y-84215000D01*
X173748000Y-84215000D02*
X172598000Y-85365000D01*
X172598000Y-85365000D02*
X172498000Y-85365000D01*
X172498000Y-85365000D02*
X170748000Y-85365000D01*
D29*
X124373000Y-99415000D02*
X125173000Y-98615000D01*
X125173000Y-98615000D02*
X126998000Y-98615000D01*
X120748000Y-99415000D02*
X124373000Y-99415000D01*
D30*
X169448000Y-84115000D02*
X171748000Y-84115000D01*
D28*
X142398000Y-108740000D02*
X142398000Y-102303000D01*
X142398000Y-102303000D02*
X142836000Y-101865000D01*
X142836000Y-101865000D02*
X144048000Y-101865000D01*
X131898000Y-113465000D02*
X142398000Y-113465000D01*
X128197999Y-117165001D02*
X131898000Y-113465000D01*
X126948000Y-118415000D02*
X128197999Y-117165001D01*
D30*
X145273000Y-101790000D02*
X144123000Y-101790000D01*
X144123000Y-101790000D02*
X144048000Y-101865000D01*
X173748000Y-80615000D02*
X173748000Y-80715000D01*
X173748000Y-80715000D02*
X172873000Y-81590000D01*
X172873000Y-81590000D02*
X170848000Y-81590000D01*
D29*
X138880594Y-101290000D02*
X136316600Y-101290000D01*
X136316600Y-101290000D02*
X135248000Y-100221400D01*
X139311994Y-100858600D02*
X138880594Y-101290000D01*
X142185200Y-100858600D02*
X139311994Y-100858600D01*
X143191600Y-101865000D02*
X142185200Y-100858600D01*
X144048000Y-101865000D02*
X143191600Y-101865000D01*
X135248000Y-100221400D02*
X135248000Y-99365000D01*
D30*
X171748000Y-80615000D02*
X169448000Y-80615000D01*
D29*
X160948000Y-90115000D02*
X162348000Y-90115000D01*
X162348000Y-90115000D02*
X163948000Y-91715000D01*
X163948000Y-91715000D02*
X163948000Y-92465000D01*
X126748000Y-102115000D02*
X126748000Y-101990000D01*
X126748000Y-101990000D02*
X125123000Y-100365000D01*
X125123000Y-100365000D02*
X122748000Y-100365000D01*
X141998000Y-98115000D02*
X141998000Y-99540000D01*
X141998000Y-99540000D02*
X141448000Y-100090000D01*
X141448000Y-100090000D02*
X139223000Y-100090000D01*
X139223000Y-100090000D02*
X138998000Y-100315000D01*
X138998000Y-100315000D02*
X137248000Y-100315000D01*
D25*
X149558000Y-79435000D02*
X149558000Y-78232919D01*
X149558000Y-78232919D02*
X150275919Y-77515000D01*
X150275919Y-77515000D02*
X153269400Y-77515000D01*
X153269400Y-77515000D02*
X155219400Y-75565000D01*
X155219400Y-75565000D02*
X156718000Y-75565000D01*
D30*
X173498000Y-77815000D02*
X161355600Y-77815000D01*
X161355600Y-77815000D02*
X159258000Y-75717400D01*
X159258000Y-75717400D02*
X159258000Y-75565000D01*
X176048000Y-80365000D02*
X173498000Y-77815000D01*
X176048000Y-87299322D02*
X176048000Y-80365000D01*
X173823000Y-89524322D02*
X176048000Y-87299322D01*
X173823000Y-91832824D02*
X173823000Y-89524322D01*
X178198000Y-105943446D02*
X178198000Y-96207824D01*
X178198000Y-96207824D02*
X173823000Y-91832824D01*
X178248000Y-109499322D02*
X178248000Y-105993446D01*
X178248000Y-105993446D02*
X178198000Y-105943446D01*
X174682322Y-113065000D02*
X178248000Y-109499322D01*
X161152800Y-113065000D02*
X174682322Y-113065000D01*
X158098000Y-114965000D02*
X159252800Y-114965000D01*
X159252800Y-114965000D02*
X161152800Y-113065000D01*
X156197800Y-116240000D02*
X154912800Y-114955000D01*
X154912800Y-114955000D02*
X153758000Y-114955000D01*
X159795599Y-116240000D02*
X156197800Y-116240000D01*
X175339311Y-113762599D02*
X162273000Y-113762599D01*
X178752811Y-96048725D02*
X178752811Y-110349099D01*
X161798000Y-75717400D02*
X163315790Y-77235190D01*
X178752811Y-110349099D02*
X175339311Y-113762599D01*
X162273000Y-113762599D02*
X159795599Y-116240000D01*
X176552811Y-79930901D02*
X176552811Y-87508421D01*
X174653599Y-89407633D02*
X174653599Y-91949513D01*
X176552811Y-87508421D02*
X174653599Y-89407633D01*
X173857100Y-77235190D02*
X176552811Y-79930901D01*
X174653599Y-91949513D02*
X178752811Y-96048725D01*
X163315790Y-77235190D02*
X173857100Y-77235190D01*
X161798000Y-75565000D02*
X161798000Y-75717400D01*
X159723000Y-90115000D02*
X159773000Y-90165000D01*
X158748000Y-90115000D02*
X159723000Y-90115000D01*
X130098000Y-102090000D02*
X128973000Y-102090000D01*
X128973000Y-102090000D02*
X128948000Y-102115000D01*
X144198000Y-98115000D02*
X145173000Y-98115000D01*
D31*
G36*
X124154577Y-74170270D02*
X123779427Y-75073729D01*
X123778574Y-76051980D01*
X124152145Y-76956092D01*
X124843270Y-77648423D01*
X125746729Y-78023573D01*
X126724980Y-78024426D01*
X127629092Y-77650855D01*
X128321423Y-76959730D01*
X128613250Y-76256935D01*
X128881408Y-76658262D01*
X129300109Y-76938029D01*
X129794000Y-77036270D01*
X130287891Y-76938029D01*
X130706592Y-76658262D01*
X130986359Y-76239561D01*
X131064000Y-75849233D01*
X131141641Y-76239561D01*
X131421408Y-76658262D01*
X131840109Y-76938029D01*
X132334000Y-77036270D01*
X132827891Y-76938029D01*
X133246592Y-76658262D01*
X133526359Y-76239561D01*
X133604000Y-75849233D01*
X133681641Y-76239561D01*
X133961408Y-76658262D01*
X134380109Y-76938029D01*
X134874000Y-77036270D01*
X135367891Y-76938029D01*
X135786592Y-76658262D01*
X136066359Y-76239561D01*
X136145467Y-75841857D01*
X136230443Y-76232540D01*
X136517671Y-76646255D01*
X136941357Y-76918560D01*
X137189421Y-76988310D01*
X137391000Y-76901027D01*
X137391000Y-75588000D01*
X137371000Y-75588000D01*
X137371000Y-75542000D01*
X137391000Y-75542000D01*
X137391000Y-74228973D01*
X137189421Y-74141690D01*
X136941357Y-74211440D01*
X136517671Y-74483745D01*
X136230443Y-74897460D01*
X136145467Y-75288143D01*
X136066359Y-74890439D01*
X135786592Y-74471738D01*
X135367891Y-74191971D01*
X134874000Y-74093730D01*
X134380109Y-74191971D01*
X133961408Y-74471738D01*
X133681641Y-74890439D01*
X133604000Y-75280767D01*
X133526359Y-74890439D01*
X133246592Y-74471738D01*
X132827891Y-74191971D01*
X132334000Y-74093730D01*
X131840109Y-74191971D01*
X131421408Y-74471738D01*
X131141641Y-74890439D01*
X131064000Y-75280767D01*
X130986359Y-74890439D01*
X130706592Y-74471738D01*
X130287891Y-74191971D01*
X129794000Y-74093730D01*
X129300109Y-74191971D01*
X128881408Y-74471738D01*
X128612935Y-74873536D01*
X128323855Y-74173908D01*
X127678074Y-73527000D01*
X175306064Y-73527000D01*
X176536000Y-74756935D01*
X176536000Y-79094694D01*
X174472505Y-77031199D01*
X174498000Y-77036270D01*
X174991891Y-76938029D01*
X175410592Y-76658262D01*
X175690359Y-76239561D01*
X175788600Y-75745670D01*
X175788600Y-75384330D01*
X175690359Y-74890439D01*
X175410592Y-74471738D01*
X174991891Y-74191971D01*
X174498000Y-74093730D01*
X174004109Y-74191971D01*
X173585408Y-74471738D01*
X173305641Y-74890439D01*
X173228000Y-75280767D01*
X173150359Y-74890439D01*
X172870592Y-74471738D01*
X172451891Y-74191971D01*
X171958000Y-74093730D01*
X171464109Y-74191971D01*
X171045408Y-74471738D01*
X170765641Y-74890439D01*
X170688000Y-75280767D01*
X170610359Y-74890439D01*
X170330592Y-74471738D01*
X169911891Y-74191971D01*
X169418000Y-74093730D01*
X168924109Y-74191971D01*
X168505408Y-74471738D01*
X168225641Y-74890439D01*
X168148000Y-75280767D01*
X168070359Y-74890439D01*
X167790592Y-74471738D01*
X167371891Y-74191971D01*
X166878000Y-74093730D01*
X166384109Y-74191971D01*
X165965408Y-74471738D01*
X165685641Y-74890439D01*
X165608000Y-75280767D01*
X165530359Y-74890439D01*
X165250592Y-74471738D01*
X164831891Y-74191971D01*
X164338000Y-74093730D01*
X163844109Y-74191971D01*
X163425408Y-74471738D01*
X163145641Y-74890439D01*
X163068000Y-75280767D01*
X162990359Y-74890439D01*
X162710592Y-74471738D01*
X162291891Y-74191971D01*
X161798000Y-74093730D01*
X161304109Y-74191971D01*
X160885408Y-74471738D01*
X160605641Y-74890439D01*
X160528000Y-75280767D01*
X160450359Y-74890439D01*
X160170592Y-74471738D01*
X159751891Y-74191971D01*
X159258000Y-74093730D01*
X158764109Y-74191971D01*
X158345408Y-74471738D01*
X158065641Y-74890439D01*
X157988000Y-75280767D01*
X157910359Y-74890439D01*
X157630592Y-74471738D01*
X157211891Y-74191971D01*
X156718000Y-74093730D01*
X156224109Y-74191971D01*
X155805408Y-74471738D01*
X155572373Y-74820500D01*
X155219400Y-74820500D01*
X154934492Y-74877172D01*
X154692959Y-75038559D01*
X153934358Y-75797160D01*
X153944600Y-75745670D01*
X153944600Y-75384330D01*
X153846359Y-74890439D01*
X153566592Y-74471738D01*
X153147891Y-74191971D01*
X152654000Y-74093730D01*
X152160109Y-74191971D01*
X151741408Y-74471738D01*
X151461641Y-74890439D01*
X151384000Y-75280767D01*
X151306359Y-74890439D01*
X151026592Y-74471738D01*
X150607891Y-74191971D01*
X150114000Y-74093730D01*
X149620109Y-74191971D01*
X149201408Y-74471738D01*
X148921641Y-74890439D01*
X148844000Y-75280767D01*
X148766359Y-74890439D01*
X148486592Y-74471738D01*
X148067891Y-74191971D01*
X147574000Y-74093730D01*
X147080109Y-74191971D01*
X146661408Y-74471738D01*
X146381641Y-74890439D01*
X146304000Y-75280767D01*
X146226359Y-74890439D01*
X145946592Y-74471738D01*
X145527891Y-74191971D01*
X145034000Y-74093730D01*
X144540109Y-74191971D01*
X144121408Y-74471738D01*
X143841641Y-74890439D01*
X143764000Y-75280767D01*
X143686359Y-74890439D01*
X143406592Y-74471738D01*
X142987891Y-74191971D01*
X142494000Y-74093730D01*
X142000109Y-74191971D01*
X141581408Y-74471738D01*
X141301641Y-74890439D01*
X141224000Y-75280767D01*
X141146359Y-74890439D01*
X140866592Y-74471738D01*
X140447891Y-74191971D01*
X139954000Y-74093730D01*
X139460109Y-74191971D01*
X139041408Y-74471738D01*
X138761641Y-74890439D01*
X138682533Y-75288143D01*
X138597557Y-74897460D01*
X138310329Y-74483745D01*
X137886643Y-74211440D01*
X137638579Y-74141690D01*
X137437000Y-74228973D01*
X137437000Y-75542000D01*
X137457000Y-75542000D01*
X137457000Y-75588000D01*
X137437000Y-75588000D01*
X137437000Y-76901027D01*
X137638579Y-76988310D01*
X137886643Y-76918560D01*
X138310329Y-76646255D01*
X138597557Y-76232540D01*
X138682533Y-75841857D01*
X138761641Y-76239561D01*
X139041408Y-76658262D01*
X139460109Y-76938029D01*
X139954000Y-77036270D01*
X140447891Y-76938029D01*
X140866592Y-76658262D01*
X141146359Y-76239561D01*
X141224000Y-75849233D01*
X141301641Y-76239561D01*
X141581408Y-76658262D01*
X142000109Y-76938029D01*
X142494000Y-77036270D01*
X142987891Y-76938029D01*
X143406592Y-76658262D01*
X143686359Y-76239561D01*
X143764000Y-75849233D01*
X143841641Y-76239561D01*
X144121408Y-76658262D01*
X144540109Y-76938029D01*
X145034000Y-77036270D01*
X145527891Y-76938029D01*
X145946592Y-76658262D01*
X146226359Y-76239561D01*
X146304000Y-75849233D01*
X146381641Y-76239561D01*
X146661408Y-76658262D01*
X147080109Y-76938029D01*
X147574000Y-77036270D01*
X148067891Y-76938029D01*
X148486592Y-76658262D01*
X148766359Y-76239561D01*
X148844000Y-75849233D01*
X148921641Y-76239561D01*
X149201408Y-76658262D01*
X149620109Y-76938029D01*
X149778076Y-76969451D01*
X149749478Y-76988559D01*
X149031559Y-77706478D01*
X148870172Y-77948011D01*
X148813500Y-78232919D01*
X148813500Y-78401117D01*
X148655025Y-78507007D01*
X148378206Y-78921295D01*
X148303365Y-79297546D01*
X148303365Y-78585000D01*
X148273591Y-78426763D01*
X148180073Y-78281433D01*
X148037381Y-78183936D01*
X147868000Y-78149635D01*
X146168000Y-78149635D01*
X146009763Y-78179409D01*
X145864433Y-78272927D01*
X145766936Y-78415619D01*
X145733182Y-78582300D01*
X144939441Y-77788559D01*
X144912393Y-77770486D01*
X144697908Y-77627172D01*
X144413000Y-77570500D01*
X130048000Y-77570500D01*
X129763092Y-77627172D01*
X129548607Y-77770486D01*
X129521559Y-77788559D01*
X127487095Y-79823023D01*
X127283039Y-79738292D01*
X127048989Y-79738088D01*
X126948000Y-79718000D01*
X122998000Y-79718000D01*
X122348586Y-79847176D01*
X121798040Y-80215040D01*
X119073040Y-82940040D01*
X118705176Y-83490586D01*
X118576000Y-84140000D01*
X118576000Y-93437080D01*
X116398040Y-95615040D01*
X116030176Y-96165586D01*
X115901000Y-96815000D01*
X115901000Y-103340000D01*
X116030176Y-103989414D01*
X116398040Y-104539960D01*
X118223041Y-106364961D01*
X118773587Y-106732825D01*
X119423001Y-106862001D01*
X124995081Y-106862001D01*
X125748040Y-107614961D01*
X125748043Y-107614963D01*
X130423040Y-112289960D01*
X130973586Y-112657824D01*
X131517645Y-112766044D01*
X131326658Y-112893657D01*
X127626660Y-116593656D01*
X127626657Y-116593658D01*
X127423640Y-116796675D01*
X127283039Y-116738292D01*
X126615888Y-116737710D01*
X125999297Y-116992480D01*
X125527138Y-117463816D01*
X125271292Y-118079961D01*
X125270710Y-118747112D01*
X125525480Y-119363703D01*
X125996816Y-119835862D01*
X126612961Y-120091708D01*
X127280112Y-120092290D01*
X127896703Y-119837520D01*
X128368862Y-119366184D01*
X128605365Y-118796622D01*
X137220666Y-118796622D01*
X137513416Y-119505132D01*
X138055017Y-120047678D01*
X138763014Y-120341665D01*
X139529622Y-120342334D01*
X140238132Y-120049584D01*
X140780678Y-119507983D01*
X141074665Y-118799986D01*
X141075334Y-118033378D01*
X140782584Y-117324868D01*
X140240983Y-116782322D01*
X139532986Y-116488335D01*
X138766378Y-116487666D01*
X138057868Y-116780416D01*
X137515322Y-117322017D01*
X137221335Y-118030014D01*
X137220666Y-118796622D01*
X128605365Y-118796622D01*
X128624708Y-118750039D01*
X128625290Y-118082888D01*
X128566085Y-117939600D01*
X128769342Y-117736343D01*
X128769344Y-117736340D01*
X132232685Y-114273000D01*
X141926604Y-114273000D01*
X142212799Y-114391839D01*
X142581583Y-114392161D01*
X142922417Y-114251331D01*
X143183414Y-113990789D01*
X143324839Y-113650201D01*
X143325161Y-113281417D01*
X143220008Y-113026928D01*
X144181000Y-113987920D01*
X144181000Y-114945000D01*
X144310176Y-115594414D01*
X144678040Y-116144960D01*
X147401000Y-118867920D01*
X147401000Y-122685238D01*
X147051891Y-122451971D01*
X146558000Y-122353730D01*
X146064109Y-122451971D01*
X145645408Y-122731738D01*
X145365641Y-123150439D01*
X145288000Y-123540767D01*
X145210359Y-123150439D01*
X144930592Y-122731738D01*
X144511891Y-122451971D01*
X144018000Y-122353730D01*
X143524109Y-122451971D01*
X143105408Y-122731738D01*
X142825641Y-123150439D01*
X142748000Y-123540767D01*
X142670359Y-123150439D01*
X142390592Y-122731738D01*
X141971891Y-122451971D01*
X141478000Y-122353730D01*
X140984109Y-122451971D01*
X140565408Y-122731738D01*
X140285641Y-123150439D01*
X140208000Y-123540767D01*
X140130359Y-123150439D01*
X139850592Y-122731738D01*
X139431891Y-122451971D01*
X138938000Y-122353730D01*
X138444109Y-122451971D01*
X138025408Y-122731738D01*
X137745641Y-123150439D01*
X137647400Y-123644330D01*
X137647400Y-124005670D01*
X137745641Y-124499561D01*
X138025408Y-124918262D01*
X138444109Y-125198029D01*
X138938000Y-125296270D01*
X139431891Y-125198029D01*
X139850592Y-124918262D01*
X140130359Y-124499561D01*
X140208000Y-124109233D01*
X140285641Y-124499561D01*
X140565408Y-124918262D01*
X140984109Y-125198029D01*
X141478000Y-125296270D01*
X141971891Y-125198029D01*
X142390592Y-124918262D01*
X142670359Y-124499561D01*
X142748000Y-124109233D01*
X142825641Y-124499561D01*
X143105408Y-124918262D01*
X143524109Y-125198029D01*
X144018000Y-125296270D01*
X144511891Y-125198029D01*
X144930592Y-124918262D01*
X145210359Y-124499561D01*
X145288000Y-124109233D01*
X145365641Y-124499561D01*
X145645408Y-124918262D01*
X146064109Y-125198029D01*
X146558000Y-125296270D01*
X147051891Y-125198029D01*
X147470592Y-124918262D01*
X147648669Y-124651751D01*
X147898040Y-125024960D01*
X148448586Y-125392824D01*
X149098000Y-125522000D01*
X149747414Y-125392824D01*
X150297960Y-125024960D01*
X150555985Y-124638799D01*
X150741671Y-124906255D01*
X151165357Y-125178560D01*
X151413421Y-125248310D01*
X151615000Y-125161027D01*
X151615000Y-123848000D01*
X151661000Y-123848000D01*
X151661000Y-125161027D01*
X151862579Y-125248310D01*
X152110643Y-125178560D01*
X152534329Y-124906255D01*
X152821557Y-124492540D01*
X152908000Y-124095110D01*
X152994443Y-124492540D01*
X153281671Y-124906255D01*
X153705357Y-125178560D01*
X153953421Y-125248310D01*
X154155000Y-125161027D01*
X154155000Y-123848000D01*
X151661000Y-123848000D01*
X151615000Y-123848000D01*
X151595000Y-123848000D01*
X151595000Y-123802000D01*
X151615000Y-123802000D01*
X151615000Y-122488973D01*
X151661000Y-122488973D01*
X151661000Y-123802000D01*
X154155000Y-123802000D01*
X154155000Y-122488973D01*
X154201000Y-122488973D01*
X154201000Y-123802000D01*
X154221000Y-123802000D01*
X154221000Y-123848000D01*
X154201000Y-123848000D01*
X154201000Y-125161027D01*
X154402579Y-125248310D01*
X154650643Y-125178560D01*
X155074329Y-124906255D01*
X155361557Y-124492540D01*
X155446533Y-124101857D01*
X155525641Y-124499561D01*
X155805408Y-124918262D01*
X156224109Y-125198029D01*
X156718000Y-125296270D01*
X157211891Y-125198029D01*
X157630592Y-124918262D01*
X157910359Y-124499561D01*
X158008600Y-124005670D01*
X158008600Y-123644330D01*
X160507400Y-123644330D01*
X160507400Y-124005670D01*
X160605641Y-124499561D01*
X160885408Y-124918262D01*
X161304109Y-125198029D01*
X161798000Y-125296270D01*
X162291891Y-125198029D01*
X162710592Y-124918262D01*
X162990359Y-124499561D01*
X163068000Y-124109233D01*
X163145641Y-124499561D01*
X163425408Y-124918262D01*
X163844109Y-125198029D01*
X164338000Y-125296270D01*
X164831891Y-125198029D01*
X165250592Y-124918262D01*
X165530359Y-124499561D01*
X165608000Y-124109233D01*
X165685641Y-124499561D01*
X165965408Y-124918262D01*
X166384109Y-125198029D01*
X166878000Y-125296270D01*
X167371891Y-125198029D01*
X167790592Y-124918262D01*
X168070359Y-124499561D01*
X168148000Y-124109233D01*
X168225641Y-124499561D01*
X168505408Y-124918262D01*
X168924109Y-125198029D01*
X169418000Y-125296270D01*
X169911891Y-125198029D01*
X170330592Y-124918262D01*
X170610359Y-124499561D01*
X170688000Y-124109233D01*
X170765641Y-124499561D01*
X171045408Y-124918262D01*
X171464109Y-125198029D01*
X171958000Y-125296270D01*
X172451891Y-125198029D01*
X172870592Y-124918262D01*
X173150359Y-124499561D01*
X173228000Y-124109233D01*
X173305641Y-124499561D01*
X173585408Y-124918262D01*
X174004109Y-125198029D01*
X174498000Y-125296270D01*
X174991891Y-125198029D01*
X175410592Y-124918262D01*
X175690359Y-124499561D01*
X175788600Y-124005670D01*
X175788600Y-123644330D01*
X175690359Y-123150439D01*
X175410592Y-122731738D01*
X174991891Y-122451971D01*
X174498000Y-122353730D01*
X174004109Y-122451971D01*
X173585408Y-122731738D01*
X173305641Y-123150439D01*
X173228000Y-123540767D01*
X173150359Y-123150439D01*
X172870592Y-122731738D01*
X172451891Y-122451971D01*
X171958000Y-122353730D01*
X171464109Y-122451971D01*
X171045408Y-122731738D01*
X170765641Y-123150439D01*
X170688000Y-123540767D01*
X170610359Y-123150439D01*
X170330592Y-122731738D01*
X169911891Y-122451971D01*
X169418000Y-122353730D01*
X168924109Y-122451971D01*
X168505408Y-122731738D01*
X168225641Y-123150439D01*
X168148000Y-123540767D01*
X168070359Y-123150439D01*
X167790592Y-122731738D01*
X167371891Y-122451971D01*
X166878000Y-122353730D01*
X166384109Y-122451971D01*
X165965408Y-122731738D01*
X165685641Y-123150439D01*
X165608000Y-123540767D01*
X165530359Y-123150439D01*
X165250592Y-122731738D01*
X164831891Y-122451971D01*
X164338000Y-122353730D01*
X163844109Y-122451971D01*
X163425408Y-122731738D01*
X163145641Y-123150439D01*
X163068000Y-123540767D01*
X162990359Y-123150439D01*
X162710592Y-122731738D01*
X162291891Y-122451971D01*
X161798000Y-122353730D01*
X161304109Y-122451971D01*
X160885408Y-122731738D01*
X160605641Y-123150439D01*
X160507400Y-123644330D01*
X158008600Y-123644330D01*
X157910359Y-123150439D01*
X157630592Y-122731738D01*
X157211891Y-122451971D01*
X156718000Y-122353730D01*
X156224109Y-122451971D01*
X155805408Y-122731738D01*
X155525641Y-123150439D01*
X155446533Y-123548143D01*
X155361557Y-123157460D01*
X155074329Y-122743745D01*
X154650643Y-122471440D01*
X154402579Y-122401690D01*
X154201000Y-122488973D01*
X154155000Y-122488973D01*
X153953421Y-122401690D01*
X153705357Y-122471440D01*
X153281671Y-122743745D01*
X152994443Y-123157460D01*
X152908000Y-123554890D01*
X152821557Y-123157460D01*
X152534329Y-122743745D01*
X152110643Y-122471440D01*
X151862579Y-122401690D01*
X151661000Y-122488973D01*
X151615000Y-122488973D01*
X151413421Y-122401690D01*
X151165357Y-122471440D01*
X150795000Y-122709470D01*
X150795000Y-120257451D01*
X152500524Y-120257451D01*
X152511114Y-120310697D01*
X152711532Y-120766873D01*
X153071265Y-121111629D01*
X153535548Y-121292478D01*
X153735000Y-121205045D01*
X153735000Y-120058000D01*
X153781000Y-120058000D01*
X153781000Y-121205045D01*
X153980452Y-121292478D01*
X154444735Y-121111629D01*
X154804468Y-120766873D01*
X155004886Y-120310697D01*
X155013487Y-120267451D01*
X156840524Y-120267451D01*
X156851114Y-120320697D01*
X157051532Y-120776873D01*
X157411265Y-121121629D01*
X157875548Y-121302478D01*
X158075000Y-121215045D01*
X158075000Y-120068000D01*
X158121000Y-120068000D01*
X158121000Y-121215045D01*
X158320452Y-121302478D01*
X158784735Y-121121629D01*
X159144468Y-120776873D01*
X159344886Y-120320697D01*
X159355476Y-120267451D01*
X159268024Y-120068000D01*
X158121000Y-120068000D01*
X158075000Y-120068000D01*
X156927976Y-120068000D01*
X156840524Y-120267451D01*
X155013487Y-120267451D01*
X155015476Y-120257451D01*
X154928024Y-120058000D01*
X153781000Y-120058000D01*
X153735000Y-120058000D01*
X152587976Y-120058000D01*
X152500524Y-120257451D01*
X150795000Y-120257451D01*
X150795000Y-118239500D01*
X152724117Y-118239500D01*
X152830007Y-118397975D01*
X153244295Y-118674794D01*
X153732982Y-118772000D01*
X153734998Y-118772000D01*
X153734998Y-118864954D01*
X153535548Y-118777522D01*
X153071265Y-118958371D01*
X152711532Y-119303127D01*
X152511114Y-119759303D01*
X152500524Y-119812549D01*
X152587976Y-120012000D01*
X153735000Y-120012000D01*
X153735000Y-119992000D01*
X153781000Y-119992000D01*
X153781000Y-120012000D01*
X154928024Y-120012000D01*
X155015476Y-119812549D01*
X155004886Y-119759303D01*
X154804468Y-119303127D01*
X154444735Y-118958371D01*
X153980452Y-118777522D01*
X153781002Y-118864954D01*
X153781002Y-118772000D01*
X153783018Y-118772000D01*
X154271705Y-118674794D01*
X154685993Y-118397975D01*
X154785201Y-118249500D01*
X157064117Y-118249500D01*
X157170007Y-118407975D01*
X157584295Y-118684794D01*
X158072982Y-118782000D01*
X158074998Y-118782000D01*
X158074998Y-118874954D01*
X157875548Y-118787522D01*
X157411265Y-118968371D01*
X157051532Y-119313127D01*
X156851114Y-119769303D01*
X156840524Y-119822549D01*
X156927976Y-120022000D01*
X158075000Y-120022000D01*
X158075000Y-120002000D01*
X158121000Y-120002000D01*
X158121000Y-120022000D01*
X159268024Y-120022000D01*
X159355476Y-119822549D01*
X159344886Y-119769303D01*
X159144468Y-119313127D01*
X158784735Y-118968371D01*
X158320452Y-118787522D01*
X158121002Y-118874954D01*
X158121002Y-118782000D01*
X158123018Y-118782000D01*
X158611705Y-118684794D01*
X159025993Y-118407975D01*
X159302812Y-117993687D01*
X159400018Y-117505000D01*
X159302812Y-117016313D01*
X159171239Y-116819400D01*
X159795599Y-116819400D01*
X160017326Y-116775296D01*
X160205297Y-116649698D01*
X161019995Y-115835000D01*
X162562635Y-115835000D01*
X162562635Y-117535000D01*
X162592409Y-117693237D01*
X162685927Y-117838567D01*
X162828619Y-117936064D01*
X162998000Y-117970365D01*
X164698000Y-117970365D01*
X164856237Y-117940591D01*
X165001567Y-117847073D01*
X165099064Y-117704381D01*
X165133365Y-117535000D01*
X165133365Y-116822454D01*
X165208206Y-117198705D01*
X165485025Y-117612993D01*
X165899313Y-117889812D01*
X166388000Y-117987018D01*
X166876687Y-117889812D01*
X167290975Y-117612993D01*
X167567794Y-117198705D01*
X167658000Y-116745209D01*
X167748206Y-117198705D01*
X168025025Y-117612993D01*
X168439313Y-117889812D01*
X168928000Y-117987018D01*
X169416687Y-117889812D01*
X169830975Y-117612993D01*
X170107794Y-117198705D01*
X170205000Y-116710018D01*
X170205000Y-116708002D01*
X170297954Y-116708002D01*
X170210522Y-116907452D01*
X170391371Y-117371735D01*
X170736127Y-117731468D01*
X171192303Y-117931886D01*
X171245549Y-117942476D01*
X171445000Y-117855024D01*
X171445000Y-116708000D01*
X171491000Y-116708000D01*
X171491000Y-117855024D01*
X171690451Y-117942476D01*
X171743697Y-117931886D01*
X172199873Y-117731468D01*
X172544629Y-117371735D01*
X172725478Y-116907452D01*
X172638045Y-116708000D01*
X171491000Y-116708000D01*
X171445000Y-116708000D01*
X171425000Y-116708000D01*
X171425000Y-116662000D01*
X171445000Y-116662000D01*
X171445000Y-115514976D01*
X171491000Y-115514976D01*
X171491000Y-116662000D01*
X172638045Y-116662000D01*
X172725478Y-116462548D01*
X172544629Y-115998265D01*
X172199873Y-115638532D01*
X171743697Y-115438114D01*
X171690451Y-115427524D01*
X171491000Y-115514976D01*
X171445000Y-115514976D01*
X171245549Y-115427524D01*
X171192303Y-115438114D01*
X170736127Y-115638532D01*
X170391371Y-115998265D01*
X170210522Y-116462548D01*
X170297954Y-116661998D01*
X170205000Y-116661998D01*
X170205000Y-116659982D01*
X170107794Y-116171295D01*
X169830975Y-115757007D01*
X169416687Y-115480188D01*
X168928000Y-115382982D01*
X168439313Y-115480188D01*
X168025025Y-115757007D01*
X167748206Y-116171295D01*
X167658000Y-116624791D01*
X167567794Y-116171295D01*
X167290975Y-115757007D01*
X166876687Y-115480188D01*
X166388000Y-115382982D01*
X165899313Y-115480188D01*
X165485025Y-115757007D01*
X165208206Y-116171295D01*
X165133365Y-116547546D01*
X165133365Y-115835000D01*
X165103591Y-115676763D01*
X165010073Y-115531433D01*
X164867381Y-115433936D01*
X164698000Y-115399635D01*
X162998000Y-115399635D01*
X162839763Y-115429409D01*
X162694433Y-115522927D01*
X162596936Y-115665619D01*
X162562635Y-115835000D01*
X161019995Y-115835000D01*
X162512996Y-114341999D01*
X175339311Y-114341999D01*
X175561038Y-114297895D01*
X175749009Y-114172297D01*
X179076000Y-110845306D01*
X179076000Y-117305969D01*
X178432730Y-116661577D01*
X177529271Y-116286427D01*
X176551020Y-116285574D01*
X175646908Y-116659145D01*
X174954577Y-117350270D01*
X174579427Y-118253729D01*
X174578574Y-119231980D01*
X174952145Y-120136092D01*
X175643270Y-120828423D01*
X176546729Y-121203573D01*
X177524980Y-121204426D01*
X178429092Y-120830855D01*
X179076000Y-120185074D01*
X179076000Y-121077065D01*
X176683032Y-123470032D01*
X176574212Y-123632893D01*
X176535999Y-123825000D01*
X176536000Y-123825005D01*
X176536000Y-125863000D01*
X126407031Y-125863000D01*
X127051423Y-125219730D01*
X127426573Y-124316271D01*
X127427426Y-123338020D01*
X127053855Y-122433908D01*
X126362730Y-121741577D01*
X125459271Y-121366427D01*
X124481020Y-121365574D01*
X123576908Y-121739145D01*
X122884577Y-122430270D01*
X122509427Y-123333729D01*
X122508574Y-124311980D01*
X122882145Y-125216092D01*
X123527926Y-125863000D01*
X111500000Y-125863000D01*
X111500000Y-117447112D01*
X114070710Y-117447112D01*
X114325480Y-118063703D01*
X114796816Y-118535862D01*
X115412961Y-118791708D01*
X116080112Y-118792290D01*
X116696703Y-118537520D01*
X117168862Y-118066184D01*
X117424708Y-117450039D01*
X117425290Y-116782888D01*
X117170520Y-116166297D01*
X116699184Y-115694138D01*
X116083039Y-115438292D01*
X115415888Y-115437710D01*
X114799297Y-115692480D01*
X114327138Y-116163816D01*
X114071292Y-116779961D01*
X114070710Y-117447112D01*
X111500000Y-117447112D01*
X111500000Y-112447112D01*
X114070710Y-112447112D01*
X114325480Y-113063703D01*
X114796816Y-113535862D01*
X115412961Y-113791708D01*
X116080112Y-113792290D01*
X116696703Y-113537520D01*
X117168862Y-113066184D01*
X117301555Y-112746622D01*
X123070666Y-112746622D01*
X123363416Y-113455132D01*
X123905017Y-113997678D01*
X124613014Y-114291665D01*
X125379622Y-114292334D01*
X126088132Y-113999584D01*
X126630678Y-113457983D01*
X126924665Y-112749986D01*
X126925334Y-111983378D01*
X126632584Y-111274868D01*
X126090983Y-110732322D01*
X125382986Y-110438335D01*
X124616378Y-110437666D01*
X123907868Y-110730416D01*
X123365322Y-111272017D01*
X123071335Y-111980014D01*
X123070666Y-112746622D01*
X117301555Y-112746622D01*
X117424708Y-112450039D01*
X117425290Y-111782888D01*
X117170520Y-111166297D01*
X116699184Y-110694138D01*
X116083039Y-110438292D01*
X115415888Y-110437710D01*
X114799297Y-110692480D01*
X114327138Y-111163816D01*
X114071292Y-111779961D01*
X114070710Y-112447112D01*
X111500000Y-112447112D01*
X111500000Y-105865000D01*
X114062635Y-105865000D01*
X114062635Y-108365000D01*
X114092409Y-108523237D01*
X114185927Y-108668567D01*
X114328619Y-108766064D01*
X114498000Y-108800365D01*
X116998000Y-108800365D01*
X117156237Y-108770591D01*
X117301567Y-108677073D01*
X117399064Y-108534381D01*
X117433365Y-108365000D01*
X117433365Y-105865000D01*
X117403591Y-105706763D01*
X117310073Y-105561433D01*
X117167381Y-105463936D01*
X116998000Y-105429635D01*
X114498000Y-105429635D01*
X114339763Y-105459409D01*
X114194433Y-105552927D01*
X114096936Y-105695619D01*
X114062635Y-105865000D01*
X111500000Y-105865000D01*
X111500000Y-92447112D01*
X114070710Y-92447112D01*
X114325480Y-93063703D01*
X114796816Y-93535862D01*
X115412961Y-93791708D01*
X116080112Y-93792290D01*
X116696703Y-93537520D01*
X117168862Y-93066184D01*
X117424708Y-92450039D01*
X117425290Y-91782888D01*
X117170520Y-91166297D01*
X116699184Y-90694138D01*
X116083039Y-90438292D01*
X115415888Y-90437710D01*
X114799297Y-90692480D01*
X114327138Y-91163816D01*
X114071292Y-91779961D01*
X114070710Y-92447112D01*
X111500000Y-92447112D01*
X111500000Y-87447112D01*
X114070710Y-87447112D01*
X114325480Y-88063703D01*
X114796816Y-88535862D01*
X115412961Y-88791708D01*
X116080112Y-88792290D01*
X116696703Y-88537520D01*
X117168862Y-88066184D01*
X117424708Y-87450039D01*
X117425290Y-86782888D01*
X117170520Y-86166297D01*
X116699184Y-85694138D01*
X116083039Y-85438292D01*
X115415888Y-85437710D01*
X114799297Y-85692480D01*
X114327138Y-86163816D01*
X114071292Y-86779961D01*
X114070710Y-87447112D01*
X111500000Y-87447112D01*
X111500000Y-80865000D01*
X114062635Y-80865000D01*
X114062635Y-83365000D01*
X114092409Y-83523237D01*
X114185927Y-83668567D01*
X114328619Y-83766064D01*
X114498000Y-83800365D01*
X116998000Y-83800365D01*
X117156237Y-83770591D01*
X117301567Y-83677073D01*
X117399064Y-83534381D01*
X117433365Y-83365000D01*
X117433365Y-80865000D01*
X117403591Y-80706763D01*
X117310073Y-80561433D01*
X117167381Y-80463936D01*
X116998000Y-80429635D01*
X114498000Y-80429635D01*
X114339763Y-80459409D01*
X114194433Y-80552927D01*
X114096936Y-80695619D01*
X114062635Y-80865000D01*
X111500000Y-80865000D01*
X111500000Y-73527000D01*
X124798969Y-73527000D01*
X124154577Y-74170270D01*
X124154577Y-74170270D01*
G37*
X124154577Y-74170270D02*
X123779427Y-75073729D01*
X123778574Y-76051980D01*
X124152145Y-76956092D01*
X124843270Y-77648423D01*
X125746729Y-78023573D01*
X126724980Y-78024426D01*
X127629092Y-77650855D01*
X128321423Y-76959730D01*
X128613250Y-76256935D01*
X128881408Y-76658262D01*
X129300109Y-76938029D01*
X129794000Y-77036270D01*
X130287891Y-76938029D01*
X130706592Y-76658262D01*
X130986359Y-76239561D01*
X131064000Y-75849233D01*
X131141641Y-76239561D01*
X131421408Y-76658262D01*
X131840109Y-76938029D01*
X132334000Y-77036270D01*
X132827891Y-76938029D01*
X133246592Y-76658262D01*
X133526359Y-76239561D01*
X133604000Y-75849233D01*
X133681641Y-76239561D01*
X133961408Y-76658262D01*
X134380109Y-76938029D01*
X134874000Y-77036270D01*
X135367891Y-76938029D01*
X135786592Y-76658262D01*
X136066359Y-76239561D01*
X136145467Y-75841857D01*
X136230443Y-76232540D01*
X136517671Y-76646255D01*
X136941357Y-76918560D01*
X137189421Y-76988310D01*
X137391000Y-76901027D01*
X137391000Y-75588000D01*
X137371000Y-75588000D01*
X137371000Y-75542000D01*
X137391000Y-75542000D01*
X137391000Y-74228973D01*
X137189421Y-74141690D01*
X136941357Y-74211440D01*
X136517671Y-74483745D01*
X136230443Y-74897460D01*
X136145467Y-75288143D01*
X136066359Y-74890439D01*
X135786592Y-74471738D01*
X135367891Y-74191971D01*
X134874000Y-74093730D01*
X134380109Y-74191971D01*
X133961408Y-74471738D01*
X133681641Y-74890439D01*
X133604000Y-75280767D01*
X133526359Y-74890439D01*
X133246592Y-74471738D01*
X132827891Y-74191971D01*
X132334000Y-74093730D01*
X131840109Y-74191971D01*
X131421408Y-74471738D01*
X131141641Y-74890439D01*
X131064000Y-75280767D01*
X130986359Y-74890439D01*
X130706592Y-74471738D01*
X130287891Y-74191971D01*
X129794000Y-74093730D01*
X129300109Y-74191971D01*
X128881408Y-74471738D01*
X128612935Y-74873536D01*
X128323855Y-74173908D01*
X127678074Y-73527000D01*
X175306064Y-73527000D01*
X176536000Y-74756935D01*
X176536000Y-79094694D01*
X174472505Y-77031199D01*
X174498000Y-77036270D01*
X174991891Y-76938029D01*
X175410592Y-76658262D01*
X175690359Y-76239561D01*
X175788600Y-75745670D01*
X175788600Y-75384330D01*
X175690359Y-74890439D01*
X175410592Y-74471738D01*
X174991891Y-74191971D01*
X174498000Y-74093730D01*
X174004109Y-74191971D01*
X173585408Y-74471738D01*
X173305641Y-74890439D01*
X173228000Y-75280767D01*
X173150359Y-74890439D01*
X172870592Y-74471738D01*
X172451891Y-74191971D01*
X171958000Y-74093730D01*
X171464109Y-74191971D01*
X171045408Y-74471738D01*
X170765641Y-74890439D01*
X170688000Y-75280767D01*
X170610359Y-74890439D01*
X170330592Y-74471738D01*
X169911891Y-74191971D01*
X169418000Y-74093730D01*
X168924109Y-74191971D01*
X168505408Y-74471738D01*
X168225641Y-74890439D01*
X168148000Y-75280767D01*
X168070359Y-74890439D01*
X167790592Y-74471738D01*
X167371891Y-74191971D01*
X166878000Y-74093730D01*
X166384109Y-74191971D01*
X165965408Y-74471738D01*
X165685641Y-74890439D01*
X165608000Y-75280767D01*
X165530359Y-74890439D01*
X165250592Y-74471738D01*
X164831891Y-74191971D01*
X164338000Y-74093730D01*
X163844109Y-74191971D01*
X163425408Y-74471738D01*
X163145641Y-74890439D01*
X163068000Y-75280767D01*
X162990359Y-74890439D01*
X162710592Y-74471738D01*
X162291891Y-74191971D01*
X161798000Y-74093730D01*
X161304109Y-74191971D01*
X160885408Y-74471738D01*
X160605641Y-74890439D01*
X160528000Y-75280767D01*
X160450359Y-74890439D01*
X160170592Y-74471738D01*
X159751891Y-74191971D01*
X159258000Y-74093730D01*
X158764109Y-74191971D01*
X158345408Y-74471738D01*
X158065641Y-74890439D01*
X157988000Y-75280767D01*
X157910359Y-74890439D01*
X157630592Y-74471738D01*
X157211891Y-74191971D01*
X156718000Y-74093730D01*
X156224109Y-74191971D01*
X155805408Y-74471738D01*
X155572373Y-74820500D01*
X155219400Y-74820500D01*
X154934492Y-74877172D01*
X154692959Y-75038559D01*
X153934358Y-75797160D01*
X153944600Y-75745670D01*
X153944600Y-75384330D01*
X153846359Y-74890439D01*
X153566592Y-74471738D01*
X153147891Y-74191971D01*
X152654000Y-74093730D01*
X152160109Y-74191971D01*
X151741408Y-74471738D01*
X151461641Y-74890439D01*
X151384000Y-75280767D01*
X151306359Y-74890439D01*
X151026592Y-74471738D01*
X150607891Y-74191971D01*
X150114000Y-74093730D01*
X149620109Y-74191971D01*
X149201408Y-74471738D01*
X148921641Y-74890439D01*
X148844000Y-75280767D01*
X148766359Y-74890439D01*
X148486592Y-74471738D01*
X148067891Y-74191971D01*
X147574000Y-74093730D01*
X147080109Y-74191971D01*
X146661408Y-74471738D01*
X146381641Y-74890439D01*
X146304000Y-75280767D01*
X146226359Y-74890439D01*
X145946592Y-74471738D01*
X145527891Y-74191971D01*
X145034000Y-74093730D01*
X144540109Y-74191971D01*
X144121408Y-74471738D01*
X143841641Y-74890439D01*
X143764000Y-75280767D01*
X143686359Y-74890439D01*
X143406592Y-74471738D01*
X142987891Y-74191971D01*
X142494000Y-74093730D01*
X142000109Y-74191971D01*
X141581408Y-74471738D01*
X141301641Y-74890439D01*
X141224000Y-75280767D01*
X141146359Y-74890439D01*
X140866592Y-74471738D01*
X140447891Y-74191971D01*
X139954000Y-74093730D01*
X139460109Y-74191971D01*
X139041408Y-74471738D01*
X138761641Y-74890439D01*
X138682533Y-75288143D01*
X138597557Y-74897460D01*
X138310329Y-74483745D01*
X137886643Y-74211440D01*
X137638579Y-74141690D01*
X137437000Y-74228973D01*
X137437000Y-75542000D01*
X137457000Y-75542000D01*
X137457000Y-75588000D01*
X137437000Y-75588000D01*
X137437000Y-76901027D01*
X137638579Y-76988310D01*
X137886643Y-76918560D01*
X138310329Y-76646255D01*
X138597557Y-76232540D01*
X138682533Y-75841857D01*
X138761641Y-76239561D01*
X139041408Y-76658262D01*
X139460109Y-76938029D01*
X139954000Y-77036270D01*
X140447891Y-76938029D01*
X140866592Y-76658262D01*
X141146359Y-76239561D01*
X141224000Y-75849233D01*
X141301641Y-76239561D01*
X141581408Y-76658262D01*
X142000109Y-76938029D01*
X142494000Y-77036270D01*
X142987891Y-76938029D01*
X143406592Y-76658262D01*
X143686359Y-76239561D01*
X143764000Y-75849233D01*
X143841641Y-76239561D01*
X144121408Y-76658262D01*
X144540109Y-76938029D01*
X145034000Y-77036270D01*
X145527891Y-76938029D01*
X145946592Y-76658262D01*
X146226359Y-76239561D01*
X146304000Y-75849233D01*
X146381641Y-76239561D01*
X146661408Y-76658262D01*
X147080109Y-76938029D01*
X147574000Y-77036270D01*
X148067891Y-76938029D01*
X148486592Y-76658262D01*
X148766359Y-76239561D01*
X148844000Y-75849233D01*
X148921641Y-76239561D01*
X149201408Y-76658262D01*
X149620109Y-76938029D01*
X149778076Y-76969451D01*
X149749478Y-76988559D01*
X149031559Y-77706478D01*
X148870172Y-77948011D01*
X148813500Y-78232919D01*
X148813500Y-78401117D01*
X148655025Y-78507007D01*
X148378206Y-78921295D01*
X148303365Y-79297546D01*
X148303365Y-78585000D01*
X148273591Y-78426763D01*
X148180073Y-78281433D01*
X148037381Y-78183936D01*
X147868000Y-78149635D01*
X146168000Y-78149635D01*
X146009763Y-78179409D01*
X145864433Y-78272927D01*
X145766936Y-78415619D01*
X145733182Y-78582300D01*
X144939441Y-77788559D01*
X144912393Y-77770486D01*
X144697908Y-77627172D01*
X144413000Y-77570500D01*
X130048000Y-77570500D01*
X129763092Y-77627172D01*
X129548607Y-77770486D01*
X129521559Y-77788559D01*
X127487095Y-79823023D01*
X127283039Y-79738292D01*
X127048989Y-79738088D01*
X126948000Y-79718000D01*
X122998000Y-79718000D01*
X122348586Y-79847176D01*
X121798040Y-80215040D01*
X119073040Y-82940040D01*
X118705176Y-83490586D01*
X118576000Y-84140000D01*
X118576000Y-93437080D01*
X116398040Y-95615040D01*
X116030176Y-96165586D01*
X115901000Y-96815000D01*
X115901000Y-103340000D01*
X116030176Y-103989414D01*
X116398040Y-104539960D01*
X118223041Y-106364961D01*
X118773587Y-106732825D01*
X119423001Y-106862001D01*
X124995081Y-106862001D01*
X125748040Y-107614961D01*
X125748043Y-107614963D01*
X130423040Y-112289960D01*
X130973586Y-112657824D01*
X131517645Y-112766044D01*
X131326658Y-112893657D01*
X127626660Y-116593656D01*
X127626657Y-116593658D01*
X127423640Y-116796675D01*
X127283039Y-116738292D01*
X126615888Y-116737710D01*
X125999297Y-116992480D01*
X125527138Y-117463816D01*
X125271292Y-118079961D01*
X125270710Y-118747112D01*
X125525480Y-119363703D01*
X125996816Y-119835862D01*
X126612961Y-120091708D01*
X127280112Y-120092290D01*
X127896703Y-119837520D01*
X128368862Y-119366184D01*
X128605365Y-118796622D01*
X137220666Y-118796622D01*
X137513416Y-119505132D01*
X138055017Y-120047678D01*
X138763014Y-120341665D01*
X139529622Y-120342334D01*
X140238132Y-120049584D01*
X140780678Y-119507983D01*
X141074665Y-118799986D01*
X141075334Y-118033378D01*
X140782584Y-117324868D01*
X140240983Y-116782322D01*
X139532986Y-116488335D01*
X138766378Y-116487666D01*
X138057868Y-116780416D01*
X137515322Y-117322017D01*
X137221335Y-118030014D01*
X137220666Y-118796622D01*
X128605365Y-118796622D01*
X128624708Y-118750039D01*
X128625290Y-118082888D01*
X128566085Y-117939600D01*
X128769342Y-117736343D01*
X128769344Y-117736340D01*
X132232685Y-114273000D01*
X141926604Y-114273000D01*
X142212799Y-114391839D01*
X142581583Y-114392161D01*
X142922417Y-114251331D01*
X143183414Y-113990789D01*
X143324839Y-113650201D01*
X143325161Y-113281417D01*
X143220008Y-113026928D01*
X144181000Y-113987920D01*
X144181000Y-114945000D01*
X144310176Y-115594414D01*
X144678040Y-116144960D01*
X147401000Y-118867920D01*
X147401000Y-122685238D01*
X147051891Y-122451971D01*
X146558000Y-122353730D01*
X146064109Y-122451971D01*
X145645408Y-122731738D01*
X145365641Y-123150439D01*
X145288000Y-123540767D01*
X145210359Y-123150439D01*
X144930592Y-122731738D01*
X144511891Y-122451971D01*
X144018000Y-122353730D01*
X143524109Y-122451971D01*
X143105408Y-122731738D01*
X142825641Y-123150439D01*
X142748000Y-123540767D01*
X142670359Y-123150439D01*
X142390592Y-122731738D01*
X141971891Y-122451971D01*
X141478000Y-122353730D01*
X140984109Y-122451971D01*
X140565408Y-122731738D01*
X140285641Y-123150439D01*
X140208000Y-123540767D01*
X140130359Y-123150439D01*
X139850592Y-122731738D01*
X139431891Y-122451971D01*
X138938000Y-122353730D01*
X138444109Y-122451971D01*
X138025408Y-122731738D01*
X137745641Y-123150439D01*
X137647400Y-123644330D01*
X137647400Y-124005670D01*
X137745641Y-124499561D01*
X138025408Y-124918262D01*
X138444109Y-125198029D01*
X138938000Y-125296270D01*
X139431891Y-125198029D01*
X139850592Y-124918262D01*
X140130359Y-124499561D01*
X140208000Y-124109233D01*
X140285641Y-124499561D01*
X140565408Y-124918262D01*
X140984109Y-125198029D01*
X141478000Y-125296270D01*
X141971891Y-125198029D01*
X142390592Y-124918262D01*
X142670359Y-124499561D01*
X142748000Y-124109233D01*
X142825641Y-124499561D01*
X143105408Y-124918262D01*
X143524109Y-125198029D01*
X144018000Y-125296270D01*
X144511891Y-125198029D01*
X144930592Y-124918262D01*
X145210359Y-124499561D01*
X145288000Y-124109233D01*
X145365641Y-124499561D01*
X145645408Y-124918262D01*
X146064109Y-125198029D01*
X146558000Y-125296270D01*
X147051891Y-125198029D01*
X147470592Y-124918262D01*
X147648669Y-124651751D01*
X147898040Y-125024960D01*
X148448586Y-125392824D01*
X149098000Y-125522000D01*
X149747414Y-125392824D01*
X150297960Y-125024960D01*
X150555985Y-124638799D01*
X150741671Y-124906255D01*
X151165357Y-125178560D01*
X151413421Y-125248310D01*
X151615000Y-125161027D01*
X151615000Y-123848000D01*
X151661000Y-123848000D01*
X151661000Y-125161027D01*
X151862579Y-125248310D01*
X152110643Y-125178560D01*
X152534329Y-124906255D01*
X152821557Y-124492540D01*
X152908000Y-124095110D01*
X152994443Y-124492540D01*
X153281671Y-124906255D01*
X153705357Y-125178560D01*
X153953421Y-125248310D01*
X154155000Y-125161027D01*
X154155000Y-123848000D01*
X151661000Y-123848000D01*
X151615000Y-123848000D01*
X151595000Y-123848000D01*
X151595000Y-123802000D01*
X151615000Y-123802000D01*
X151615000Y-122488973D01*
X151661000Y-122488973D01*
X151661000Y-123802000D01*
X154155000Y-123802000D01*
X154155000Y-122488973D01*
X154201000Y-122488973D01*
X154201000Y-123802000D01*
X154221000Y-123802000D01*
X154221000Y-123848000D01*
X154201000Y-123848000D01*
X154201000Y-125161027D01*
X154402579Y-125248310D01*
X154650643Y-125178560D01*
X155074329Y-124906255D01*
X155361557Y-124492540D01*
X155446533Y-124101857D01*
X155525641Y-124499561D01*
X155805408Y-124918262D01*
X156224109Y-125198029D01*
X156718000Y-125296270D01*
X157211891Y-125198029D01*
X157630592Y-124918262D01*
X157910359Y-124499561D01*
X158008600Y-124005670D01*
X158008600Y-123644330D01*
X160507400Y-123644330D01*
X160507400Y-124005670D01*
X160605641Y-124499561D01*
X160885408Y-124918262D01*
X161304109Y-125198029D01*
X161798000Y-125296270D01*
X162291891Y-125198029D01*
X162710592Y-124918262D01*
X162990359Y-124499561D01*
X163068000Y-124109233D01*
X163145641Y-124499561D01*
X163425408Y-124918262D01*
X163844109Y-125198029D01*
X164338000Y-125296270D01*
X164831891Y-125198029D01*
X165250592Y-124918262D01*
X165530359Y-124499561D01*
X165608000Y-124109233D01*
X165685641Y-124499561D01*
X165965408Y-124918262D01*
X166384109Y-125198029D01*
X166878000Y-125296270D01*
X167371891Y-125198029D01*
X167790592Y-124918262D01*
X168070359Y-124499561D01*
X168148000Y-124109233D01*
X168225641Y-124499561D01*
X168505408Y-124918262D01*
X168924109Y-125198029D01*
X169418000Y-125296270D01*
X169911891Y-125198029D01*
X170330592Y-124918262D01*
X170610359Y-124499561D01*
X170688000Y-124109233D01*
X170765641Y-124499561D01*
X171045408Y-124918262D01*
X171464109Y-125198029D01*
X171958000Y-125296270D01*
X172451891Y-125198029D01*
X172870592Y-124918262D01*
X173150359Y-124499561D01*
X173228000Y-124109233D01*
X173305641Y-124499561D01*
X173585408Y-124918262D01*
X174004109Y-125198029D01*
X174498000Y-125296270D01*
X174991891Y-125198029D01*
X175410592Y-124918262D01*
X175690359Y-124499561D01*
X175788600Y-124005670D01*
X175788600Y-123644330D01*
X175690359Y-123150439D01*
X175410592Y-122731738D01*
X174991891Y-122451971D01*
X174498000Y-122353730D01*
X174004109Y-122451971D01*
X173585408Y-122731738D01*
X173305641Y-123150439D01*
X173228000Y-123540767D01*
X173150359Y-123150439D01*
X172870592Y-122731738D01*
X172451891Y-122451971D01*
X171958000Y-122353730D01*
X171464109Y-122451971D01*
X171045408Y-122731738D01*
X170765641Y-123150439D01*
X170688000Y-123540767D01*
X170610359Y-123150439D01*
X170330592Y-122731738D01*
X169911891Y-122451971D01*
X169418000Y-122353730D01*
X168924109Y-122451971D01*
X168505408Y-122731738D01*
X168225641Y-123150439D01*
X168148000Y-123540767D01*
X168070359Y-123150439D01*
X167790592Y-122731738D01*
X167371891Y-122451971D01*
X166878000Y-122353730D01*
X166384109Y-122451971D01*
X165965408Y-122731738D01*
X165685641Y-123150439D01*
X165608000Y-123540767D01*
X165530359Y-123150439D01*
X165250592Y-122731738D01*
X164831891Y-122451971D01*
X164338000Y-122353730D01*
X163844109Y-122451971D01*
X163425408Y-122731738D01*
X163145641Y-123150439D01*
X163068000Y-123540767D01*
X162990359Y-123150439D01*
X162710592Y-122731738D01*
X162291891Y-122451971D01*
X161798000Y-122353730D01*
X161304109Y-122451971D01*
X160885408Y-122731738D01*
X160605641Y-123150439D01*
X160507400Y-123644330D01*
X158008600Y-123644330D01*
X157910359Y-123150439D01*
X157630592Y-122731738D01*
X157211891Y-122451971D01*
X156718000Y-122353730D01*
X156224109Y-122451971D01*
X155805408Y-122731738D01*
X155525641Y-123150439D01*
X155446533Y-123548143D01*
X155361557Y-123157460D01*
X155074329Y-122743745D01*
X154650643Y-122471440D01*
X154402579Y-122401690D01*
X154201000Y-122488973D01*
X154155000Y-122488973D01*
X153953421Y-122401690D01*
X153705357Y-122471440D01*
X153281671Y-122743745D01*
X152994443Y-123157460D01*
X152908000Y-123554890D01*
X152821557Y-123157460D01*
X152534329Y-122743745D01*
X152110643Y-122471440D01*
X151862579Y-122401690D01*
X151661000Y-122488973D01*
X151615000Y-122488973D01*
X151413421Y-122401690D01*
X151165357Y-122471440D01*
X150795000Y-122709470D01*
X150795000Y-120257451D01*
X152500524Y-120257451D01*
X152511114Y-120310697D01*
X152711532Y-120766873D01*
X153071265Y-121111629D01*
X153535548Y-121292478D01*
X153735000Y-121205045D01*
X153735000Y-120058000D01*
X153781000Y-120058000D01*
X153781000Y-121205045D01*
X153980452Y-121292478D01*
X154444735Y-121111629D01*
X154804468Y-120766873D01*
X155004886Y-120310697D01*
X155013487Y-120267451D01*
X156840524Y-120267451D01*
X156851114Y-120320697D01*
X157051532Y-120776873D01*
X157411265Y-121121629D01*
X157875548Y-121302478D01*
X158075000Y-121215045D01*
X158075000Y-120068000D01*
X158121000Y-120068000D01*
X158121000Y-121215045D01*
X158320452Y-121302478D01*
X158784735Y-121121629D01*
X159144468Y-120776873D01*
X159344886Y-120320697D01*
X159355476Y-120267451D01*
X159268024Y-120068000D01*
X158121000Y-120068000D01*
X158075000Y-120068000D01*
X156927976Y-120068000D01*
X156840524Y-120267451D01*
X155013487Y-120267451D01*
X155015476Y-120257451D01*
X154928024Y-120058000D01*
X153781000Y-120058000D01*
X153735000Y-120058000D01*
X152587976Y-120058000D01*
X152500524Y-120257451D01*
X150795000Y-120257451D01*
X150795000Y-118239500D01*
X152724117Y-118239500D01*
X152830007Y-118397975D01*
X153244295Y-118674794D01*
X153732982Y-118772000D01*
X153734998Y-118772000D01*
X153734998Y-118864954D01*
X153535548Y-118777522D01*
X153071265Y-118958371D01*
X152711532Y-119303127D01*
X152511114Y-119759303D01*
X152500524Y-119812549D01*
X152587976Y-120012000D01*
X153735000Y-120012000D01*
X153735000Y-119992000D01*
X153781000Y-119992000D01*
X153781000Y-120012000D01*
X154928024Y-120012000D01*
X155015476Y-119812549D01*
X155004886Y-119759303D01*
X154804468Y-119303127D01*
X154444735Y-118958371D01*
X153980452Y-118777522D01*
X153781002Y-118864954D01*
X153781002Y-118772000D01*
X153783018Y-118772000D01*
X154271705Y-118674794D01*
X154685993Y-118397975D01*
X154785201Y-118249500D01*
X157064117Y-118249500D01*
X157170007Y-118407975D01*
X157584295Y-118684794D01*
X158072982Y-118782000D01*
X158074998Y-118782000D01*
X158074998Y-118874954D01*
X157875548Y-118787522D01*
X157411265Y-118968371D01*
X157051532Y-119313127D01*
X156851114Y-119769303D01*
X156840524Y-119822549D01*
X156927976Y-120022000D01*
X158075000Y-120022000D01*
X158075000Y-120002000D01*
X158121000Y-120002000D01*
X158121000Y-120022000D01*
X159268024Y-120022000D01*
X159355476Y-119822549D01*
X159344886Y-119769303D01*
X159144468Y-119313127D01*
X158784735Y-118968371D01*
X158320452Y-118787522D01*
X158121002Y-118874954D01*
X158121002Y-118782000D01*
X158123018Y-118782000D01*
X158611705Y-118684794D01*
X159025993Y-118407975D01*
X159302812Y-117993687D01*
X159400018Y-117505000D01*
X159302812Y-117016313D01*
X159171239Y-116819400D01*
X159795599Y-116819400D01*
X160017326Y-116775296D01*
X160205297Y-116649698D01*
X161019995Y-115835000D01*
X162562635Y-115835000D01*
X162562635Y-117535000D01*
X162592409Y-117693237D01*
X162685927Y-117838567D01*
X162828619Y-117936064D01*
X162998000Y-117970365D01*
X164698000Y-117970365D01*
X164856237Y-117940591D01*
X165001567Y-117847073D01*
X165099064Y-117704381D01*
X165133365Y-117535000D01*
X165133365Y-116822454D01*
X165208206Y-117198705D01*
X165485025Y-117612993D01*
X165899313Y-117889812D01*
X166388000Y-117987018D01*
X166876687Y-117889812D01*
X167290975Y-117612993D01*
X167567794Y-117198705D01*
X167658000Y-116745209D01*
X167748206Y-117198705D01*
X168025025Y-117612993D01*
X168439313Y-117889812D01*
X168928000Y-117987018D01*
X169416687Y-117889812D01*
X169830975Y-117612993D01*
X170107794Y-117198705D01*
X170205000Y-116710018D01*
X170205000Y-116708002D01*
X170297954Y-116708002D01*
X170210522Y-116907452D01*
X170391371Y-117371735D01*
X170736127Y-117731468D01*
X171192303Y-117931886D01*
X171245549Y-117942476D01*
X171445000Y-117855024D01*
X171445000Y-116708000D01*
X171491000Y-116708000D01*
X171491000Y-117855024D01*
X171690451Y-117942476D01*
X171743697Y-117931886D01*
X172199873Y-117731468D01*
X172544629Y-117371735D01*
X172725478Y-116907452D01*
X172638045Y-116708000D01*
X171491000Y-116708000D01*
X171445000Y-116708000D01*
X171425000Y-116708000D01*
X171425000Y-116662000D01*
X171445000Y-116662000D01*
X171445000Y-115514976D01*
X171491000Y-115514976D01*
X171491000Y-116662000D01*
X172638045Y-116662000D01*
X172725478Y-116462548D01*
X172544629Y-115998265D01*
X172199873Y-115638532D01*
X171743697Y-115438114D01*
X171690451Y-115427524D01*
X171491000Y-115514976D01*
X171445000Y-115514976D01*
X171245549Y-115427524D01*
X171192303Y-115438114D01*
X170736127Y-115638532D01*
X170391371Y-115998265D01*
X170210522Y-116462548D01*
X170297954Y-116661998D01*
X170205000Y-116661998D01*
X170205000Y-116659982D01*
X170107794Y-116171295D01*
X169830975Y-115757007D01*
X169416687Y-115480188D01*
X168928000Y-115382982D01*
X168439313Y-115480188D01*
X168025025Y-115757007D01*
X167748206Y-116171295D01*
X167658000Y-116624791D01*
X167567794Y-116171295D01*
X167290975Y-115757007D01*
X166876687Y-115480188D01*
X166388000Y-115382982D01*
X165899313Y-115480188D01*
X165485025Y-115757007D01*
X165208206Y-116171295D01*
X165133365Y-116547546D01*
X165133365Y-115835000D01*
X165103591Y-115676763D01*
X165010073Y-115531433D01*
X164867381Y-115433936D01*
X164698000Y-115399635D01*
X162998000Y-115399635D01*
X162839763Y-115429409D01*
X162694433Y-115522927D01*
X162596936Y-115665619D01*
X162562635Y-115835000D01*
X161019995Y-115835000D01*
X162512996Y-114341999D01*
X175339311Y-114341999D01*
X175561038Y-114297895D01*
X175749009Y-114172297D01*
X179076000Y-110845306D01*
X179076000Y-117305969D01*
X178432730Y-116661577D01*
X177529271Y-116286427D01*
X176551020Y-116285574D01*
X175646908Y-116659145D01*
X174954577Y-117350270D01*
X174579427Y-118253729D01*
X174578574Y-119231980D01*
X174952145Y-120136092D01*
X175643270Y-120828423D01*
X176546729Y-121203573D01*
X177524980Y-121204426D01*
X178429092Y-120830855D01*
X179076000Y-120185074D01*
X179076000Y-121077065D01*
X176683032Y-123470032D01*
X176574212Y-123632893D01*
X176535999Y-123825000D01*
X176536000Y-123825005D01*
X176536000Y-125863000D01*
X126407031Y-125863000D01*
X127051423Y-125219730D01*
X127426573Y-124316271D01*
X127427426Y-123338020D01*
X127053855Y-122433908D01*
X126362730Y-121741577D01*
X125459271Y-121366427D01*
X124481020Y-121365574D01*
X123576908Y-121739145D01*
X122884577Y-122430270D01*
X122509427Y-123333729D01*
X122508574Y-124311980D01*
X122882145Y-125216092D01*
X123527926Y-125863000D01*
X111500000Y-125863000D01*
X111500000Y-117447112D01*
X114070710Y-117447112D01*
X114325480Y-118063703D01*
X114796816Y-118535862D01*
X115412961Y-118791708D01*
X116080112Y-118792290D01*
X116696703Y-118537520D01*
X117168862Y-118066184D01*
X117424708Y-117450039D01*
X117425290Y-116782888D01*
X117170520Y-116166297D01*
X116699184Y-115694138D01*
X116083039Y-115438292D01*
X115415888Y-115437710D01*
X114799297Y-115692480D01*
X114327138Y-116163816D01*
X114071292Y-116779961D01*
X114070710Y-117447112D01*
X111500000Y-117447112D01*
X111500000Y-112447112D01*
X114070710Y-112447112D01*
X114325480Y-113063703D01*
X114796816Y-113535862D01*
X115412961Y-113791708D01*
X116080112Y-113792290D01*
X116696703Y-113537520D01*
X117168862Y-113066184D01*
X117301555Y-112746622D01*
X123070666Y-112746622D01*
X123363416Y-113455132D01*
X123905017Y-113997678D01*
X124613014Y-114291665D01*
X125379622Y-114292334D01*
X126088132Y-113999584D01*
X126630678Y-113457983D01*
X126924665Y-112749986D01*
X126925334Y-111983378D01*
X126632584Y-111274868D01*
X126090983Y-110732322D01*
X125382986Y-110438335D01*
X124616378Y-110437666D01*
X123907868Y-110730416D01*
X123365322Y-111272017D01*
X123071335Y-111980014D01*
X123070666Y-112746622D01*
X117301555Y-112746622D01*
X117424708Y-112450039D01*
X117425290Y-111782888D01*
X117170520Y-111166297D01*
X116699184Y-110694138D01*
X116083039Y-110438292D01*
X115415888Y-110437710D01*
X114799297Y-110692480D01*
X114327138Y-111163816D01*
X114071292Y-111779961D01*
X114070710Y-112447112D01*
X111500000Y-112447112D01*
X111500000Y-105865000D01*
X114062635Y-105865000D01*
X114062635Y-108365000D01*
X114092409Y-108523237D01*
X114185927Y-108668567D01*
X114328619Y-108766064D01*
X114498000Y-108800365D01*
X116998000Y-108800365D01*
X117156237Y-108770591D01*
X117301567Y-108677073D01*
X117399064Y-108534381D01*
X117433365Y-108365000D01*
X117433365Y-105865000D01*
X117403591Y-105706763D01*
X117310073Y-105561433D01*
X117167381Y-105463936D01*
X116998000Y-105429635D01*
X114498000Y-105429635D01*
X114339763Y-105459409D01*
X114194433Y-105552927D01*
X114096936Y-105695619D01*
X114062635Y-105865000D01*
X111500000Y-105865000D01*
X111500000Y-92447112D01*
X114070710Y-92447112D01*
X114325480Y-93063703D01*
X114796816Y-93535862D01*
X115412961Y-93791708D01*
X116080112Y-93792290D01*
X116696703Y-93537520D01*
X117168862Y-93066184D01*
X117424708Y-92450039D01*
X117425290Y-91782888D01*
X117170520Y-91166297D01*
X116699184Y-90694138D01*
X116083039Y-90438292D01*
X115415888Y-90437710D01*
X114799297Y-90692480D01*
X114327138Y-91163816D01*
X114071292Y-91779961D01*
X114070710Y-92447112D01*
X111500000Y-92447112D01*
X111500000Y-87447112D01*
X114070710Y-87447112D01*
X114325480Y-88063703D01*
X114796816Y-88535862D01*
X115412961Y-88791708D01*
X116080112Y-88792290D01*
X116696703Y-88537520D01*
X117168862Y-88066184D01*
X117424708Y-87450039D01*
X117425290Y-86782888D01*
X117170520Y-86166297D01*
X116699184Y-85694138D01*
X116083039Y-85438292D01*
X115415888Y-85437710D01*
X114799297Y-85692480D01*
X114327138Y-86163816D01*
X114071292Y-86779961D01*
X114070710Y-87447112D01*
X111500000Y-87447112D01*
X111500000Y-80865000D01*
X114062635Y-80865000D01*
X114062635Y-83365000D01*
X114092409Y-83523237D01*
X114185927Y-83668567D01*
X114328619Y-83766064D01*
X114498000Y-83800365D01*
X116998000Y-83800365D01*
X117156237Y-83770591D01*
X117301567Y-83677073D01*
X117399064Y-83534381D01*
X117433365Y-83365000D01*
X117433365Y-80865000D01*
X117403591Y-80706763D01*
X117310073Y-80561433D01*
X117167381Y-80463936D01*
X116998000Y-80429635D01*
X114498000Y-80429635D01*
X114339763Y-80459409D01*
X114194433Y-80552927D01*
X114096936Y-80695619D01*
X114062635Y-80865000D01*
X111500000Y-80865000D01*
X111500000Y-73527000D01*
X124798969Y-73527000D01*
X124154577Y-74170270D01*
G36*
X158065641Y-76239561D02*
X158345408Y-76658262D01*
X158764109Y-76938029D01*
X159258000Y-77036270D01*
X159674606Y-76953402D01*
X160945900Y-78224695D01*
X160945902Y-78224698D01*
X161133873Y-78350296D01*
X161355600Y-78394400D01*
X173258004Y-78394400D01*
X175468600Y-80604995D01*
X175468600Y-87059326D01*
X174683365Y-87844561D01*
X174683365Y-87265000D01*
X174653591Y-87106763D01*
X174560073Y-86961433D01*
X174417381Y-86863936D01*
X174248000Y-86829635D01*
X173248000Y-86829635D01*
X173089763Y-86859409D01*
X172944433Y-86952927D01*
X172846936Y-87095619D01*
X172812635Y-87265000D01*
X172812635Y-88080970D01*
X172683365Y-88210239D01*
X172683365Y-87265000D01*
X172653591Y-87106763D01*
X172560073Y-86961433D01*
X172417381Y-86863936D01*
X172248000Y-86829635D01*
X171248000Y-86829635D01*
X171089763Y-86859409D01*
X170944433Y-86952927D01*
X170846936Y-87095619D01*
X170812635Y-87265000D01*
X170812635Y-87285600D01*
X170408365Y-87285600D01*
X170408365Y-87240000D01*
X170378591Y-87081763D01*
X170285073Y-86936433D01*
X170142381Y-86838936D01*
X169973000Y-86804635D01*
X168973000Y-86804635D01*
X168814763Y-86834409D01*
X168669433Y-86927927D01*
X168571936Y-87070619D01*
X168537635Y-87240000D01*
X168537635Y-88490000D01*
X168567409Y-88648237D01*
X168660927Y-88793567D01*
X168803619Y-88891064D01*
X168973000Y-88925365D01*
X169973000Y-88925365D01*
X170131237Y-88895591D01*
X170273109Y-88804298D01*
X170196109Y-88989735D01*
X170195891Y-89239171D01*
X170291145Y-89469703D01*
X170467369Y-89646235D01*
X170697735Y-89741891D01*
X170947171Y-89742109D01*
X171062635Y-89694400D01*
X172598000Y-89694400D01*
X172819727Y-89650296D01*
X173007698Y-89524698D01*
X173404302Y-89128094D01*
X173287704Y-89302595D01*
X173243600Y-89524322D01*
X173243600Y-91832824D01*
X173287704Y-92054551D01*
X173413302Y-92242522D01*
X177618600Y-96447819D01*
X177618600Y-105943446D01*
X177662704Y-106165173D01*
X177668600Y-106173997D01*
X177668600Y-109259326D01*
X176433365Y-110494561D01*
X176433365Y-108615000D01*
X176403591Y-108456763D01*
X176310073Y-108311433D01*
X176167381Y-108213936D01*
X175998000Y-108179635D01*
X173498000Y-108179635D01*
X173339763Y-108209409D01*
X173194433Y-108302927D01*
X173096936Y-108445619D01*
X173062635Y-108615000D01*
X173062635Y-111115000D01*
X173092409Y-111273237D01*
X173185927Y-111418567D01*
X173328619Y-111516064D01*
X173498000Y-111550365D01*
X175377561Y-111550365D01*
X174442326Y-112485600D01*
X164346303Y-112485600D01*
X164546423Y-112402912D01*
X164647414Y-112382824D01*
X164732282Y-112326117D01*
X164946703Y-112237520D01*
X165112346Y-112072165D01*
X165197960Y-112014960D01*
X165254666Y-111930094D01*
X165418862Y-111766184D01*
X165508617Y-111550030D01*
X165565824Y-111464414D01*
X165585737Y-111364305D01*
X165674708Y-111150039D01*
X165674912Y-110915989D01*
X165695000Y-110815000D01*
X165675088Y-110714893D01*
X165675290Y-110482888D01*
X165585912Y-110266577D01*
X165565824Y-110165586D01*
X165509117Y-110080718D01*
X165420520Y-109866297D01*
X165255165Y-109700654D01*
X165197960Y-109615040D01*
X160987960Y-105405040D01*
X160750872Y-105246622D01*
X164020666Y-105246622D01*
X164313416Y-105955132D01*
X164855017Y-106497678D01*
X165563014Y-106791665D01*
X166329622Y-106792334D01*
X167038132Y-106499584D01*
X167580678Y-105957983D01*
X167874665Y-105249986D01*
X167874711Y-105197112D01*
X173070710Y-105197112D01*
X173325480Y-105813703D01*
X173796816Y-106285862D01*
X174412961Y-106541708D01*
X175080112Y-106542290D01*
X175696703Y-106287520D01*
X176168862Y-105816184D01*
X176424708Y-105200039D01*
X176425290Y-104532888D01*
X176170520Y-103916297D01*
X175699184Y-103444138D01*
X175083039Y-103188292D01*
X174415888Y-103187710D01*
X173799297Y-103442480D01*
X173327138Y-103913816D01*
X173071292Y-104529961D01*
X173070710Y-105197112D01*
X167874711Y-105197112D01*
X167875334Y-104483378D01*
X167582584Y-103774868D01*
X167040983Y-103232322D01*
X166332986Y-102938335D01*
X165566378Y-102937666D01*
X164857868Y-103230416D01*
X164315322Y-103772017D01*
X164021335Y-104480014D01*
X164020666Y-105246622D01*
X160750872Y-105246622D01*
X160437414Y-105037176D01*
X159788000Y-104908000D01*
X157106895Y-104908000D01*
X158698948Y-103315947D01*
X158836950Y-103109412D01*
X158929160Y-102971410D01*
X159010000Y-102565000D01*
X159010000Y-92615000D01*
X158929160Y-92208590D01*
X158920809Y-92196092D01*
X158698947Y-91864052D01*
X158035000Y-91200106D01*
X158035000Y-91111260D01*
X158078619Y-91141064D01*
X158248000Y-91175365D01*
X159248000Y-91175365D01*
X159406237Y-91145591D01*
X159551567Y-91052073D01*
X159649064Y-90909381D01*
X159672852Y-90791913D01*
X159897171Y-90792109D01*
X160013403Y-90744083D01*
X160042409Y-90898237D01*
X160135927Y-91043567D01*
X160278619Y-91141064D01*
X160448000Y-91175365D01*
X161448000Y-91175365D01*
X161606237Y-91145591D01*
X161751567Y-91052073D01*
X161849064Y-90909381D01*
X161882312Y-90745200D01*
X162086962Y-90745200D01*
X163103945Y-91762183D01*
X163046936Y-91845619D01*
X163012635Y-92015000D01*
X163012635Y-92895712D01*
X162902381Y-92969381D01*
X162902379Y-92969384D01*
X162886963Y-92984800D01*
X162127683Y-92984800D01*
X162103591Y-92856763D01*
X162010073Y-92711433D01*
X161867381Y-92613936D01*
X161698000Y-92579635D01*
X160798000Y-92579635D01*
X160639763Y-92609409D01*
X160494433Y-92702927D01*
X160396936Y-92845619D01*
X160362635Y-93015000D01*
X160362635Y-94215000D01*
X160392409Y-94373237D01*
X160485927Y-94518567D01*
X160628619Y-94616064D01*
X160798000Y-94650365D01*
X161698000Y-94650365D01*
X161856237Y-94620591D01*
X162001567Y-94527073D01*
X162023652Y-94494750D01*
X163021000Y-94494750D01*
X163021000Y-94899935D01*
X163086007Y-95056876D01*
X163206124Y-95176993D01*
X163363064Y-95242000D01*
X163818250Y-95242000D01*
X163925000Y-95135250D01*
X163925000Y-94388000D01*
X163971000Y-94388000D01*
X163971000Y-95135250D01*
X164077750Y-95242000D01*
X164532936Y-95242000D01*
X164689876Y-95176993D01*
X164809993Y-95056876D01*
X164875000Y-94899935D01*
X164875000Y-94494750D01*
X164768250Y-94388000D01*
X163971000Y-94388000D01*
X163925000Y-94388000D01*
X163127750Y-94388000D01*
X163021000Y-94494750D01*
X162023652Y-94494750D01*
X162099064Y-94384381D01*
X162127249Y-94245200D01*
X163030950Y-94245200D01*
X163127750Y-94342000D01*
X163925000Y-94342000D01*
X163925000Y-94322000D01*
X163971000Y-94322000D01*
X163971000Y-94342000D01*
X164768250Y-94342000D01*
X164875000Y-94235250D01*
X164875000Y-94045200D01*
X165056542Y-94045200D01*
X165135927Y-94168567D01*
X165140000Y-94171350D01*
X165140000Y-96530315D01*
X164473641Y-97196675D01*
X164333039Y-97138292D01*
X163665888Y-97137710D01*
X163049297Y-97392480D01*
X162577138Y-97863816D01*
X162321292Y-98479961D01*
X162320710Y-99147112D01*
X162575480Y-99763703D01*
X163046816Y-100235862D01*
X163662961Y-100491708D01*
X164330112Y-100492290D01*
X164946703Y-100237520D01*
X164987181Y-100197112D01*
X173070710Y-100197112D01*
X173325480Y-100813703D01*
X173796816Y-101285862D01*
X174412961Y-101541708D01*
X175080112Y-101542290D01*
X175696703Y-101287520D01*
X176168862Y-100816184D01*
X176424708Y-100200039D01*
X176425290Y-99532888D01*
X176170520Y-98916297D01*
X175699184Y-98444138D01*
X175083039Y-98188292D01*
X174415888Y-98187710D01*
X173799297Y-98442480D01*
X173327138Y-98913816D01*
X173071292Y-99529961D01*
X173070710Y-100197112D01*
X164987181Y-100197112D01*
X165418862Y-99766184D01*
X165674708Y-99150039D01*
X165675290Y-98482888D01*
X165616085Y-98339600D01*
X166519342Y-97436343D01*
X166689073Y-97182322D01*
X166694495Y-97174208D01*
X166756000Y-96865000D01*
X166756000Y-94170585D01*
X166849064Y-94034381D01*
X166857160Y-93994400D01*
X166893570Y-93994400D01*
X166947735Y-94016891D01*
X167197171Y-94017109D01*
X167427703Y-93921855D01*
X167604235Y-93745631D01*
X167699891Y-93515265D01*
X167700109Y-93265829D01*
X167604855Y-93035297D01*
X167428631Y-92858765D01*
X167198265Y-92763109D01*
X166948829Y-92762891D01*
X166851293Y-92803192D01*
X166760073Y-92661433D01*
X166617381Y-92563936D01*
X166448000Y-92529635D01*
X165448000Y-92529635D01*
X165289763Y-92559409D01*
X165144433Y-92652927D01*
X165054328Y-92784800D01*
X164883365Y-92784800D01*
X164883365Y-92015000D01*
X164853591Y-91856763D01*
X164760073Y-91711433D01*
X164617381Y-91613936D01*
X164555609Y-91601427D01*
X164530229Y-91473833D01*
X164490395Y-91414217D01*
X164393619Y-91269381D01*
X164393616Y-91269379D01*
X162793619Y-89669381D01*
X162589167Y-89532771D01*
X162348000Y-89484800D01*
X161882387Y-89484800D01*
X161853591Y-89331763D01*
X161760073Y-89186433D01*
X161617381Y-89088936D01*
X161448000Y-89054635D01*
X160448000Y-89054635D01*
X160289763Y-89084409D01*
X160144433Y-89177927D01*
X160046936Y-89320619D01*
X160012635Y-89490000D01*
X160012635Y-89585599D01*
X159898265Y-89538109D01*
X159734896Y-89537966D01*
X159723000Y-89535600D01*
X159683365Y-89535600D01*
X159683365Y-89490000D01*
X159653591Y-89331763D01*
X159560073Y-89186433D01*
X159417381Y-89088936D01*
X159248000Y-89054635D01*
X158410260Y-89054635D01*
X158537895Y-88927000D01*
X167273000Y-88927000D01*
X167281220Y-88925365D01*
X167773000Y-88925365D01*
X167931237Y-88895591D01*
X168076567Y-88802073D01*
X168174064Y-88659381D01*
X168208365Y-88490000D01*
X168208365Y-88339947D01*
X168254160Y-88271410D01*
X168335000Y-87865000D01*
X168254160Y-87458590D01*
X168208365Y-87390053D01*
X168208365Y-87240000D01*
X168178591Y-87081763D01*
X168085073Y-86936433D01*
X167942381Y-86838936D01*
X167878200Y-86825939D01*
X167878200Y-85150866D01*
X167906237Y-85145591D01*
X168051567Y-85052073D01*
X168149064Y-84909381D01*
X168183365Y-84740000D01*
X168183365Y-83490000D01*
X168512635Y-83490000D01*
X168512635Y-84740000D01*
X168542409Y-84898237D01*
X168635927Y-85043567D01*
X168778619Y-85141064D01*
X168948000Y-85175365D01*
X169948000Y-85175365D01*
X170106237Y-85145591D01*
X170179877Y-85098204D01*
X170121109Y-85239735D01*
X170120891Y-85489171D01*
X170216145Y-85719703D01*
X170392369Y-85896235D01*
X170622735Y-85991891D01*
X170872171Y-85992109D01*
X170987635Y-85944400D01*
X172598000Y-85944400D01*
X172819727Y-85900296D01*
X173007698Y-85774698D01*
X173632030Y-85150365D01*
X174248000Y-85150365D01*
X174406237Y-85120591D01*
X174551567Y-85027073D01*
X174649064Y-84884381D01*
X174683365Y-84715000D01*
X174683365Y-83515000D01*
X174653591Y-83356763D01*
X174560073Y-83211433D01*
X174417381Y-83113936D01*
X174248000Y-83079635D01*
X173248000Y-83079635D01*
X173089763Y-83109409D01*
X172944433Y-83202927D01*
X172846936Y-83345619D01*
X172812635Y-83515000D01*
X172812635Y-84330970D01*
X172683365Y-84460239D01*
X172683365Y-83515000D01*
X172653591Y-83356763D01*
X172560073Y-83211433D01*
X172417381Y-83113936D01*
X172248000Y-83079635D01*
X171248000Y-83079635D01*
X171089763Y-83109409D01*
X170944433Y-83202927D01*
X170846936Y-83345619D01*
X170812635Y-83515000D01*
X170812635Y-83535600D01*
X170383365Y-83535600D01*
X170383365Y-83490000D01*
X170353591Y-83331763D01*
X170260073Y-83186433D01*
X170117381Y-83088936D01*
X169948000Y-83054635D01*
X168948000Y-83054635D01*
X168789763Y-83084409D01*
X168644433Y-83177927D01*
X168546936Y-83320619D01*
X168512635Y-83490000D01*
X168183365Y-83490000D01*
X168153591Y-83331763D01*
X168060073Y-83186433D01*
X167917381Y-83088936D01*
X167878200Y-83081002D01*
X167878200Y-81650866D01*
X167906237Y-81645591D01*
X168051567Y-81552073D01*
X168149064Y-81409381D01*
X168183365Y-81240000D01*
X168183365Y-79990000D01*
X168512635Y-79990000D01*
X168512635Y-81240000D01*
X168542409Y-81398237D01*
X168635927Y-81543567D01*
X168778619Y-81641064D01*
X168948000Y-81675365D01*
X169948000Y-81675365D01*
X170106237Y-81645591D01*
X170221015Y-81571733D01*
X170220891Y-81714171D01*
X170316145Y-81944703D01*
X170492369Y-82121235D01*
X170722735Y-82216891D01*
X170972171Y-82217109D01*
X171087635Y-82169400D01*
X172873000Y-82169400D01*
X173094727Y-82125296D01*
X173282698Y-81999698D01*
X173632031Y-81650365D01*
X174248000Y-81650365D01*
X174406237Y-81620591D01*
X174551567Y-81527073D01*
X174649064Y-81384381D01*
X174683365Y-81215000D01*
X174683365Y-80015000D01*
X174653591Y-79856763D01*
X174560073Y-79711433D01*
X174417381Y-79613936D01*
X174248000Y-79579635D01*
X173248000Y-79579635D01*
X173089763Y-79609409D01*
X172944433Y-79702927D01*
X172846936Y-79845619D01*
X172812635Y-80015000D01*
X172812635Y-80830969D01*
X172683365Y-80960239D01*
X172683365Y-80015000D01*
X172653591Y-79856763D01*
X172560073Y-79711433D01*
X172417381Y-79613936D01*
X172248000Y-79579635D01*
X171248000Y-79579635D01*
X171089763Y-79609409D01*
X170944433Y-79702927D01*
X170846936Y-79845619D01*
X170812635Y-80015000D01*
X170812635Y-80035600D01*
X170383365Y-80035600D01*
X170383365Y-79990000D01*
X170353591Y-79831763D01*
X170260073Y-79686433D01*
X170117381Y-79588936D01*
X169948000Y-79554635D01*
X168948000Y-79554635D01*
X168789763Y-79584409D01*
X168644433Y-79677927D01*
X168546936Y-79820619D01*
X168512635Y-79990000D01*
X168183365Y-79990000D01*
X168153591Y-79831763D01*
X168060073Y-79686433D01*
X167917381Y-79588936D01*
X167748000Y-79554635D01*
X166748000Y-79554635D01*
X166589763Y-79584409D01*
X166444433Y-79677927D01*
X166346936Y-79820619D01*
X166312635Y-79990000D01*
X166312635Y-81240000D01*
X166342409Y-81398237D01*
X166435927Y-81543567D01*
X166578619Y-81641064D01*
X166617800Y-81648998D01*
X166617800Y-83079134D01*
X166589763Y-83084409D01*
X166444433Y-83177927D01*
X166346936Y-83320619D01*
X166312635Y-83490000D01*
X166312635Y-84740000D01*
X166342409Y-84898237D01*
X166435927Y-85043567D01*
X166578619Y-85141064D01*
X166617800Y-85148998D01*
X166617800Y-86803000D01*
X158098000Y-86803000D01*
X157691590Y-86883840D01*
X157347052Y-87114053D01*
X156222053Y-88239053D01*
X155991840Y-88583590D01*
X155911000Y-88990000D01*
X155911000Y-91640000D01*
X155985592Y-92015000D01*
X155991840Y-92046410D01*
X156222053Y-92390947D01*
X156886000Y-93054895D01*
X156886000Y-102125105D01*
X154103106Y-104908000D01*
X149398000Y-104908000D01*
X148748586Y-105037176D01*
X148198040Y-105405040D01*
X144678040Y-108925040D01*
X144310176Y-109475586D01*
X144302108Y-109516148D01*
X143683000Y-109393000D01*
X143055981Y-109393000D01*
X143183414Y-109265789D01*
X143324839Y-108925201D01*
X143325161Y-108556417D01*
X143206000Y-108268026D01*
X143206000Y-102673000D01*
X143224431Y-102673000D01*
X143285927Y-102768567D01*
X143428619Y-102866064D01*
X143598000Y-102900365D01*
X144498000Y-102900365D01*
X144656237Y-102870591D01*
X144801567Y-102777073D01*
X144899064Y-102634381D01*
X144933365Y-102465000D01*
X144933365Y-102369400D01*
X145033364Y-102369400D01*
X145147735Y-102416891D01*
X145397171Y-102417109D01*
X145627703Y-102321855D01*
X145804235Y-102145631D01*
X145899891Y-101915265D01*
X145900109Y-101665829D01*
X145804855Y-101435297D01*
X145628631Y-101258765D01*
X145398265Y-101163109D01*
X145148829Y-101162891D01*
X145033365Y-101210600D01*
X144923129Y-101210600D01*
X144903591Y-101106763D01*
X144810073Y-100961433D01*
X144667381Y-100863936D01*
X144498000Y-100829635D01*
X143598000Y-100829635D01*
X143439763Y-100859409D01*
X143294433Y-100952927D01*
X143244234Y-101026396D01*
X142630819Y-100412981D01*
X142426367Y-100276371D01*
X142198243Y-100230994D01*
X142443616Y-99985621D01*
X142443619Y-99985619D01*
X142557623Y-99815000D01*
X142580229Y-99781168D01*
X142628200Y-99540000D01*
X142628200Y-99196622D01*
X149870666Y-99196622D01*
X150163416Y-99905132D01*
X150705017Y-100447678D01*
X151413014Y-100741665D01*
X152179622Y-100742334D01*
X152888132Y-100449584D01*
X153430678Y-99907983D01*
X153724665Y-99199986D01*
X153725334Y-98433378D01*
X153432584Y-97724868D01*
X152890983Y-97182322D01*
X152182986Y-96888335D01*
X151416378Y-96887666D01*
X150707868Y-97180416D01*
X150165322Y-97722017D01*
X149871335Y-98430014D01*
X149870666Y-99196622D01*
X142628200Y-99196622D01*
X142628200Y-99150866D01*
X142656237Y-99145591D01*
X142801567Y-99052073D01*
X142899064Y-98909381D01*
X142933365Y-98740000D01*
X142933365Y-97490000D01*
X143262635Y-97490000D01*
X143262635Y-98740000D01*
X143292409Y-98898237D01*
X143385927Y-99043567D01*
X143528619Y-99141064D01*
X143698000Y-99175365D01*
X144698000Y-99175365D01*
X144856237Y-99145591D01*
X145001567Y-99052073D01*
X145099064Y-98909381D01*
X145132967Y-98741965D01*
X145297171Y-98742109D01*
X145527703Y-98646855D01*
X145704235Y-98470631D01*
X145799891Y-98240265D01*
X145800109Y-97990829D01*
X145704855Y-97760297D01*
X145528631Y-97583765D01*
X145298265Y-97488109D01*
X145132982Y-97487965D01*
X145103591Y-97331763D01*
X145010073Y-97186433D01*
X144867381Y-97088936D01*
X144698000Y-97054635D01*
X143698000Y-97054635D01*
X143539763Y-97084409D01*
X143394433Y-97177927D01*
X143296936Y-97320619D01*
X143262635Y-97490000D01*
X142933365Y-97490000D01*
X142903591Y-97331763D01*
X142810073Y-97186433D01*
X142667381Y-97088936D01*
X142498000Y-97054635D01*
X141498000Y-97054635D01*
X141339763Y-97084409D01*
X141194433Y-97177927D01*
X141096936Y-97320619D01*
X141062635Y-97490000D01*
X141062635Y-98740000D01*
X141092409Y-98898237D01*
X141185927Y-99043567D01*
X141328619Y-99141064D01*
X141367800Y-99148998D01*
X141367800Y-99278963D01*
X141186962Y-99459800D01*
X139223000Y-99459800D01*
X138981833Y-99507771D01*
X138777381Y-99644381D01*
X138736962Y-99684800D01*
X138139458Y-99684800D01*
X138060073Y-99561433D01*
X137917381Y-99463936D01*
X137748000Y-99429635D01*
X136748000Y-99429635D01*
X136589763Y-99459409D01*
X136444433Y-99552927D01*
X136346936Y-99695619D01*
X136312635Y-99865000D01*
X136312635Y-100394798D01*
X136047517Y-100129679D01*
X136051567Y-100127073D01*
X136149064Y-99984381D01*
X136183365Y-99815000D01*
X136183365Y-98915000D01*
X136153591Y-98756763D01*
X136060073Y-98611433D01*
X135962479Y-98544750D01*
X136321000Y-98544750D01*
X136321000Y-98949935D01*
X136386007Y-99106876D01*
X136506124Y-99226993D01*
X136663064Y-99292000D01*
X137118250Y-99292000D01*
X137225000Y-99185250D01*
X137225000Y-98438000D01*
X137271000Y-98438000D01*
X137271000Y-99185250D01*
X137377750Y-99292000D01*
X137832936Y-99292000D01*
X137989876Y-99226993D01*
X138109993Y-99106876D01*
X138175000Y-98949935D01*
X138175000Y-98544750D01*
X138068250Y-98438000D01*
X137271000Y-98438000D01*
X137225000Y-98438000D01*
X136427750Y-98438000D01*
X136321000Y-98544750D01*
X135962479Y-98544750D01*
X135917381Y-98513936D01*
X135748000Y-98479635D01*
X134748000Y-98479635D01*
X134589763Y-98509409D01*
X134444433Y-98602927D01*
X134346936Y-98745619D01*
X134312635Y-98915000D01*
X134312635Y-99815000D01*
X134342409Y-99973237D01*
X134435927Y-100118567D01*
X134578619Y-100216064D01*
X134618339Y-100224108D01*
X134665771Y-100462567D01*
X134802381Y-100667019D01*
X135517363Y-101382000D01*
X133281000Y-101382000D01*
X133281000Y-100090000D01*
X133241165Y-99889735D01*
X133219495Y-99780791D01*
X133044342Y-99518658D01*
X131569342Y-98043658D01*
X131324510Y-97880065D01*
X136321000Y-97880065D01*
X136321000Y-98285250D01*
X136427750Y-98392000D01*
X137225000Y-98392000D01*
X137225000Y-97644750D01*
X137271000Y-97644750D01*
X137271000Y-98392000D01*
X138068250Y-98392000D01*
X138175000Y-98285250D01*
X138175000Y-97880065D01*
X138109993Y-97723124D01*
X137989876Y-97603007D01*
X137832936Y-97538000D01*
X137377750Y-97538000D01*
X137271000Y-97644750D01*
X137225000Y-97644750D01*
X137118250Y-97538000D01*
X136663064Y-97538000D01*
X136506124Y-97603007D01*
X136386007Y-97723124D01*
X136321000Y-97880065D01*
X131324510Y-97880065D01*
X131307209Y-97868505D01*
X131139707Y-97835187D01*
X131060073Y-97711433D01*
X130917381Y-97613936D01*
X130748000Y-97579635D01*
X129848000Y-97579635D01*
X129689763Y-97609409D01*
X129544433Y-97702927D01*
X129446936Y-97845619D01*
X129412635Y-98015000D01*
X129412635Y-99215000D01*
X129442409Y-99373237D01*
X129535927Y-99518567D01*
X129678619Y-99616064D01*
X129848000Y-99650365D01*
X130748000Y-99650365D01*
X130868086Y-99627770D01*
X131665000Y-100424684D01*
X131665000Y-102323082D01*
X128460501Y-105527581D01*
X128147963Y-105215043D01*
X128147961Y-105215040D01*
X126897961Y-103965041D01*
X126347415Y-103597177D01*
X125698001Y-103468001D01*
X120125921Y-103468001D01*
X119295000Y-102637080D01*
X119295000Y-98965000D01*
X119812635Y-98965000D01*
X119812635Y-99865000D01*
X119842409Y-100023237D01*
X119935927Y-100168567D01*
X120078619Y-100266064D01*
X120248000Y-100300365D01*
X121248000Y-100300365D01*
X121406237Y-100270591D01*
X121551567Y-100177073D01*
X121641672Y-100045200D01*
X121812635Y-100045200D01*
X121812635Y-100815000D01*
X121842409Y-100973237D01*
X121935927Y-101118567D01*
X122078619Y-101216064D01*
X122248000Y-101250365D01*
X123248000Y-101250365D01*
X123406237Y-101220591D01*
X123551567Y-101127073D01*
X123641672Y-100995200D01*
X124861962Y-100995200D01*
X125812635Y-101945873D01*
X125812635Y-102740000D01*
X125842409Y-102898237D01*
X125935927Y-103043567D01*
X126078619Y-103141064D01*
X126248000Y-103175365D01*
X127248000Y-103175365D01*
X127406237Y-103145591D01*
X127551567Y-103052073D01*
X127649064Y-102909381D01*
X127683365Y-102740000D01*
X127683365Y-101490000D01*
X128012635Y-101490000D01*
X128012635Y-102740000D01*
X128042409Y-102898237D01*
X128135927Y-103043567D01*
X128278619Y-103141064D01*
X128448000Y-103175365D01*
X129448000Y-103175365D01*
X129606237Y-103145591D01*
X129751567Y-103052073D01*
X129849064Y-102909381D01*
X129883365Y-102740000D01*
X129883365Y-102679781D01*
X129972735Y-102716891D01*
X130222171Y-102717109D01*
X130452703Y-102621855D01*
X130629235Y-102445631D01*
X130724891Y-102215265D01*
X130725109Y-101965829D01*
X130629855Y-101735297D01*
X130453631Y-101558765D01*
X130223265Y-101463109D01*
X129973829Y-101462891D01*
X129883365Y-101500270D01*
X129883365Y-101490000D01*
X129853591Y-101331763D01*
X129760073Y-101186433D01*
X129617381Y-101088936D01*
X129448000Y-101054635D01*
X128448000Y-101054635D01*
X128289763Y-101084409D01*
X128144433Y-101177927D01*
X128046936Y-101320619D01*
X128012635Y-101490000D01*
X127683365Y-101490000D01*
X127653591Y-101331763D01*
X127560073Y-101186433D01*
X127417381Y-101088936D01*
X127248000Y-101054635D01*
X126703873Y-101054635D01*
X125568619Y-99919381D01*
X125364167Y-99782771D01*
X125123000Y-99734800D01*
X124944438Y-99734800D01*
X125434038Y-99245200D01*
X126118317Y-99245200D01*
X126142409Y-99373237D01*
X126235927Y-99518567D01*
X126378619Y-99616064D01*
X126418600Y-99624160D01*
X126418600Y-99775364D01*
X126371109Y-99889735D01*
X126370891Y-100139171D01*
X126466145Y-100369703D01*
X126642369Y-100546235D01*
X126872735Y-100641891D01*
X127122171Y-100642109D01*
X127352703Y-100546855D01*
X127529235Y-100370631D01*
X127624891Y-100140265D01*
X127625109Y-99890829D01*
X127577400Y-99775365D01*
X127577400Y-99626017D01*
X127606237Y-99620591D01*
X127751567Y-99527073D01*
X127849064Y-99384381D01*
X127883365Y-99215000D01*
X127883365Y-98015000D01*
X127853591Y-97856763D01*
X127760073Y-97711433D01*
X127617381Y-97613936D01*
X127448000Y-97579635D01*
X126548000Y-97579635D01*
X126389763Y-97609409D01*
X126244433Y-97702927D01*
X126146936Y-97845619D01*
X126118751Y-97984800D01*
X125173005Y-97984800D01*
X125173000Y-97984799D01*
X124931833Y-98032771D01*
X124727381Y-98169381D01*
X124111962Y-98784800D01*
X123675000Y-98784800D01*
X123675000Y-98594750D01*
X123568250Y-98488000D01*
X122771000Y-98488000D01*
X122771000Y-98508000D01*
X122725000Y-98508000D01*
X122725000Y-98488000D01*
X121927750Y-98488000D01*
X121821000Y-98594750D01*
X121821000Y-98784800D01*
X121639458Y-98784800D01*
X121560073Y-98661433D01*
X121556000Y-98658650D01*
X121556000Y-97930065D01*
X121821000Y-97930065D01*
X121821000Y-98335250D01*
X121927750Y-98442000D01*
X122725000Y-98442000D01*
X122725000Y-97694750D01*
X122771000Y-97694750D01*
X122771000Y-98442000D01*
X123568250Y-98442000D01*
X123675000Y-98335250D01*
X123675000Y-97930065D01*
X123609993Y-97773124D01*
X123489876Y-97653007D01*
X123332936Y-97588000D01*
X122877750Y-97588000D01*
X122771000Y-97694750D01*
X122725000Y-97694750D01*
X122618250Y-97588000D01*
X122163064Y-97588000D01*
X122006124Y-97653007D01*
X121886007Y-97773124D01*
X121821000Y-97930065D01*
X121556000Y-97930065D01*
X121556000Y-97824684D01*
X125157684Y-94223000D01*
X125467343Y-94223000D01*
X125525480Y-94363703D01*
X125996816Y-94835862D01*
X126612961Y-95091708D01*
X127280112Y-95092290D01*
X127896703Y-94837520D01*
X128368862Y-94366184D01*
X128605365Y-93796622D01*
X137220666Y-93796622D01*
X137513416Y-94505132D01*
X138055017Y-95047678D01*
X138763014Y-95341665D01*
X139529622Y-95342334D01*
X140238132Y-95049584D01*
X140780678Y-94507983D01*
X141074665Y-93799986D01*
X141075334Y-93033378D01*
X140782584Y-92324868D01*
X140240983Y-91782322D01*
X139532986Y-91488335D01*
X138766378Y-91487666D01*
X138057868Y-91780416D01*
X137515322Y-92322017D01*
X137221335Y-93030014D01*
X137220666Y-93796622D01*
X128605365Y-93796622D01*
X128624708Y-93750039D01*
X128625290Y-93082888D01*
X128370520Y-92466297D01*
X127899184Y-91994138D01*
X127283039Y-91738292D01*
X126615888Y-91737710D01*
X125999297Y-91992480D01*
X125527138Y-92463816D01*
X125467683Y-92607000D01*
X124823000Y-92607000D01*
X124565092Y-92658301D01*
X124513791Y-92668505D01*
X124251658Y-92843658D01*
X120176658Y-96918658D01*
X120001505Y-97180791D01*
X120000383Y-97186433D01*
X119940000Y-97490000D01*
X119940000Y-98659415D01*
X119846936Y-98795619D01*
X119812635Y-98965000D01*
X119295000Y-98965000D01*
X119295000Y-97517920D01*
X121472960Y-95339960D01*
X121840824Y-94789414D01*
X121970000Y-94140000D01*
X121970000Y-87746622D01*
X123070666Y-87746622D01*
X123363416Y-88455132D01*
X123905017Y-88997678D01*
X124613014Y-89291665D01*
X125379622Y-89292334D01*
X126088132Y-88999584D01*
X126630678Y-88457983D01*
X126924665Y-87749986D01*
X126925334Y-86983378D01*
X126632584Y-86274868D01*
X126090983Y-85732322D01*
X125382986Y-85438335D01*
X124616378Y-85437666D01*
X123907868Y-85730416D01*
X123365322Y-86272017D01*
X123071335Y-86980014D01*
X123070666Y-87746622D01*
X121970000Y-87746622D01*
X121970000Y-84842920D01*
X123700920Y-83112000D01*
X126948000Y-83112000D01*
X127048107Y-83092088D01*
X127280112Y-83092290D01*
X127496423Y-83002912D01*
X127597414Y-82982824D01*
X127682282Y-82926117D01*
X127896703Y-82837520D01*
X128062346Y-82672165D01*
X128147960Y-82614960D01*
X128204666Y-82530094D01*
X128368862Y-82366184D01*
X128458617Y-82150030D01*
X128515824Y-82064414D01*
X128535737Y-81964305D01*
X128624708Y-81750039D01*
X128624710Y-81746622D01*
X137270666Y-81746622D01*
X137563416Y-82455132D01*
X138105017Y-82997678D01*
X138813014Y-83291665D01*
X139579622Y-83292334D01*
X140288132Y-82999584D01*
X140830678Y-82457983D01*
X141124665Y-81749986D01*
X141125334Y-80983378D01*
X140832584Y-80274868D01*
X140290983Y-79732322D01*
X139582986Y-79438335D01*
X138816378Y-79437666D01*
X138107868Y-79730416D01*
X137565322Y-80272017D01*
X137271335Y-80980014D01*
X137270666Y-81746622D01*
X128624710Y-81746622D01*
X128624912Y-81515989D01*
X128645000Y-81415000D01*
X128625088Y-81314893D01*
X128625290Y-81082888D01*
X128539828Y-80876054D01*
X130356382Y-79059500D01*
X144104618Y-79059500D01*
X145006559Y-79961441D01*
X145248092Y-80122828D01*
X145533000Y-80179500D01*
X145732635Y-80179500D01*
X145732635Y-80285000D01*
X145762409Y-80443237D01*
X145855927Y-80588567D01*
X145998619Y-80686064D01*
X146168000Y-80720365D01*
X147868000Y-80720365D01*
X148026237Y-80690591D01*
X148171567Y-80597073D01*
X148269064Y-80454381D01*
X148303365Y-80285000D01*
X148303365Y-79572454D01*
X148378206Y-79948705D01*
X148655025Y-80362993D01*
X149069313Y-80639812D01*
X149558000Y-80737018D01*
X150046687Y-80639812D01*
X150460975Y-80362993D01*
X150737794Y-79948705D01*
X150835000Y-79460018D01*
X150835000Y-79458002D01*
X150927954Y-79458002D01*
X150840522Y-79657452D01*
X151021371Y-80121735D01*
X151366127Y-80481468D01*
X151822303Y-80681886D01*
X151875549Y-80692476D01*
X152075000Y-80605024D01*
X152075000Y-79458000D01*
X152121000Y-79458000D01*
X152121000Y-80605024D01*
X152320451Y-80692476D01*
X152373697Y-80681886D01*
X152829873Y-80481468D01*
X153174629Y-80121735D01*
X153355478Y-79657452D01*
X153268045Y-79458000D01*
X152121000Y-79458000D01*
X152075000Y-79458000D01*
X152055000Y-79458000D01*
X152055000Y-79412000D01*
X152075000Y-79412000D01*
X152075000Y-79392000D01*
X152121000Y-79392000D01*
X152121000Y-79412000D01*
X153268045Y-79412000D01*
X153355478Y-79212548D01*
X153174629Y-78748265D01*
X152829873Y-78388532D01*
X152536180Y-78259500D01*
X153269400Y-78259500D01*
X153554308Y-78202828D01*
X153795841Y-78041441D01*
X155527782Y-76309500D01*
X155572373Y-76309500D01*
X155805408Y-76658262D01*
X156224109Y-76938029D01*
X156718000Y-77036270D01*
X157211891Y-76938029D01*
X157630592Y-76658262D01*
X157910359Y-76239561D01*
X157988000Y-75849233D01*
X158065641Y-76239561D01*
X158065641Y-76239561D01*
G37*
X158065641Y-76239561D02*
X158345408Y-76658262D01*
X158764109Y-76938029D01*
X159258000Y-77036270D01*
X159674606Y-76953402D01*
X160945900Y-78224695D01*
X160945902Y-78224698D01*
X161133873Y-78350296D01*
X161355600Y-78394400D01*
X173258004Y-78394400D01*
X175468600Y-80604995D01*
X175468600Y-87059326D01*
X174683365Y-87844561D01*
X174683365Y-87265000D01*
X174653591Y-87106763D01*
X174560073Y-86961433D01*
X174417381Y-86863936D01*
X174248000Y-86829635D01*
X173248000Y-86829635D01*
X173089763Y-86859409D01*
X172944433Y-86952927D01*
X172846936Y-87095619D01*
X172812635Y-87265000D01*
X172812635Y-88080970D01*
X172683365Y-88210239D01*
X172683365Y-87265000D01*
X172653591Y-87106763D01*
X172560073Y-86961433D01*
X172417381Y-86863936D01*
X172248000Y-86829635D01*
X171248000Y-86829635D01*
X171089763Y-86859409D01*
X170944433Y-86952927D01*
X170846936Y-87095619D01*
X170812635Y-87265000D01*
X170812635Y-87285600D01*
X170408365Y-87285600D01*
X170408365Y-87240000D01*
X170378591Y-87081763D01*
X170285073Y-86936433D01*
X170142381Y-86838936D01*
X169973000Y-86804635D01*
X168973000Y-86804635D01*
X168814763Y-86834409D01*
X168669433Y-86927927D01*
X168571936Y-87070619D01*
X168537635Y-87240000D01*
X168537635Y-88490000D01*
X168567409Y-88648237D01*
X168660927Y-88793567D01*
X168803619Y-88891064D01*
X168973000Y-88925365D01*
X169973000Y-88925365D01*
X170131237Y-88895591D01*
X170273109Y-88804298D01*
X170196109Y-88989735D01*
X170195891Y-89239171D01*
X170291145Y-89469703D01*
X170467369Y-89646235D01*
X170697735Y-89741891D01*
X170947171Y-89742109D01*
X171062635Y-89694400D01*
X172598000Y-89694400D01*
X172819727Y-89650296D01*
X173007698Y-89524698D01*
X173404302Y-89128094D01*
X173287704Y-89302595D01*
X173243600Y-89524322D01*
X173243600Y-91832824D01*
X173287704Y-92054551D01*
X173413302Y-92242522D01*
X177618600Y-96447819D01*
X177618600Y-105943446D01*
X177662704Y-106165173D01*
X177668600Y-106173997D01*
X177668600Y-109259326D01*
X176433365Y-110494561D01*
X176433365Y-108615000D01*
X176403591Y-108456763D01*
X176310073Y-108311433D01*
X176167381Y-108213936D01*
X175998000Y-108179635D01*
X173498000Y-108179635D01*
X173339763Y-108209409D01*
X173194433Y-108302927D01*
X173096936Y-108445619D01*
X173062635Y-108615000D01*
X173062635Y-111115000D01*
X173092409Y-111273237D01*
X173185927Y-111418567D01*
X173328619Y-111516064D01*
X173498000Y-111550365D01*
X175377561Y-111550365D01*
X174442326Y-112485600D01*
X164346303Y-112485600D01*
X164546423Y-112402912D01*
X164647414Y-112382824D01*
X164732282Y-112326117D01*
X164946703Y-112237520D01*
X165112346Y-112072165D01*
X165197960Y-112014960D01*
X165254666Y-111930094D01*
X165418862Y-111766184D01*
X165508617Y-111550030D01*
X165565824Y-111464414D01*
X165585737Y-111364305D01*
X165674708Y-111150039D01*
X165674912Y-110915989D01*
X165695000Y-110815000D01*
X165675088Y-110714893D01*
X165675290Y-110482888D01*
X165585912Y-110266577D01*
X165565824Y-110165586D01*
X165509117Y-110080718D01*
X165420520Y-109866297D01*
X165255165Y-109700654D01*
X165197960Y-109615040D01*
X160987960Y-105405040D01*
X160750872Y-105246622D01*
X164020666Y-105246622D01*
X164313416Y-105955132D01*
X164855017Y-106497678D01*
X165563014Y-106791665D01*
X166329622Y-106792334D01*
X167038132Y-106499584D01*
X167580678Y-105957983D01*
X167874665Y-105249986D01*
X167874711Y-105197112D01*
X173070710Y-105197112D01*
X173325480Y-105813703D01*
X173796816Y-106285862D01*
X174412961Y-106541708D01*
X175080112Y-106542290D01*
X175696703Y-106287520D01*
X176168862Y-105816184D01*
X176424708Y-105200039D01*
X176425290Y-104532888D01*
X176170520Y-103916297D01*
X175699184Y-103444138D01*
X175083039Y-103188292D01*
X174415888Y-103187710D01*
X173799297Y-103442480D01*
X173327138Y-103913816D01*
X173071292Y-104529961D01*
X173070710Y-105197112D01*
X167874711Y-105197112D01*
X167875334Y-104483378D01*
X167582584Y-103774868D01*
X167040983Y-103232322D01*
X166332986Y-102938335D01*
X165566378Y-102937666D01*
X164857868Y-103230416D01*
X164315322Y-103772017D01*
X164021335Y-104480014D01*
X164020666Y-105246622D01*
X160750872Y-105246622D01*
X160437414Y-105037176D01*
X159788000Y-104908000D01*
X157106895Y-104908000D01*
X158698948Y-103315947D01*
X158836950Y-103109412D01*
X158929160Y-102971410D01*
X159010000Y-102565000D01*
X159010000Y-92615000D01*
X158929160Y-92208590D01*
X158920809Y-92196092D01*
X158698947Y-91864052D01*
X158035000Y-91200106D01*
X158035000Y-91111260D01*
X158078619Y-91141064D01*
X158248000Y-91175365D01*
X159248000Y-91175365D01*
X159406237Y-91145591D01*
X159551567Y-91052073D01*
X159649064Y-90909381D01*
X159672852Y-90791913D01*
X159897171Y-90792109D01*
X160013403Y-90744083D01*
X160042409Y-90898237D01*
X160135927Y-91043567D01*
X160278619Y-91141064D01*
X160448000Y-91175365D01*
X161448000Y-91175365D01*
X161606237Y-91145591D01*
X161751567Y-91052073D01*
X161849064Y-90909381D01*
X161882312Y-90745200D01*
X162086962Y-90745200D01*
X163103945Y-91762183D01*
X163046936Y-91845619D01*
X163012635Y-92015000D01*
X163012635Y-92895712D01*
X162902381Y-92969381D01*
X162902379Y-92969384D01*
X162886963Y-92984800D01*
X162127683Y-92984800D01*
X162103591Y-92856763D01*
X162010073Y-92711433D01*
X161867381Y-92613936D01*
X161698000Y-92579635D01*
X160798000Y-92579635D01*
X160639763Y-92609409D01*
X160494433Y-92702927D01*
X160396936Y-92845619D01*
X160362635Y-93015000D01*
X160362635Y-94215000D01*
X160392409Y-94373237D01*
X160485927Y-94518567D01*
X160628619Y-94616064D01*
X160798000Y-94650365D01*
X161698000Y-94650365D01*
X161856237Y-94620591D01*
X162001567Y-94527073D01*
X162023652Y-94494750D01*
X163021000Y-94494750D01*
X163021000Y-94899935D01*
X163086007Y-95056876D01*
X163206124Y-95176993D01*
X163363064Y-95242000D01*
X163818250Y-95242000D01*
X163925000Y-95135250D01*
X163925000Y-94388000D01*
X163971000Y-94388000D01*
X163971000Y-95135250D01*
X164077750Y-95242000D01*
X164532936Y-95242000D01*
X164689876Y-95176993D01*
X164809993Y-95056876D01*
X164875000Y-94899935D01*
X164875000Y-94494750D01*
X164768250Y-94388000D01*
X163971000Y-94388000D01*
X163925000Y-94388000D01*
X163127750Y-94388000D01*
X163021000Y-94494750D01*
X162023652Y-94494750D01*
X162099064Y-94384381D01*
X162127249Y-94245200D01*
X163030950Y-94245200D01*
X163127750Y-94342000D01*
X163925000Y-94342000D01*
X163925000Y-94322000D01*
X163971000Y-94322000D01*
X163971000Y-94342000D01*
X164768250Y-94342000D01*
X164875000Y-94235250D01*
X164875000Y-94045200D01*
X165056542Y-94045200D01*
X165135927Y-94168567D01*
X165140000Y-94171350D01*
X165140000Y-96530315D01*
X164473641Y-97196675D01*
X164333039Y-97138292D01*
X163665888Y-97137710D01*
X163049297Y-97392480D01*
X162577138Y-97863816D01*
X162321292Y-98479961D01*
X162320710Y-99147112D01*
X162575480Y-99763703D01*
X163046816Y-100235862D01*
X163662961Y-100491708D01*
X164330112Y-100492290D01*
X164946703Y-100237520D01*
X164987181Y-100197112D01*
X173070710Y-100197112D01*
X173325480Y-100813703D01*
X173796816Y-101285862D01*
X174412961Y-101541708D01*
X175080112Y-101542290D01*
X175696703Y-101287520D01*
X176168862Y-100816184D01*
X176424708Y-100200039D01*
X176425290Y-99532888D01*
X176170520Y-98916297D01*
X175699184Y-98444138D01*
X175083039Y-98188292D01*
X174415888Y-98187710D01*
X173799297Y-98442480D01*
X173327138Y-98913816D01*
X173071292Y-99529961D01*
X173070710Y-100197112D01*
X164987181Y-100197112D01*
X165418862Y-99766184D01*
X165674708Y-99150039D01*
X165675290Y-98482888D01*
X165616085Y-98339600D01*
X166519342Y-97436343D01*
X166689073Y-97182322D01*
X166694495Y-97174208D01*
X166756000Y-96865000D01*
X166756000Y-94170585D01*
X166849064Y-94034381D01*
X166857160Y-93994400D01*
X166893570Y-93994400D01*
X166947735Y-94016891D01*
X167197171Y-94017109D01*
X167427703Y-93921855D01*
X167604235Y-93745631D01*
X167699891Y-93515265D01*
X167700109Y-93265829D01*
X167604855Y-93035297D01*
X167428631Y-92858765D01*
X167198265Y-92763109D01*
X166948829Y-92762891D01*
X166851293Y-92803192D01*
X166760073Y-92661433D01*
X166617381Y-92563936D01*
X166448000Y-92529635D01*
X165448000Y-92529635D01*
X165289763Y-92559409D01*
X165144433Y-92652927D01*
X165054328Y-92784800D01*
X164883365Y-92784800D01*
X164883365Y-92015000D01*
X164853591Y-91856763D01*
X164760073Y-91711433D01*
X164617381Y-91613936D01*
X164555609Y-91601427D01*
X164530229Y-91473833D01*
X164490395Y-91414217D01*
X164393619Y-91269381D01*
X164393616Y-91269379D01*
X162793619Y-89669381D01*
X162589167Y-89532771D01*
X162348000Y-89484800D01*
X161882387Y-89484800D01*
X161853591Y-89331763D01*
X161760073Y-89186433D01*
X161617381Y-89088936D01*
X161448000Y-89054635D01*
X160448000Y-89054635D01*
X160289763Y-89084409D01*
X160144433Y-89177927D01*
X160046936Y-89320619D01*
X160012635Y-89490000D01*
X160012635Y-89585599D01*
X159898265Y-89538109D01*
X159734896Y-89537966D01*
X159723000Y-89535600D01*
X159683365Y-89535600D01*
X159683365Y-89490000D01*
X159653591Y-89331763D01*
X159560073Y-89186433D01*
X159417381Y-89088936D01*
X159248000Y-89054635D01*
X158410260Y-89054635D01*
X158537895Y-88927000D01*
X167273000Y-88927000D01*
X167281220Y-88925365D01*
X167773000Y-88925365D01*
X167931237Y-88895591D01*
X168076567Y-88802073D01*
X168174064Y-88659381D01*
X168208365Y-88490000D01*
X168208365Y-88339947D01*
X168254160Y-88271410D01*
X168335000Y-87865000D01*
X168254160Y-87458590D01*
X168208365Y-87390053D01*
X168208365Y-87240000D01*
X168178591Y-87081763D01*
X168085073Y-86936433D01*
X167942381Y-86838936D01*
X167878200Y-86825939D01*
X167878200Y-85150866D01*
X167906237Y-85145591D01*
X168051567Y-85052073D01*
X168149064Y-84909381D01*
X168183365Y-84740000D01*
X168183365Y-83490000D01*
X168512635Y-83490000D01*
X168512635Y-84740000D01*
X168542409Y-84898237D01*
X168635927Y-85043567D01*
X168778619Y-85141064D01*
X168948000Y-85175365D01*
X169948000Y-85175365D01*
X170106237Y-85145591D01*
X170179877Y-85098204D01*
X170121109Y-85239735D01*
X170120891Y-85489171D01*
X170216145Y-85719703D01*
X170392369Y-85896235D01*
X170622735Y-85991891D01*
X170872171Y-85992109D01*
X170987635Y-85944400D01*
X172598000Y-85944400D01*
X172819727Y-85900296D01*
X173007698Y-85774698D01*
X173632030Y-85150365D01*
X174248000Y-85150365D01*
X174406237Y-85120591D01*
X174551567Y-85027073D01*
X174649064Y-84884381D01*
X174683365Y-84715000D01*
X174683365Y-83515000D01*
X174653591Y-83356763D01*
X174560073Y-83211433D01*
X174417381Y-83113936D01*
X174248000Y-83079635D01*
X173248000Y-83079635D01*
X173089763Y-83109409D01*
X172944433Y-83202927D01*
X172846936Y-83345619D01*
X172812635Y-83515000D01*
X172812635Y-84330970D01*
X172683365Y-84460239D01*
X172683365Y-83515000D01*
X172653591Y-83356763D01*
X172560073Y-83211433D01*
X172417381Y-83113936D01*
X172248000Y-83079635D01*
X171248000Y-83079635D01*
X171089763Y-83109409D01*
X170944433Y-83202927D01*
X170846936Y-83345619D01*
X170812635Y-83515000D01*
X170812635Y-83535600D01*
X170383365Y-83535600D01*
X170383365Y-83490000D01*
X170353591Y-83331763D01*
X170260073Y-83186433D01*
X170117381Y-83088936D01*
X169948000Y-83054635D01*
X168948000Y-83054635D01*
X168789763Y-83084409D01*
X168644433Y-83177927D01*
X168546936Y-83320619D01*
X168512635Y-83490000D01*
X168183365Y-83490000D01*
X168153591Y-83331763D01*
X168060073Y-83186433D01*
X167917381Y-83088936D01*
X167878200Y-83081002D01*
X167878200Y-81650866D01*
X167906237Y-81645591D01*
X168051567Y-81552073D01*
X168149064Y-81409381D01*
X168183365Y-81240000D01*
X168183365Y-79990000D01*
X168512635Y-79990000D01*
X168512635Y-81240000D01*
X168542409Y-81398237D01*
X168635927Y-81543567D01*
X168778619Y-81641064D01*
X168948000Y-81675365D01*
X169948000Y-81675365D01*
X170106237Y-81645591D01*
X170221015Y-81571733D01*
X170220891Y-81714171D01*
X170316145Y-81944703D01*
X170492369Y-82121235D01*
X170722735Y-82216891D01*
X170972171Y-82217109D01*
X171087635Y-82169400D01*
X172873000Y-82169400D01*
X173094727Y-82125296D01*
X173282698Y-81999698D01*
X173632031Y-81650365D01*
X174248000Y-81650365D01*
X174406237Y-81620591D01*
X174551567Y-81527073D01*
X174649064Y-81384381D01*
X174683365Y-81215000D01*
X174683365Y-80015000D01*
X174653591Y-79856763D01*
X174560073Y-79711433D01*
X174417381Y-79613936D01*
X174248000Y-79579635D01*
X173248000Y-79579635D01*
X173089763Y-79609409D01*
X172944433Y-79702927D01*
X172846936Y-79845619D01*
X172812635Y-80015000D01*
X172812635Y-80830969D01*
X172683365Y-80960239D01*
X172683365Y-80015000D01*
X172653591Y-79856763D01*
X172560073Y-79711433D01*
X172417381Y-79613936D01*
X172248000Y-79579635D01*
X171248000Y-79579635D01*
X171089763Y-79609409D01*
X170944433Y-79702927D01*
X170846936Y-79845619D01*
X170812635Y-80015000D01*
X170812635Y-80035600D01*
X170383365Y-80035600D01*
X170383365Y-79990000D01*
X170353591Y-79831763D01*
X170260073Y-79686433D01*
X170117381Y-79588936D01*
X169948000Y-79554635D01*
X168948000Y-79554635D01*
X168789763Y-79584409D01*
X168644433Y-79677927D01*
X168546936Y-79820619D01*
X168512635Y-79990000D01*
X168183365Y-79990000D01*
X168153591Y-79831763D01*
X168060073Y-79686433D01*
X167917381Y-79588936D01*
X167748000Y-79554635D01*
X166748000Y-79554635D01*
X166589763Y-79584409D01*
X166444433Y-79677927D01*
X166346936Y-79820619D01*
X166312635Y-79990000D01*
X166312635Y-81240000D01*
X166342409Y-81398237D01*
X166435927Y-81543567D01*
X166578619Y-81641064D01*
X166617800Y-81648998D01*
X166617800Y-83079134D01*
X166589763Y-83084409D01*
X166444433Y-83177927D01*
X166346936Y-83320619D01*
X166312635Y-83490000D01*
X166312635Y-84740000D01*
X166342409Y-84898237D01*
X166435927Y-85043567D01*
X166578619Y-85141064D01*
X166617800Y-85148998D01*
X166617800Y-86803000D01*
X158098000Y-86803000D01*
X157691590Y-86883840D01*
X157347052Y-87114053D01*
X156222053Y-88239053D01*
X155991840Y-88583590D01*
X155911000Y-88990000D01*
X155911000Y-91640000D01*
X155985592Y-92015000D01*
X155991840Y-92046410D01*
X156222053Y-92390947D01*
X156886000Y-93054895D01*
X156886000Y-102125105D01*
X154103106Y-104908000D01*
X149398000Y-104908000D01*
X148748586Y-105037176D01*
X148198040Y-105405040D01*
X144678040Y-108925040D01*
X144310176Y-109475586D01*
X144302108Y-109516148D01*
X143683000Y-109393000D01*
X143055981Y-109393000D01*
X143183414Y-109265789D01*
X143324839Y-108925201D01*
X143325161Y-108556417D01*
X143206000Y-108268026D01*
X143206000Y-102673000D01*
X143224431Y-102673000D01*
X143285927Y-102768567D01*
X143428619Y-102866064D01*
X143598000Y-102900365D01*
X144498000Y-102900365D01*
X144656237Y-102870591D01*
X144801567Y-102777073D01*
X144899064Y-102634381D01*
X144933365Y-102465000D01*
X144933365Y-102369400D01*
X145033364Y-102369400D01*
X145147735Y-102416891D01*
X145397171Y-102417109D01*
X145627703Y-102321855D01*
X145804235Y-102145631D01*
X145899891Y-101915265D01*
X145900109Y-101665829D01*
X145804855Y-101435297D01*
X145628631Y-101258765D01*
X145398265Y-101163109D01*
X145148829Y-101162891D01*
X145033365Y-101210600D01*
X144923129Y-101210600D01*
X144903591Y-101106763D01*
X144810073Y-100961433D01*
X144667381Y-100863936D01*
X144498000Y-100829635D01*
X143598000Y-100829635D01*
X143439763Y-100859409D01*
X143294433Y-100952927D01*
X143244234Y-101026396D01*
X142630819Y-100412981D01*
X142426367Y-100276371D01*
X142198243Y-100230994D01*
X142443616Y-99985621D01*
X142443619Y-99985619D01*
X142557623Y-99815000D01*
X142580229Y-99781168D01*
X142628200Y-99540000D01*
X142628200Y-99196622D01*
X149870666Y-99196622D01*
X150163416Y-99905132D01*
X150705017Y-100447678D01*
X151413014Y-100741665D01*
X152179622Y-100742334D01*
X152888132Y-100449584D01*
X153430678Y-99907983D01*
X153724665Y-99199986D01*
X153725334Y-98433378D01*
X153432584Y-97724868D01*
X152890983Y-97182322D01*
X152182986Y-96888335D01*
X151416378Y-96887666D01*
X150707868Y-97180416D01*
X150165322Y-97722017D01*
X149871335Y-98430014D01*
X149870666Y-99196622D01*
X142628200Y-99196622D01*
X142628200Y-99150866D01*
X142656237Y-99145591D01*
X142801567Y-99052073D01*
X142899064Y-98909381D01*
X142933365Y-98740000D01*
X142933365Y-97490000D01*
X143262635Y-97490000D01*
X143262635Y-98740000D01*
X143292409Y-98898237D01*
X143385927Y-99043567D01*
X143528619Y-99141064D01*
X143698000Y-99175365D01*
X144698000Y-99175365D01*
X144856237Y-99145591D01*
X145001567Y-99052073D01*
X145099064Y-98909381D01*
X145132967Y-98741965D01*
X145297171Y-98742109D01*
X145527703Y-98646855D01*
X145704235Y-98470631D01*
X145799891Y-98240265D01*
X145800109Y-97990829D01*
X145704855Y-97760297D01*
X145528631Y-97583765D01*
X145298265Y-97488109D01*
X145132982Y-97487965D01*
X145103591Y-97331763D01*
X145010073Y-97186433D01*
X144867381Y-97088936D01*
X144698000Y-97054635D01*
X143698000Y-97054635D01*
X143539763Y-97084409D01*
X143394433Y-97177927D01*
X143296936Y-97320619D01*
X143262635Y-97490000D01*
X142933365Y-97490000D01*
X142903591Y-97331763D01*
X142810073Y-97186433D01*
X142667381Y-97088936D01*
X142498000Y-97054635D01*
X141498000Y-97054635D01*
X141339763Y-97084409D01*
X141194433Y-97177927D01*
X141096936Y-97320619D01*
X141062635Y-97490000D01*
X141062635Y-98740000D01*
X141092409Y-98898237D01*
X141185927Y-99043567D01*
X141328619Y-99141064D01*
X141367800Y-99148998D01*
X141367800Y-99278963D01*
X141186962Y-99459800D01*
X139223000Y-99459800D01*
X138981833Y-99507771D01*
X138777381Y-99644381D01*
X138736962Y-99684800D01*
X138139458Y-99684800D01*
X138060073Y-99561433D01*
X137917381Y-99463936D01*
X137748000Y-99429635D01*
X136748000Y-99429635D01*
X136589763Y-99459409D01*
X136444433Y-99552927D01*
X136346936Y-99695619D01*
X136312635Y-99865000D01*
X136312635Y-100394798D01*
X136047517Y-100129679D01*
X136051567Y-100127073D01*
X136149064Y-99984381D01*
X136183365Y-99815000D01*
X136183365Y-98915000D01*
X136153591Y-98756763D01*
X136060073Y-98611433D01*
X135962479Y-98544750D01*
X136321000Y-98544750D01*
X136321000Y-98949935D01*
X136386007Y-99106876D01*
X136506124Y-99226993D01*
X136663064Y-99292000D01*
X137118250Y-99292000D01*
X137225000Y-99185250D01*
X137225000Y-98438000D01*
X137271000Y-98438000D01*
X137271000Y-99185250D01*
X137377750Y-99292000D01*
X137832936Y-99292000D01*
X137989876Y-99226993D01*
X138109993Y-99106876D01*
X138175000Y-98949935D01*
X138175000Y-98544750D01*
X138068250Y-98438000D01*
X137271000Y-98438000D01*
X137225000Y-98438000D01*
X136427750Y-98438000D01*
X136321000Y-98544750D01*
X135962479Y-98544750D01*
X135917381Y-98513936D01*
X135748000Y-98479635D01*
X134748000Y-98479635D01*
X134589763Y-98509409D01*
X134444433Y-98602927D01*
X134346936Y-98745619D01*
X134312635Y-98915000D01*
X134312635Y-99815000D01*
X134342409Y-99973237D01*
X134435927Y-100118567D01*
X134578619Y-100216064D01*
X134618339Y-100224108D01*
X134665771Y-100462567D01*
X134802381Y-100667019D01*
X135517363Y-101382000D01*
X133281000Y-101382000D01*
X133281000Y-100090000D01*
X133241165Y-99889735D01*
X133219495Y-99780791D01*
X133044342Y-99518658D01*
X131569342Y-98043658D01*
X131324510Y-97880065D01*
X136321000Y-97880065D01*
X136321000Y-98285250D01*
X136427750Y-98392000D01*
X137225000Y-98392000D01*
X137225000Y-97644750D01*
X137271000Y-97644750D01*
X137271000Y-98392000D01*
X138068250Y-98392000D01*
X138175000Y-98285250D01*
X138175000Y-97880065D01*
X138109993Y-97723124D01*
X137989876Y-97603007D01*
X137832936Y-97538000D01*
X137377750Y-97538000D01*
X137271000Y-97644750D01*
X137225000Y-97644750D01*
X137118250Y-97538000D01*
X136663064Y-97538000D01*
X136506124Y-97603007D01*
X136386007Y-97723124D01*
X136321000Y-97880065D01*
X131324510Y-97880065D01*
X131307209Y-97868505D01*
X131139707Y-97835187D01*
X131060073Y-97711433D01*
X130917381Y-97613936D01*
X130748000Y-97579635D01*
X129848000Y-97579635D01*
X129689763Y-97609409D01*
X129544433Y-97702927D01*
X129446936Y-97845619D01*
X129412635Y-98015000D01*
X129412635Y-99215000D01*
X129442409Y-99373237D01*
X129535927Y-99518567D01*
X129678619Y-99616064D01*
X129848000Y-99650365D01*
X130748000Y-99650365D01*
X130868086Y-99627770D01*
X131665000Y-100424684D01*
X131665000Y-102323082D01*
X128460501Y-105527581D01*
X128147963Y-105215043D01*
X128147961Y-105215040D01*
X126897961Y-103965041D01*
X126347415Y-103597177D01*
X125698001Y-103468001D01*
X120125921Y-103468001D01*
X119295000Y-102637080D01*
X119295000Y-98965000D01*
X119812635Y-98965000D01*
X119812635Y-99865000D01*
X119842409Y-100023237D01*
X119935927Y-100168567D01*
X120078619Y-100266064D01*
X120248000Y-100300365D01*
X121248000Y-100300365D01*
X121406237Y-100270591D01*
X121551567Y-100177073D01*
X121641672Y-100045200D01*
X121812635Y-100045200D01*
X121812635Y-100815000D01*
X121842409Y-100973237D01*
X121935927Y-101118567D01*
X122078619Y-101216064D01*
X122248000Y-101250365D01*
X123248000Y-101250365D01*
X123406237Y-101220591D01*
X123551567Y-101127073D01*
X123641672Y-100995200D01*
X124861962Y-100995200D01*
X125812635Y-101945873D01*
X125812635Y-102740000D01*
X125842409Y-102898237D01*
X125935927Y-103043567D01*
X126078619Y-103141064D01*
X126248000Y-103175365D01*
X127248000Y-103175365D01*
X127406237Y-103145591D01*
X127551567Y-103052073D01*
X127649064Y-102909381D01*
X127683365Y-102740000D01*
X127683365Y-101490000D01*
X128012635Y-101490000D01*
X128012635Y-102740000D01*
X128042409Y-102898237D01*
X128135927Y-103043567D01*
X128278619Y-103141064D01*
X128448000Y-103175365D01*
X129448000Y-103175365D01*
X129606237Y-103145591D01*
X129751567Y-103052073D01*
X129849064Y-102909381D01*
X129883365Y-102740000D01*
X129883365Y-102679781D01*
X129972735Y-102716891D01*
X130222171Y-102717109D01*
X130452703Y-102621855D01*
X130629235Y-102445631D01*
X130724891Y-102215265D01*
X130725109Y-101965829D01*
X130629855Y-101735297D01*
X130453631Y-101558765D01*
X130223265Y-101463109D01*
X129973829Y-101462891D01*
X129883365Y-101500270D01*
X129883365Y-101490000D01*
X129853591Y-101331763D01*
X129760073Y-101186433D01*
X129617381Y-101088936D01*
X129448000Y-101054635D01*
X128448000Y-101054635D01*
X128289763Y-101084409D01*
X128144433Y-101177927D01*
X128046936Y-101320619D01*
X128012635Y-101490000D01*
X127683365Y-101490000D01*
X127653591Y-101331763D01*
X127560073Y-101186433D01*
X127417381Y-101088936D01*
X127248000Y-101054635D01*
X126703873Y-101054635D01*
X125568619Y-99919381D01*
X125364167Y-99782771D01*
X125123000Y-99734800D01*
X124944438Y-99734800D01*
X125434038Y-99245200D01*
X126118317Y-99245200D01*
X126142409Y-99373237D01*
X126235927Y-99518567D01*
X126378619Y-99616064D01*
X126418600Y-99624160D01*
X126418600Y-99775364D01*
X126371109Y-99889735D01*
X126370891Y-100139171D01*
X126466145Y-100369703D01*
X126642369Y-100546235D01*
X126872735Y-100641891D01*
X127122171Y-100642109D01*
X127352703Y-100546855D01*
X127529235Y-100370631D01*
X127624891Y-100140265D01*
X127625109Y-99890829D01*
X127577400Y-99775365D01*
X127577400Y-99626017D01*
X127606237Y-99620591D01*
X127751567Y-99527073D01*
X127849064Y-99384381D01*
X127883365Y-99215000D01*
X127883365Y-98015000D01*
X127853591Y-97856763D01*
X127760073Y-97711433D01*
X127617381Y-97613936D01*
X127448000Y-97579635D01*
X126548000Y-97579635D01*
X126389763Y-97609409D01*
X126244433Y-97702927D01*
X126146936Y-97845619D01*
X126118751Y-97984800D01*
X125173005Y-97984800D01*
X125173000Y-97984799D01*
X124931833Y-98032771D01*
X124727381Y-98169381D01*
X124111962Y-98784800D01*
X123675000Y-98784800D01*
X123675000Y-98594750D01*
X123568250Y-98488000D01*
X122771000Y-98488000D01*
X122771000Y-98508000D01*
X122725000Y-98508000D01*
X122725000Y-98488000D01*
X121927750Y-98488000D01*
X121821000Y-98594750D01*
X121821000Y-98784800D01*
X121639458Y-98784800D01*
X121560073Y-98661433D01*
X121556000Y-98658650D01*
X121556000Y-97930065D01*
X121821000Y-97930065D01*
X121821000Y-98335250D01*
X121927750Y-98442000D01*
X122725000Y-98442000D01*
X122725000Y-97694750D01*
X122771000Y-97694750D01*
X122771000Y-98442000D01*
X123568250Y-98442000D01*
X123675000Y-98335250D01*
X123675000Y-97930065D01*
X123609993Y-97773124D01*
X123489876Y-97653007D01*
X123332936Y-97588000D01*
X122877750Y-97588000D01*
X122771000Y-97694750D01*
X122725000Y-97694750D01*
X122618250Y-97588000D01*
X122163064Y-97588000D01*
X122006124Y-97653007D01*
X121886007Y-97773124D01*
X121821000Y-97930065D01*
X121556000Y-97930065D01*
X121556000Y-97824684D01*
X125157684Y-94223000D01*
X125467343Y-94223000D01*
X125525480Y-94363703D01*
X125996816Y-94835862D01*
X126612961Y-95091708D01*
X127280112Y-95092290D01*
X127896703Y-94837520D01*
X128368862Y-94366184D01*
X128605365Y-93796622D01*
X137220666Y-93796622D01*
X137513416Y-94505132D01*
X138055017Y-95047678D01*
X138763014Y-95341665D01*
X139529622Y-95342334D01*
X140238132Y-95049584D01*
X140780678Y-94507983D01*
X141074665Y-93799986D01*
X141075334Y-93033378D01*
X140782584Y-92324868D01*
X140240983Y-91782322D01*
X139532986Y-91488335D01*
X138766378Y-91487666D01*
X138057868Y-91780416D01*
X137515322Y-92322017D01*
X137221335Y-93030014D01*
X137220666Y-93796622D01*
X128605365Y-93796622D01*
X128624708Y-93750039D01*
X128625290Y-93082888D01*
X128370520Y-92466297D01*
X127899184Y-91994138D01*
X127283039Y-91738292D01*
X126615888Y-91737710D01*
X125999297Y-91992480D01*
X125527138Y-92463816D01*
X125467683Y-92607000D01*
X124823000Y-92607000D01*
X124565092Y-92658301D01*
X124513791Y-92668505D01*
X124251658Y-92843658D01*
X120176658Y-96918658D01*
X120001505Y-97180791D01*
X120000383Y-97186433D01*
X119940000Y-97490000D01*
X119940000Y-98659415D01*
X119846936Y-98795619D01*
X119812635Y-98965000D01*
X119295000Y-98965000D01*
X119295000Y-97517920D01*
X121472960Y-95339960D01*
X121840824Y-94789414D01*
X121970000Y-94140000D01*
X121970000Y-87746622D01*
X123070666Y-87746622D01*
X123363416Y-88455132D01*
X123905017Y-88997678D01*
X124613014Y-89291665D01*
X125379622Y-89292334D01*
X126088132Y-88999584D01*
X126630678Y-88457983D01*
X126924665Y-87749986D01*
X126925334Y-86983378D01*
X126632584Y-86274868D01*
X126090983Y-85732322D01*
X125382986Y-85438335D01*
X124616378Y-85437666D01*
X123907868Y-85730416D01*
X123365322Y-86272017D01*
X123071335Y-86980014D01*
X123070666Y-87746622D01*
X121970000Y-87746622D01*
X121970000Y-84842920D01*
X123700920Y-83112000D01*
X126948000Y-83112000D01*
X127048107Y-83092088D01*
X127280112Y-83092290D01*
X127496423Y-83002912D01*
X127597414Y-82982824D01*
X127682282Y-82926117D01*
X127896703Y-82837520D01*
X128062346Y-82672165D01*
X128147960Y-82614960D01*
X128204666Y-82530094D01*
X128368862Y-82366184D01*
X128458617Y-82150030D01*
X128515824Y-82064414D01*
X128535737Y-81964305D01*
X128624708Y-81750039D01*
X128624710Y-81746622D01*
X137270666Y-81746622D01*
X137563416Y-82455132D01*
X138105017Y-82997678D01*
X138813014Y-83291665D01*
X139579622Y-83292334D01*
X140288132Y-82999584D01*
X140830678Y-82457983D01*
X141124665Y-81749986D01*
X141125334Y-80983378D01*
X140832584Y-80274868D01*
X140290983Y-79732322D01*
X139582986Y-79438335D01*
X138816378Y-79437666D01*
X138107868Y-79730416D01*
X137565322Y-80272017D01*
X137271335Y-80980014D01*
X137270666Y-81746622D01*
X128624710Y-81746622D01*
X128624912Y-81515989D01*
X128645000Y-81415000D01*
X128625088Y-81314893D01*
X128625290Y-81082888D01*
X128539828Y-80876054D01*
X130356382Y-79059500D01*
X144104618Y-79059500D01*
X145006559Y-79961441D01*
X145248092Y-80122828D01*
X145533000Y-80179500D01*
X145732635Y-80179500D01*
X145732635Y-80285000D01*
X145762409Y-80443237D01*
X145855927Y-80588567D01*
X145998619Y-80686064D01*
X146168000Y-80720365D01*
X147868000Y-80720365D01*
X148026237Y-80690591D01*
X148171567Y-80597073D01*
X148269064Y-80454381D01*
X148303365Y-80285000D01*
X148303365Y-79572454D01*
X148378206Y-79948705D01*
X148655025Y-80362993D01*
X149069313Y-80639812D01*
X149558000Y-80737018D01*
X150046687Y-80639812D01*
X150460975Y-80362993D01*
X150737794Y-79948705D01*
X150835000Y-79460018D01*
X150835000Y-79458002D01*
X150927954Y-79458002D01*
X150840522Y-79657452D01*
X151021371Y-80121735D01*
X151366127Y-80481468D01*
X151822303Y-80681886D01*
X151875549Y-80692476D01*
X152075000Y-80605024D01*
X152075000Y-79458000D01*
X152121000Y-79458000D01*
X152121000Y-80605024D01*
X152320451Y-80692476D01*
X152373697Y-80681886D01*
X152829873Y-80481468D01*
X153174629Y-80121735D01*
X153355478Y-79657452D01*
X153268045Y-79458000D01*
X152121000Y-79458000D01*
X152075000Y-79458000D01*
X152055000Y-79458000D01*
X152055000Y-79412000D01*
X152075000Y-79412000D01*
X152075000Y-79392000D01*
X152121000Y-79392000D01*
X152121000Y-79412000D01*
X153268045Y-79412000D01*
X153355478Y-79212548D01*
X153174629Y-78748265D01*
X152829873Y-78388532D01*
X152536180Y-78259500D01*
X153269400Y-78259500D01*
X153554308Y-78202828D01*
X153795841Y-78041441D01*
X155527782Y-76309500D01*
X155572373Y-76309500D01*
X155805408Y-76658262D01*
X156224109Y-76938029D01*
X156718000Y-77036270D01*
X157211891Y-76938029D01*
X157630592Y-76658262D01*
X157910359Y-76239561D01*
X157988000Y-75849233D01*
X158065641Y-76239561D01*
M02*
