M48
;DRILL file {KiCad 4.0.7} date 09/29/18 17:05:21
;FORMAT={2:4/ absolute / inch / suppress leading zeros}
FMAT,2
INCH,TZ
T1C0.012
T2C0.016
T3C0.024
T4C0.039
T5C0.040
T6C0.051
T7C0.120
%
G90
G05
M72
T1
X49999Y-39376
X51220Y-40193
X57155Y-38628
X57194Y-40075
X62903Y-35498
X65777Y-36768
X67224Y-33608
X67253Y-35085
X67263Y-32122
T2
X48828Y-38776
X51417Y-47949
X54517Y-38746
X64015Y-37161
T3
X56062Y-42811
X56062Y-44671
T4
X49980Y-32053
X49980Y-36778
X49980Y-41896
X49980Y-46620
X57881Y-31274
X58881Y-31274
X59881Y-31274
X60535Y-45258
X60535Y-46258
X60535Y-47258
X62243Y-45262
X62243Y-46262
X62243Y-47262
X64507Y-45939
X64566Y-38904
X64566Y-43628
X65507Y-45939
X66507Y-45939
X67507Y-45939
T5
X51100Y-29750
X52100Y-29750
X53100Y-29750
X54100Y-29750
X54700Y-48750
X55100Y-29750
X55700Y-48750
X56100Y-29750
X56700Y-48750
X57100Y-29750
X57700Y-48750
X58100Y-29750
X58700Y-48750
X59100Y-29750
X59700Y-48750
X60100Y-29750
X60700Y-48750
X61700Y-29750
X61700Y-48750
X62700Y-29750
X63700Y-29750
X63700Y-48750
X64700Y-29750
X64700Y-48750
X65700Y-29750
X65700Y-48750
X66700Y-29750
X66700Y-48750
X67700Y-29750
X67700Y-48750
X68700Y-29750
X68700Y-48750
T6
X45570Y-32329
X45570Y-34297
X45570Y-36266
X45570Y-42171
X45570Y-44140
X45570Y-46108
X49212Y-34396
X49212Y-44238
X54783Y-36778
X54783Y-46620
X54802Y-32033
X54802Y-41876
X59743Y-43648
X59763Y-38904
X65334Y-41285
X68798Y-39317
X68798Y-41285
X68798Y-43254
T7
X49200Y-48750
X49700Y-29750
X69700Y-35750
X69700Y-46750
T0
M30
